<?xml version="1.0" encoding="utf-8"?>
<!-- Generator: Adobe Illustrator 16.0.0, SVG Export Plug-In . SVG Version: 6.00 Build 0)  -->
<!DOCTYPE svg PUBLIC "-//W3C//DTD SVG 1.1//EN" "http://www.w3.org/Graphics/SVG/1.1/DTD/svg11.dtd">
<svg version="1.1" id="Layer_1" xmlns="http://www.w3.org/2000/svg" xmlns:xlink="http://www.w3.org/1999/xlink" x="0px" y="0px"
	 width="179.406px" height="61.058px" viewBox="0 0 179.406 61.058" enable-background="new 0 0 179.406 61.058"
	 xml:space="preserve">
<g>
	<polygon fill="#231F20" points="92.804,39.322 97.277,12.965 104.024,12.965 109.373,27.053 115.034,12.965 121.852,12.965 
		125.837,39.322 118.985,39.322 117.063,24.152 116.992,24.152 110.666,39.322 107.938,39.322 101.894,24.152 101.822,24.152 
		99.619,39.322 	"/>
	<polygon fill="#231F20" points="143.777,18.767 135.636,18.767 135.636,23.172 143.358,23.172 143.358,28.974 135.636,28.974 
		135.636,33.519 143.777,33.519 143.777,39.322 128.783,39.322 128.783,12.966 143.777,12.966 	"/>
	<polygon fill="#231F20" points="168.509,12.966 162.846,27.052 157.498,12.966 150.751,12.966 146.278,39.321 153.096,39.321 
		155.297,24.151 155.366,24.151 161.415,39.321 164.141,39.321 170.465,24.151 170.537,24.151 172.461,39.321 179.312,39.321 
		175.326,12.966 	"/>
	<path fill="#231F20" d="M102.158,51.354h7.747c0.032,1.416-0.083,2.632-0.348,3.65c-0.262,1.021-0.788,1.992-1.576,2.913
		c-0.84,0.988-1.874,1.753-3.099,2.294c-1.226,0.543-2.488,0.813-3.786,0.813c-2.617,0-4.865-0.938-6.751-2.823
		c-1.882-1.882-2.824-4.134-2.824-6.747c0-2.665,0.947-4.944,2.841-6.836c1.89-1.892,4.175-2.837,6.855-2.837
		c3.192,0,5.816,1.341,7.872,4.022l-1.505,1.404c-1.662-2.334-3.791-3.504-6.39-3.504c-2.106,0-3.899,0.765-5.379,2.295
		c-1.481,1.529-2.22,3.356-2.22,5.479c0,2.024,0.723,3.773,2.171,5.255c0.706,0.708,1.528,1.279,2.465,1.714
		c0.94,0.438,1.877,0.656,2.815,0.656c1.692,0,3.223-0.556,4.587-1.666c1.367-1.108,2.049-2.497,2.049-4.157h-5.525V51.354z"/>
	<path fill="#231F20" d="M117.308,52.539v8.169h-2.072V42.102h2.688c0.954,0,1.809,0.071,2.564,0.22
		c0.758,0.149,1.476,0.405,2.148,0.767c0.673,0.362,1.192,0.894,1.554,1.593c0.362,0.698,0.545,1.549,0.545,2.554
		c0,1.43-0.421,2.615-1.261,3.552c-0.838,0.938-1.973,1.464-3.403,1.58l5.921,8.341h-2.541l-5.628-8.169H117.308z M117.308,44.026
		v6.688h0.642c0.657,0,1.237-0.041,1.738-0.123c0.502-0.083,0.996-0.235,1.479-0.459c0.487-0.219,0.856-0.562,1.113-1.022
		c0.254-0.461,0.381-1.037,0.381-1.729c0-0.592-0.09-1.098-0.272-1.514c-0.181-0.421-0.402-0.75-0.666-0.988
		c-0.262-0.238-0.616-0.425-1.059-0.556c-0.446-0.131-0.87-0.213-1.271-0.247c-0.403-0.032-0.894-0.05-1.469-0.05H117.308z"/>
	<path fill="#231F20" d="M142.291,55.425h-7.945l-2.243,5.28h-2.271l8.588-19.494l8.364,19.494h-2.294L142.291,55.425z
		 M141.479,53.502l-3.109-7.453l-3.185,7.453H141.479z"/>
	<path fill="#231F20" d="M153.262,52.564v8.144h-2.072V42.102h3.06c1.019,0,1.891,0.056,2.614,0.174
		c0.726,0.112,1.392,0.385,1.999,0.812c0.676,0.477,1.195,1.089,1.555,1.838c0.364,0.749,0.545,1.551,0.545,2.407
		c0,1.677-0.593,3.009-1.776,3.996c-1.006,0.824-2.478,1.234-4.417,1.234H153.262z M153.262,44.026v6.612h1.381
		c2.83,0,4.245-1.119,4.245-3.354c0-0.593-0.093-1.095-0.283-1.505c-0.188-0.412-0.428-0.729-0.717-0.951
		c-0.286-0.222-0.662-0.394-1.121-0.52c-0.462-0.121-0.89-0.198-1.284-0.232c-0.394-0.032-0.879-0.05-1.456-0.05H153.262z"/>
	<polygon fill="#231F20" points="167.809,49.653 177.334,49.653 177.334,42.103 179.406,42.103 179.406,60.706 177.334,60.706 
		177.334,51.577 167.809,51.577 167.809,60.706 165.736,60.706 165.736,42.103 167.809,42.103 	"/>
	<g>
		<linearGradient id="SVGID_1_" gradientUnits="userSpaceOnUse" x1="2.458" y1="41.9331" x2="20.7005" y2="22.1549">
			<stop  offset="0" style="stop-color:#FF0097"/>
			<stop  offset="1" style="stop-color:#FFC516"/>
		</linearGradient>
		<path fill="url(#SVGID_1_)" d="M21.245,21.962c0.069-0.112,0.139-0.226,0.198-0.342c0.036-0.062,0.076-0.124,0.109-0.188
			c0.037-0.063,0.076-0.125,0.11-0.188c0.036-0.062,0.076-0.125,0.109-0.188c0.037-0.062,0.076-0.125,0.11-0.188
			c0.037-0.063,0.075-0.125,0.109-0.188c0.038-0.062,0.076-0.124,0.11-0.188c0.037-0.062,0.075-0.124,0.11-0.188
			c0.038-0.062,0.074-0.123,0.11-0.187c0.037-0.062,0.074-0.124,0.109-0.187c0.038-0.062,0.075-0.124,0.109-0.188
			c0.039-0.062,0.075-0.123,0.11-0.187c0.039-0.061,0.074-0.123,0.11-0.186c0.039-0.062,0.073-0.123,0.11-0.186
			c0.039-0.062,0.073-0.123,0.109-0.186c0.039-0.061,0.073-0.125,0.11-0.187c0.039-0.061,0.073-0.123,0.11-0.185
			c0.039-0.061,0.072-0.124,0.109-0.185c0.039-0.061,0.072-0.124,0.109-0.186c0.041-0.061,0.074-0.125,0.112-0.188
			c0.077-0.117,0.144-0.236,0.212-0.356c0.075-0.12,0.152-0.239,0.219-0.363c0.04-0.067,0.085-0.134,0.122-0.202
			c0.037-0.062,0.079-0.125,0.113-0.189c0.037-0.062,0.079-0.124,0.114-0.188c0.037-0.063,0.078-0.125,0.114-0.189
			c0.037-0.063,0.078-0.125,0.113-0.188c0.038-0.063,0.079-0.125,0.114-0.188c0.038-0.062,0.078-0.125,0.114-0.188
			c0.038-0.063,0.077-0.125,0.113-0.188c0.039-0.063,0.078-0.125,0.114-0.188c0.038-0.062,0.077-0.125,0.114-0.188
			c0.038-0.062,0.077-0.125,0.113-0.188c0.039-0.062,0.077-0.125,0.114-0.188c0.039-0.062,0.077-0.124,0.113-0.187
			c0.039-0.062,0.077-0.124,0.114-0.187c0.034-0.054,0.066-0.106,0.1-0.161c0.047-0.075,0.093-0.149,0.138-0.226
			c0.041-0.063,0.08-0.128,0.118-0.192c0.04-0.063,0.078-0.127,0.117-0.192c0.04-0.063,0.078-0.127,0.117-0.192
			c0.04-0.063,0.078-0.127,0.116-0.192c0.041-0.062,0.079-0.127,0.118-0.191c0.048-0.075,0.093-0.151,0.138-0.227
			c0.064-0.1,0.127-0.201,0.186-0.303c0.04-0.064,0.081-0.128,0.119-0.194c1.938-3.125,1.548-7.282-1.172-9.985
			c-3.164-3.146-8.281-3.132-11.428,0.033c-1.54,1.549-2.32,3.565-2.348,5.589c-0.002,0.035-0.001,0.07-0.002,0.104
			c0,0.01-0.001,0.02-0.001,0.029c-0.001,0.037-0.001,0.074-0.002,0.111c-0.003,0.082-0.004,0.163-0.005,0.245
			c-0.003,0.081-0.004,0.163-0.005,0.244c-0.003,0.081-0.004,0.163-0.005,0.244c-0.003,0.082-0.004,0.163-0.005,0.244
			c-0.003,0.081-0.005,0.162-0.005,0.243c-0.004,0.082-0.005,0.163-0.006,0.244c-0.003,0.081-0.005,0.162-0.005,0.242
			c-0.004,0.105-0.006,0.21-0.006,0.315c-0.004,0.075-0.001,0.149-0.002,0.224c-0.006,0.085-0.005,0.17-0.007,0.255
			c-0.005,0.085-0.004,0.169-0.006,0.254c-0.005,0.085-0.005,0.17-0.007,0.255c-0.005,0.085-0.005,0.169-0.006,0.255
			c-0.005,0.084-0.006,0.169-0.007,0.254c-0.005,0.085-0.006,0.169-0.007,0.254c-0.004,0.084-0.006,0.169-0.007,0.253
			c-0.004,0.084-0.006,0.169-0.007,0.253c-0.004,0.084-0.006,0.169-0.007,0.254c-0.004,0.084-0.007,0.168-0.007,0.253
			c-0.003,0.084-0.007,0.168-0.007,0.253c-0.003,0.084-0.008,0.168-0.008,0.252c-0.003,0.084-0.007,0.168-0.007,0.252
			c-0.003,0.084-0.008,0.168-0.008,0.252c-0.002,0.084-0.008,0.168-0.007,0.252c-0.003,0.084-0.009,0.167-0.008,0.251
			c-0.002,0.056-0.007,0.112-0.007,0.167c-0.001,0.013,0,0.025-0.001,0.038c0,0.012-0.001,0.023-0.001,0.034
			c-0.004,0.058-0.003,0.115-0.005,0.173c-0.007,0.085-0.006,0.171-0.009,0.256c-0.006,0.085-0.006,0.17-0.009,0.255
			c-0.006,0.085-0.006,0.171-0.009,0.256c-0.006,0.085-0.007,0.17-0.009,0.255c-0.006,0.084-0.007,0.17-0.01,0.254
			c-0.005,0.085-0.008,0.169-0.009,0.254c-0.005,0.085-0.008,0.169-0.01,0.254c-0.005,0.085-0.009,0.169-0.01,0.254
			c-0.005,0.085-0.009,0.169-0.01,0.253c-0.005,0.084-0.01,0.168-0.01,0.252c-0.005,0.085-0.011,0.169-0.011,0.253
			c-0.004,0.083-0.011,0.167-0.011,0.252c-0.004,0.083-0.011,0.165-0.011,0.248c-0.008,0.085-0.008,0.169-0.011,0.253
			c-0.008,0.085-0.009,0.171-0.012,0.256c-0.007,0.085-0.009,0.17-0.012,0.255c-0.007,0.085-0.01,0.17-0.013,0.255
			c-0.006,0.084-0.01,0.169-0.012,0.254c-0.007,0.084-0.011,0.169-0.013,0.253c-0.007,0.084-0.012,0.168-0.013,0.253
			c-0.007,0.084-0.013,0.167-0.014,0.251c-0.006,0.084-0.013,0.168-0.014,0.251c-0.006,0.084-0.014,0.168-0.015,0.251
			c-0.001,0.019-0.002,0.038-0.003,0.058c-0.007,0.062-0.008,0.122-0.011,0.184c0,0.002-0.001,0.006-0.001,0.009
			c-0.001,0.021-0.002,0.042-0.003,0.062c-0.009,0.085-0.011,0.169-0.015,0.254c-0.009,0.084-0.012,0.169-0.016,0.253
			c-0.008,0.084-0.013,0.168-0.016,0.252c-0.008,0.084-0.013,0.168-0.016,0.251c-0.008,0.084-0.015,0.167-0.018,0.251
			c-0.007,0.083-0.015,0.166-0.017,0.249c-0.007,0.083-0.016,0.166-0.018,0.248c-0.004,0.036-0.006,0.071-0.008,0.106
			c-0.011,0.084-0.014,0.168-0.019,0.252c-0.01,0.084-0.014,0.168-0.018,0.251c-0.01,0.083-0.016,0.166-0.02,0.249
			c-0.009,0.083-0.016,0.166-0.02,0.249c-0.01,0.082-0.018,0.165-0.021,0.247c-0.009,0.082-0.019,0.164-0.022,0.246
			c-0.005,0.046-0.009,0.093-0.013,0.139c-0.011,0.084-0.016,0.166-0.021,0.25c-0.011,0.082-0.017,0.164-0.022,0.246
			c-0.011,0.083-0.018,0.165-0.022,0.246c-0.011,0.082-0.02,0.163-0.024,0.244c-0.011,0.081-0.021,0.162-0.025,0.242
			c-0.007,0.055-0.014,0.11-0.019,0.165c-0.012,0.082-0.018,0.163-0.024,0.244c-0.013,0.082-0.02,0.162-0.026,0.243
			c-0.012,0.08-0.021,0.16-0.027,0.241c-0.012,0.079-0.022,0.159-0.028,0.238c-0.012,0.079-0.024,0.158-0.031,0.236
			c-0.009,0.062-0.016,0.123-0.021,0.184c-0.003,0.02-0.008,0.036-0.011,0.055c-0.009,0.062-0.013,0.122-0.019,0.184
			c-0.006,0.039-0.016,0.075-0.021,0.114c-0.005,0.04-0.006,0.08-0.01,0.121c-0.01,0.059-0.022,0.116-0.029,0.176
			c-0.003,0.02-0.002,0.038-0.004,0.058c-0.012,0.065-0.023,0.133-0.03,0.201c-0.015,0.076-0.023,0.155-0.032,0.233
			c-0.015,0.075-0.025,0.152-0.034,0.23c-0.015,0.074-0.027,0.15-0.037,0.228c-0.015,0.074-0.029,0.148-0.039,0.225
			c-0.015,0.073-0.025,0.15-0.034,0.227c-0.017,0.073-0.028,0.148-0.038,0.224c-0.017,0.073-0.03,0.146-0.041,0.221
			c-0.018,0.078-0.034,0.157-0.046,0.238c-0.017,0.072-0.027,0.146-0.039,0.221c-0.017,0.071-0.03,0.144-0.042,0.216
			c-0.018,0.071-0.033,0.142-0.045,0.214c-0.021,0.082-0.037,0.166-0.051,0.251c-0.018,0.068-0.031,0.14-0.044,0.21
			c-0.019,0.069-0.034,0.139-0.048,0.209c-0.022,0.082-0.042,0.164-0.058,0.249c-0.019,0.07-0.033,0.142-0.047,0.213
			c-0.02,0.067-0.036,0.135-0.05,0.203c-0.023,0.079-0.045,0.159-0.061,0.24c-0.022,0.073-0.039,0.146-0.055,0.221
			c-0.021,0.065-0.038,0.132-0.053,0.199c-0.025,0.077-0.047,0.156-0.065,0.235c-0.023,0.073-0.043,0.147-0.06,0.223
			c-0.021,0.064-0.04,0.13-0.057,0.196c-0.026,0.076-0.05,0.154-0.069,0.234c-0.025,0.072-0.046,0.146-0.064,0.221
			C9.547,34.2,9.526,34.264,9.509,34.33c-0.028,0.077-0.054,0.154-0.075,0.233c-0.026,0.072-0.049,0.146-0.069,0.22
			c-0.023,0.064-0.045,0.13-0.064,0.195c-0.029,0.075-0.056,0.15-0.078,0.228c-0.028,0.073-0.053,0.147-0.075,0.222
			c-0.025,0.065-0.049,0.131-0.069,0.197c-0.029,0.071-0.057,0.144-0.08,0.217c-0.031,0.076-0.058,0.151-0.082,0.229
			c-0.027,0.065-0.052,0.133-0.074,0.2c-0.028,0.065-0.057,0.133-0.079,0.2c-0.035,0.079-0.064,0.158-0.092,0.239
			c-0.029,0.066-0.055,0.135-0.079,0.203c-0.03,0.067-0.059,0.136-0.083,0.205c-0.032,0.071-0.064,0.144-0.091,0.218
			c-0.033,0.07-0.061,0.143-0.087,0.215c-0.032,0.067-0.061,0.137-0.087,0.207c-0.032,0.069-0.063,0.139-0.09,0.209
			c-0.034,0.069-0.066,0.14-0.094,0.211c-0.033,0.069-0.062,0.14-0.09,0.21c-0.034,0.07-0.064,0.141-0.094,0.213
			c-0.034,0.069-0.067,0.141-0.097,0.212c-0.031,0.062-0.062,0.126-0.089,0.189c0,0.001,0,0.001-0.001,0.002
			c-0.003,0.008-0.007,0.015-0.01,0.022c-0.031,0.062-0.059,0.126-0.086,0.19c-0.036,0.07-0.067,0.143-0.099,0.214
			c-0.036,0.072-0.07,0.144-0.102,0.216c-0.037,0.072-0.073,0.145-0.104,0.217c-0.027,0.055-0.055,0.109-0.079,0.163
			c-0.003,0.006-0.006,0.01-0.009,0.016c-0.036,0.065-0.064,0.134-0.095,0.201c-0.012,0.021-0.025,0.041-0.036,0.063
			c-0.026,0.05-0.046,0.103-0.069,0.153c-0.021,0.038-0.043,0.073-0.062,0.111c-0.017,0.035-0.029,0.071-0.045,0.106
			c-0.028,0.054-0.06,0.104-0.086,0.159c-0.009,0.02-0.016,0.04-0.024,0.06c-0.036,0.068-0.074,0.135-0.106,0.205
			c-0.002,0.005-0.003,0.01-0.005,0.015c-0.024,0.045-0.047,0.092-0.069,0.138c-0.039,0.07-0.074,0.144-0.109,0.218
			c-0.04,0.071-0.077,0.145-0.113,0.22c-0.04,0.071-0.077,0.145-0.113,0.22c-0.04,0.072-0.08,0.145-0.115,0.221
			c-0.041,0.072-0.081,0.145-0.117,0.221c-0.021,0.038-0.041,0.076-0.061,0.114c-0.041,0.07-0.077,0.146-0.115,0.219
			c-0.041,0.071-0.079,0.146-0.116,0.22c-0.041,0.072-0.08,0.146-0.117,0.22c-0.042,0.072-0.082,0.146-0.119,0.221
			c-0.042,0.073-0.083,0.146-0.12,0.222c-0.042,0.073-0.085,0.146-0.122,0.222c-0.016,0.028-0.031,0.056-0.046,0.084
			c-0.008,0.013-0.014,0.025-0.021,0.038c-0.018,0.034-0.038,0.066-0.055,0.102c-0.015,0.025-0.028,0.052-0.043,0.079
			c-0.043,0.07-0.081,0.146-0.12,0.219c-0.043,0.071-0.082,0.146-0.121,0.22c-0.043,0.072-0.083,0.146-0.122,0.221
			c-0.043,0.072-0.084,0.146-0.123,0.221c-0.043,0.072-0.085,0.146-0.124,0.221c-0.043,0.073-0.086,0.146-0.125,0.222
			c-0.043,0.073-0.086,0.146-0.125,0.223c-0.043,0.073-0.088,0.146-0.126,0.223c-0.007,0.012-0.015,0.024-0.021,0.036
			c-0.045,0.07-0.084,0.146-0.125,0.219c-0.044,0.071-0.083,0.146-0.124,0.219c-0.045,0.071-0.085,0.146-0.125,0.22
			c-0.045,0.071-0.085,0.145-0.126,0.219c-0.044,0.073-0.086,0.146-0.127,0.221c-0.043,0.072-0.086,0.145-0.126,0.22
			c-0.044,0.073-0.088,0.146-0.128,0.221c-0.044,0.073-0.088,0.146-0.128,0.221c-0.044,0.073-0.088,0.146-0.128,0.222
			c-0.044,0.074-0.089,0.146-0.129,0.222c-0.042,0.07-0.086,0.138-0.124,0.209c-0.043,0.067-0.079,0.138-0.119,0.207
			c-0.046,0.07-0.085,0.145-0.128,0.218c-0.045,0.07-0.086,0.145-0.128,0.218c-0.045,0.07-0.086,0.145-0.128,0.218
			c-0.045,0.071-0.087,0.145-0.129,0.218c-0.045,0.072-0.087,0.146-0.129,0.219c-0.045,0.072-0.088,0.145-0.13,0.219
			c-0.044,0.072-0.087,0.146-0.129,0.219c-0.045,0.072-0.089,0.146-0.13,0.22c-0.045,0.072-0.089,0.145-0.131,0.219
			c-0.044,0.073-0.089,0.145-0.13,0.22c-0.044,0.072-0.09,0.145-0.131,0.22c-0.044,0.073-0.091,0.145-0.131,0.22
			c-0.044,0.073-0.091,0.145-0.132,0.221C0.331,52.316,0,53.431,0,54.625c0,3.553,2.88,6.433,6.432,6.433
			c3.553,0,6.434-2.88,6.434-6.433c0-0.014-0.003-0.026-0.003-0.04c0.002-0.056,0.01-0.11,0.01-0.166
			c0-0.018-0.002-0.033-0.003-0.05c0.002-0.053,0.01-0.104,0.01-0.158c0.001-0.02-0.002-0.038-0.002-0.058
			c0.002-0.05,0.009-0.099,0.009-0.148c0.001-0.022-0.002-0.045-0.002-0.068c0.002-0.046,0.009-0.092,0.01-0.139
			c0-0.026-0.003-0.051-0.003-0.077c0.002-0.044,0.009-0.085,0.01-0.129c0.001-0.03-0.003-0.059-0.002-0.088
			c0.002-0.04,0.008-0.079,0.009-0.119c0.001-0.032-0.002-0.064-0.002-0.097c0.002-0.037,0.008-0.073,0.01-0.11
			c0.001-0.036-0.003-0.071-0.002-0.107c0.002-0.033,0.008-0.065,0.009-0.099c0.002-0.04-0.002-0.078-0.001-0.118
			c0.002-0.03,0.007-0.059,0.009-0.089c0.002-0.044-0.002-0.086-0.001-0.129c0.002-0.026,0.006-0.052,0.008-0.078
			c0.002-0.046-0.001-0.092,0-0.139c0.001-0.023,0.006-0.045,0.007-0.067c0.003-0.051,0-0.1,0.001-0.15
			c0.001-0.02,0.005-0.037,0.006-0.057c0.004-0.055,0-0.107,0.002-0.161c0.001-0.016,0.005-0.03,0.006-0.046
			c0.004-0.058,0-0.114,0.003-0.172c0.001-0.012,0.003-0.023,0.004-0.034c0.005-0.062,0.002-0.123,0.004-0.185
			c0.001-0.008,0.003-0.015,0.003-0.022c0.006-0.066,0.003-0.13,0.006-0.196c0-0.003,0.001-0.007,0.002-0.01
			c0.007-0.078,0.005-0.154,0.008-0.23c0.012-0.137,0.015-0.271,0.017-0.406c0.007-0.109,0.016-0.22,0.016-0.329
			c0.003-0.071,0.01-0.143,0.01-0.213c0.004-0.071,0.01-0.144,0.011-0.213c0.003-0.072,0.009-0.144,0.01-0.215
			c0.004-0.071,0.01-0.143,0.011-0.213c0.004-0.072,0.009-0.144,0.011-0.215c0.004-0.071,0.009-0.144,0.011-0.214
			c0.005-0.072,0.009-0.144,0.011-0.216c0.006-0.071,0.009-0.144,0.012-0.214c0.006-0.072,0.009-0.145,0.012-0.216
			c0.006-0.072,0.009-0.145,0.011-0.216c0.008-0.072,0.01-0.144,0.013-0.216c0.008-0.072,0.009-0.145,0.013-0.217
			c0.007-0.071,0.009-0.144,0.013-0.216c0.01-0.097,0.013-0.192,0.017-0.289c0.013-0.125,0.023-0.25,0.024-0.374
			c0.005-0.071,0.013-0.142,0.014-0.212c0.006-0.07,0.013-0.142,0.015-0.213c0.006-0.07,0.012-0.142,0.014-0.212
			c0.007-0.071,0.013-0.143,0.016-0.213c0.007-0.072,0.013-0.143,0.016-0.214c0.007-0.071,0.012-0.143,0.016-0.214
			c0.008-0.071,0.013-0.143,0.016-0.214c0.009-0.072,0.013-0.143,0.017-0.215c0.009-0.071,0.013-0.143,0.018-0.215
			c0.01-0.071,0.013-0.144,0.018-0.215c0.016-0.113,0.023-0.227,0.029-0.34c0.009-0.086,0.019-0.172,0.022-0.258
			c0.007-0.07,0.016-0.142,0.019-0.212c0.008-0.071,0.016-0.142,0.02-0.212c0.009-0.071,0.017-0.142,0.021-0.213
			c0.01-0.071,0.017-0.142,0.021-0.213c0.009-0.07,0.016-0.142,0.021-0.213c0.011-0.071,0.018-0.142,0.023-0.214
			c0.01-0.071,0.017-0.143,0.022-0.214c0.017-0.1,0.026-0.199,0.033-0.299c0.013-0.086,0.023-0.172,0.029-0.258
			c0.01-0.07,0.02-0.141,0.024-0.211c0.011-0.071,0.021-0.142,0.026-0.212c0.011-0.07,0.02-0.141,0.026-0.212
			c0.012-0.07,0.021-0.142,0.027-0.212c0.013-0.071,0.021-0.142,0.028-0.213c0.014-0.071,0.021-0.142,0.03-0.213
			c0.021-0.105,0.035-0.211,0.045-0.316c0.012-0.071,0.023-0.141,0.03-0.211c0.013-0.07,0.024-0.141,0.032-0.211
			c0.013-0.07,0.024-0.141,0.032-0.212c0.015-0.07,0.025-0.14,0.034-0.211c0.016-0.07,0.026-0.141,0.036-0.212
			c0.019-0.083,0.032-0.168,0.044-0.252c0.019-0.085,0.034-0.171,0.045-0.256c0.015-0.07,0.028-0.14,0.038-0.21
			c0.016-0.07,0.029-0.141,0.04-0.211c0.017-0.069,0.029-0.14,0.041-0.21c0.017-0.069,0.03-0.14,0.043-0.21
			c0.021-0.085,0.039-0.17,0.053-0.256c0.021-0.079,0.038-0.158,0.051-0.238c0.018-0.069,0.033-0.139,0.046-0.209
			c0.019-0.069,0.034-0.139,0.048-0.209c0.019-0.069,0.035-0.139,0.049-0.209c0.02-0.068,0.036-0.138,0.051-0.208
			c0.027-0.091,0.051-0.183,0.068-0.276c0.021-0.068,0.038-0.138,0.053-0.207c0.021-0.068,0.039-0.138,0.055-0.207
			c0.021-0.068,0.039-0.138,0.056-0.207c0.022-0.067,0.041-0.137,0.058-0.206c0.029-0.086,0.055-0.174,0.075-0.262
			c0.023-0.071,0.045-0.143,0.062-0.216c0.023-0.067,0.044-0.136,0.062-0.205c0.023-0.067,0.045-0.136,0.063-0.204
			c0.024-0.067,0.045-0.136,0.064-0.204c0.026-0.07,0.049-0.142,0.069-0.214c0.033-0.085,0.062-0.172,0.085-0.26
			c0.025-0.067,0.049-0.135,0.069-0.203c0.025-0.066,0.049-0.134,0.069-0.202c0.026-0.066,0.05-0.134,0.071-0.202
			c0.027-0.065,0.051-0.133,0.073-0.2c0.037-0.089,0.071-0.18,0.1-0.272c0.027-0.065,0.053-0.132,0.075-0.201
			c0.027-0.065,0.054-0.132,0.076-0.199c0.028-0.065,0.054-0.132,0.077-0.199c0.029-0.065,0.055-0.131,0.079-0.198
			c0.029-0.065,0.056-0.132,0.08-0.198c0.042-0.09,0.081-0.184,0.114-0.278c0.028-0.064,0.057-0.13,0.081-0.198
			c0.029-0.064,0.059-0.13,0.083-0.196c0.03-0.064,0.059-0.13,0.084-0.196c0.031-0.064,0.059-0.13,0.085-0.196
			c0.031-0.063,0.06-0.129,0.086-0.194c0.039-0.077,0.073-0.157,0.106-0.238c0.04-0.081,0.078-0.162,0.111-0.247
			c0.031-0.063,0.062-0.129,0.089-0.194c0.031-0.064,0.062-0.128,0.09-0.195c0.031-0.062,0.062-0.128,0.09-0.192
			c0.032-0.063,0.062-0.128,0.091-0.193c0.033-0.062,0.062-0.127,0.092-0.191c0.033-0.062,0.062-0.127,0.092-0.191
			c0.056-0.1,0.105-0.203,0.15-0.311c0.032-0.062,0.065-0.126,0.095-0.192c0.032-0.063,0.065-0.127,0.095-0.192
			c0.033-0.062,0.065-0.126,0.096-0.191c0.033-0.062,0.065-0.126,0.096-0.191c0.034-0.062,0.065-0.126,0.097-0.19
			c0.034-0.062,0.065-0.125,0.097-0.188c0.034-0.062,0.065-0.126,0.097-0.189c0.04-0.069,0.075-0.143,0.111-0.216
			c0.058-0.101,0.113-0.205,0.163-0.313c0.034-0.063,0.069-0.125,0.1-0.191c0.035-0.062,0.07-0.125,0.101-0.19
			c0.034-0.062,0.069-0.124,0.101-0.189c0.035-0.062,0.069-0.124,0.101-0.189c0.035-0.062,0.069-0.124,0.102-0.188
			c0.035-0.062,0.068-0.124,0.102-0.188c0.035-0.061,0.067-0.124,0.101-0.188c0.036-0.061,0.068-0.124,0.102-0.187
			c0.036-0.061,0.068-0.124,0.102-0.187c0.043-0.07,0.08-0.146,0.12-0.219c0.067-0.111,0.132-0.227,0.19-0.347
			c0.035-0.062,0.073-0.121,0.105-0.186c0.002-0.005,0.003-0.01,0.006-0.015c0.03-0.054,0.063-0.104,0.092-0.16
			c0.005-0.009,0.008-0.02,0.014-0.029c0.027-0.049,0.059-0.094,0.085-0.144c0.008-0.016,0.013-0.03,0.021-0.045
			c0.024-0.044,0.054-0.085,0.077-0.129c0.011-0.02,0.018-0.04,0.028-0.06c0.022-0.039,0.048-0.075,0.07-0.115
			c0.013-0.023,0.022-0.049,0.035-0.073c0.02-0.034,0.043-0.065,0.063-0.101c0.016-0.028,0.026-0.059,0.042-0.086
			c0.018-0.03,0.038-0.059,0.056-0.088c0.019-0.033,0.032-0.067,0.05-0.1c0.016-0.026,0.033-0.049,0.049-0.075
			c0.021-0.036,0.037-0.075,0.058-0.112c0.013-0.021,0.027-0.04,0.04-0.062c0.024-0.041,0.043-0.083,0.065-0.125
			c0.011-0.017,0.023-0.032,0.033-0.049c0.027-0.045,0.048-0.092,0.073-0.137c0.008-0.013,0.018-0.024,0.025-0.038
			c0.029-0.049,0.053-0.099,0.08-0.148c0.006-0.009,0.013-0.017,0.018-0.025c0.032-0.052,0.059-0.106,0.089-0.159
			c0.003-0.005,0.007-0.009,0.01-0.015c0.035-0.056,0.063-0.114,0.096-0.171c0.001-0.001,0.002-0.002,0.003-0.003
			C21.138,22.163,21.19,22.062,21.245,21.962"/>
		<linearGradient id="SVGID_2_" gradientUnits="userSpaceOnUse" x1="41.8574" y1="43.9634" x2="18.2286" y2="15.9661">
			<stop  offset="0" style="stop-color:#FF7300"/>
			<stop  offset="1" style="stop-color:#FFC516"/>
		</linearGradient>
		<path fill="url(#SVGID_2_)" d="M45.058,48.95c-0.113-0.156-0.231-0.308-0.357-0.454c-0.113-0.157-0.235-0.309-0.362-0.456
			c-0.112-0.154-0.231-0.304-0.355-0.448c-0.11-0.154-0.228-0.302-0.351-0.445c-0.108-0.153-0.223-0.3-0.344-0.442
			c-0.106-0.151-0.219-0.297-0.338-0.438c-0.11-0.16-0.229-0.313-0.354-0.46c-0.116-0.17-0.242-0.332-0.376-0.487
			c-0.112-0.162-0.23-0.318-0.359-0.468c-0.103-0.147-0.211-0.289-0.327-0.426c-0.099-0.146-0.205-0.286-0.317-0.421
			c-0.11-0.168-0.232-0.325-0.361-0.479c-0.111-0.17-0.233-0.332-0.363-0.486c-0.107-0.161-0.221-0.317-0.346-0.464
			c-0.092-0.141-0.191-0.274-0.296-0.403c-0.108-0.172-0.23-0.332-0.359-0.486c-0.106-0.17-0.223-0.332-0.351-0.484
			c-0.095-0.15-0.196-0.294-0.307-0.43c-0.102-0.168-0.216-0.323-0.338-0.473c-0.102-0.17-0.214-0.33-0.337-0.48
			c-0.094-0.157-0.195-0.306-0.307-0.445c-0.098-0.17-0.209-0.328-0.329-0.478c-0.095-0.168-0.198-0.327-0.314-0.475
			c-0.092-0.165-0.196-0.318-0.31-0.463c-0.021-0.041-0.041-0.084-0.065-0.124c-0.071-0.121-0.15-0.234-0.233-0.343
			c-0.05-0.095-0.103-0.188-0.162-0.279c-0.045-0.069-0.095-0.134-0.144-0.199c-0.074-0.145-0.155-0.287-0.252-0.423
			c-0.012-0.016-0.024-0.029-0.035-0.044c-0.082-0.168-0.183-0.329-0.295-0.484c-0.08-0.169-0.175-0.334-0.287-0.49
			c-0.074-0.16-0.163-0.315-0.266-0.465c-0.077-0.18-0.173-0.353-0.286-0.517c-0.07-0.168-0.157-0.329-0.26-0.483
			c-0.067-0.169-0.151-0.331-0.25-0.486c-0.066-0.174-0.149-0.341-0.248-0.5c-0.064-0.179-0.146-0.352-0.246-0.515
			c-0.06-0.173-0.137-0.34-0.229-0.498c-0.057-0.175-0.13-0.343-0.22-0.503c-0.054-0.176-0.124-0.345-0.21-0.507
			c-0.054-0.186-0.125-0.365-0.213-0.535c-0.05-0.178-0.115-0.349-0.197-0.514c-0.046-0.177-0.108-0.35-0.186-0.514
			c-0.044-0.18-0.104-0.354-0.179-0.521c-0.044-0.192-0.105-0.379-0.185-0.558c-0.04-0.177-0.094-0.349-0.162-0.513
			c-0.038-0.188-0.095-0.369-0.164-0.543c-0.037-0.189-0.088-0.373-0.156-0.549c-0.035-0.183-0.085-0.359-0.148-0.529
			c-0.034-0.19-0.081-0.375-0.145-0.553c-0.003-0.02-0.004-0.038-0.008-0.058c-0.032-0.166-0.078-0.324-0.131-0.479
			c-0.013-0.076-0.023-0.151-0.041-0.228c-0.024-0.106-0.056-0.209-0.089-0.311c-0.021-0.132-0.048-0.264-0.084-0.396
			c-0.014-0.054-0.034-0.104-0.051-0.156c-0.027-0.184-0.064-0.367-0.121-0.551c-0.001-0.006-0.004-0.011-0.006-0.017
			c-0.026-0.174-0.066-0.348-0.117-0.521c-0.027-0.192-0.068-0.385-0.124-0.575c-0.026-0.188-0.063-0.376-0.116-0.562
			c-0.024-0.174-0.061-0.348-0.107-0.521c-0.024-0.197-0.064-0.393-0.117-0.587c-0.026-0.199-0.061-0.398-0.114-0.596
			c-0.022-0.164-0.054-0.327-0.094-0.489c-0.022-0.19-0.06-0.38-0.105-0.567c-0.023-0.202-0.061-0.4-0.109-0.6
			c-0.024-0.197-0.058-0.395-0.106-0.59c-0.022-0.174-0.053-0.348-0.094-0.52c-0.021-0.179-0.052-0.355-0.091-0.531
			c-0.021-0.194-0.055-0.386-0.098-0.578c-0.022-0.203-0.057-0.405-0.102-0.606c-0.023-0.192-0.056-0.384-0.098-0.576
			c-0.022-0.183-0.054-0.365-0.093-0.546c-0.021-0.185-0.052-0.37-0.091-0.553c-0.021-0.188-0.051-0.375-0.089-0.561
			c-0.021-0.189-0.05-0.378-0.088-0.565c-0.021-0.191-0.049-0.382-0.087-0.572c-0.021-0.193-0.055-0.384-0.093-0.574
			c-0.021-0.188-0.053-0.375-0.09-0.562c-0.021-0.19-0.053-0.379-0.089-0.567c-0.022-0.191-0.052-0.381-0.089-0.571
			c-0.019-0.167-0.042-0.332-0.072-0.498c-0.021-0.212-0.053-0.423-0.093-0.633c-0.021-0.193-0.051-0.386-0.086-0.578
			c-0.022-0.194-0.051-0.388-0.087-0.58c-0.021-0.196-0.049-0.39-0.085-0.583c-0.202-1.764-0.979-3.474-2.331-4.827
			c-3.181-3.181-8.338-3.181-11.519,0c-3.037,3.037-3.172,7.873-0.411,11.073c0.117,0.157,0.24,0.31,0.369,0.459
			c0.117,0.158,0.24,0.312,0.37,0.462c0.113,0.152,0.23,0.301,0.356,0.446c0.112,0.151,0.231,0.3,0.356,0.444
			c0.098,0.132,0.205,0.257,0.312,0.384c0.108,0.151,0.229,0.297,0.351,0.442c0.123,0.172,0.258,0.34,0.398,0.503
			c0.12,0.167,0.246,0.331,0.384,0.489c0.008,0.01,0.018,0.018,0.025,0.027c0.093,0.125,0.184,0.251,0.285,0.371
			c0.019,0.022,0.041,0.041,0.06,0.062c0.082,0.113,0.161,0.227,0.251,0.336c0.03,0.035,0.063,0.066,0.095,0.102
			c0.071,0.099,0.139,0.2,0.217,0.297c0.041,0.049,0.086,0.094,0.128,0.143c0.061,0.084,0.116,0.172,0.183,0.256
			c0.052,0.064,0.109,0.123,0.163,0.185c0.05,0.07,0.095,0.144,0.147,0.213c0.063,0.081,0.133,0.154,0.198,0.231
			c0.039,0.055,0.072,0.112,0.113,0.167c0.073,0.098,0.154,0.188,0.232,0.279c0.027,0.039,0.05,0.08,0.078,0.118
			c0.084,0.116,0.177,0.224,0.269,0.331c0.015,0.022,0.026,0.045,0.042,0.067c0.096,0.135,0.198,0.262,0.304,0.385
			c0.002,0.005,0.004,0.009,0.007,0.014c0.117,0.17,0.243,0.33,0.374,0.483c0.107,0.156,0.222,0.304,0.342,0.444
			c0.107,0.158,0.222,0.308,0.342,0.449c0.107,0.159,0.221,0.311,0.342,0.453c0.106,0.16,0.22,0.312,0.341,0.457
			c0.105,0.161,0.218,0.316,0.34,0.461c0.103,0.158,0.213,0.311,0.332,0.453c0.104,0.162,0.218,0.312,0.338,0.458
			c0.104,0.163,0.217,0.316,0.338,0.462c0.102,0.164,0.213,0.321,0.335,0.469c0.102,0.166,0.21,0.325,0.332,0.473
			c0.093,0.153,0.195,0.3,0.306,0.437c0.098,0.166,0.209,0.32,0.327,0.469c0.098,0.17,0.208,0.33,0.328,0.48
			c0.095,0.166,0.197,0.325,0.314,0.472c0.087,0.157,0.186,0.305,0.293,0.444c0.092,0.174,0.2,0.335,0.317,0.487
			c0.09,0.172,0.191,0.336,0.308,0.488c0.082,0.159,0.176,0.311,0.281,0.453c0.085,0.174,0.185,0.337,0.297,0.49
			c0.082,0.172,0.177,0.336,0.287,0.488c0.075,0.163,0.164,0.318,0.265,0.465c0.079,0.182,0.175,0.354,0.285,0.516
			c0.071,0.166,0.156,0.324,0.255,0.475c0.069,0.174,0.155,0.34,0.256,0.498c0.067,0.175,0.151,0.343,0.25,0.503
			c0.062,0.168,0.14,0.331,0.231,0.486c0.062,0.183,0.144,0.358,0.241,0.526c0.056,0.17,0.127,0.334,0.214,0.491
			c0.057,0.186,0.131,0.366,0.224,0.537c0.051,0.171,0.116,0.338,0.198,0.497c0.05,0.182,0.116,0.358,0.2,0.529
			c0.047,0.179,0.109,0.354,0.189,0.521c0.043,0.175,0.103,0.347,0.177,0.513c0.043,0.189,0.104,0.376,0.183,0.557
			c0.039,0.173,0.092,0.343,0.16,0.509c0.038,0.186,0.094,0.367,0.165,0.545c0.036,0.186,0.087,0.369,0.156,0.549
			c0.033,0.173,0.08,0.345,0.142,0.513c0.032,0.189,0.084,0.376,0.149,0.56c0.032,0.189,0.077,0.378,0.142,0.563
			c0.029,0.174,0.071,0.347,0.127,0.517c0.028,0.186,0.075,0.369,0.133,0.552c0.028,0.189,0.071,0.378,0.13,0.565
			c0.027,0.189,0.065,0.377,0.122,0.563c0.025,0.174,0.062,0.347,0.111,0.52c0.025,0.188,0.069,0.377,0.122,0.565
			c0.025,0.188,0.064,0.376,0.116,0.563c0.024,0.187,0.061,0.374,0.11,0.561c0.024,0.187,0.057,0.372,0.105,0.559
			c0.022,0.17,0.052,0.341,0.093,0.512c0.005,0.016,0.011,0.031,0.015,0.048c0.019,0.145,0.041,0.29,0.072,0.435
			c0.01,0.044,0.024,0.085,0.035,0.128c0.016,0.119,0.028,0.237,0.053,0.355c0.014,0.07,0.035,0.138,0.052,0.207
			c0.011,0.092,0.019,0.184,0.035,0.276c0.017,0.096,0.043,0.188,0.064,0.281c0.009,0.067,0.012,0.135,0.022,0.202
			c0.02,0.12,0.048,0.236,0.075,0.354c0.005,0.043,0.006,0.085,0.012,0.128c0.021,0.145,0.051,0.285,0.083,0.426
			c0.002,0.02,0.001,0.038,0.004,0.058c0.023,0.19,0.058,0.377,0.1,0.561c0.023,0.189,0.056,0.377,0.097,0.561
			c0.023,0.19,0.055,0.377,0.096,0.56c0.022,0.189,0.053,0.376,0.093,0.559c0.021,0.188,0.052,0.373,0.091,0.556
			c0.021,0.188,0.051,0.372,0.089,0.554c0.021,0.188,0.051,0.371,0.088,0.553c0.019,0.176,0.047,0.349,0.08,0.52
			c0.021,0.21,0.053,0.415,0.092,0.618c0.383,3.482,3.352,6.176,6.929,6.14c3.811-0.038,6.869-3.158,6.831-6.969
			C46.712,51.686,46.084,50.141,45.058,48.95"/>
		<linearGradient id="SVGID_3_" gradientUnits="userSpaceOnUse" x1="54.0879" y1="29.2114" x2="36.1667" y2="49.2074">
			<stop  offset="0" style="stop-color:#6E0097"/>
			<stop  offset="1" style="stop-color:#FF7300"/>
		</linearGradient>
		<path fill="url(#SVGID_3_)" d="M62.858,29.383c0.067-0.054,0.134-0.108,0.2-0.164c0.068-0.054,0.135-0.109,0.201-0.164
			c0.068-0.054,0.135-0.108,0.202-0.165c0.068-0.054,0.135-0.108,0.202-0.164c0.068-0.054,0.137-0.108,0.203-0.165
			c0.068-0.055,0.137-0.108,0.204-0.165c0.068-0.055,0.137-0.108,0.204-0.165c0.069-0.055,0.138-0.108,0.205-0.166
			c0.013-0.01,0.024-0.02,0.036-0.029c0.043-0.032,0.084-0.068,0.126-0.102c0.015-0.012,0.029-0.022,0.044-0.035
			c0.011-0.009,0.021-0.018,0.032-0.026c0.068-0.053,0.135-0.108,0.202-0.163c0.069-0.053,0.136-0.108,0.203-0.164
			c0.068-0.053,0.136-0.107,0.204-0.163c0.068-0.054,0.136-0.108,0.203-0.164c0.068-0.053,0.137-0.108,0.204-0.164
			c0.069-0.054,0.138-0.108,0.205-0.164c0.315-0.247,0.62-0.513,0.911-0.803c4.035-4.009,4.057-10.53,0.047-14.565
			c-4.009-4.035-10.53-4.056-14.565-0.047c-1.771,1.761-2.769,4.005-2.992,6.312c-0.009,0.074-0.019,0.149-0.026,0.225
			c-0.009,0.075-0.019,0.15-0.026,0.226c-0.01,0.075-0.02,0.151-0.027,0.228c-0.01,0.074-0.02,0.149-0.026,0.225
			c-0.01,0.076-0.02,0.151-0.027,0.227c-0.011,0.075-0.02,0.151-0.027,0.228c-0.011,0.075-0.02,0.151-0.027,0.227
			c-0.011,0.075-0.02,0.151-0.028,0.228c-0.011,0.075-0.019,0.151-0.027,0.228c-0.011,0.075-0.02,0.151-0.028,0.228
			c-0.011,0.076-0.019,0.152-0.027,0.229c-0.012,0.075-0.02,0.152-0.029,0.228c-0.018,0.122-0.032,0.244-0.045,0.367
			c-0.013,0.095-0.026,0.189-0.036,0.285c-0.01,0.074-0.021,0.149-0.028,0.225c-0.01,0.075-0.021,0.149-0.028,0.225
			c-0.011,0.075-0.021,0.15-0.029,0.226c-0.01,0.075-0.021,0.15-0.028,0.226c-0.011,0.075-0.021,0.15-0.029,0.226
			c-0.011,0.075-0.021,0.151-0.029,0.227c-0.012,0.076-0.021,0.15-0.03,0.227c-0.011,0.075-0.021,0.151-0.029,0.228
			c-0.012,0.075-0.021,0.151-0.03,0.227c-0.012,0.076-0.021,0.151-0.03,0.228c-0.021,0.125-0.037,0.25-0.051,0.375
			c-0.011,0.074-0.021,0.149-0.03,0.224c-0.011,0.075-0.021,0.15-0.031,0.225c-0.011,0.076-0.021,0.15-0.03,0.225
			c-0.012,0.075-0.022,0.15-0.031,0.226c-0.012,0.075-0.022,0.15-0.031,0.226c-0.013,0.076-0.022,0.151-0.032,0.227
			c-0.014,0.079-0.024,0.158-0.034,0.237c-0.007,0.044-0.011,0.088-0.018,0.132c-0.001,0.015-0.003,0.028-0.005,0.042
			c-0.013,0.071-0.021,0.144-0.03,0.216c-0.013,0.071-0.021,0.144-0.031,0.216c-0.014,0.071-0.021,0.144-0.032,0.216
			c-0.019,0.098-0.028,0.195-0.043,0.293c-0.023,0.132-0.043,0.265-0.06,0.396c-0.019,0.113-0.041,0.226-0.054,0.339
			c-0.01,0.07-0.024,0.139-0.033,0.209c-0.011,0.069-0.024,0.139-0.033,0.208c-0.011,0.07-0.024,0.14-0.033,0.209
			c-0.012,0.07-0.024,0.14-0.034,0.21c-0.013,0.069-0.024,0.14-0.034,0.21c-0.013,0.069-0.025,0.14-0.035,0.21
			c-0.014,0.069-0.024,0.14-0.035,0.21c-0.014,0.07-0.024,0.141-0.036,0.211c-0.015,0.07-0.024,0.141-0.036,0.211
			c-0.015,0.07-0.024,0.142-0.037,0.212c-0.021,0.097-0.034,0.194-0.051,0.293c-0.026,0.124-0.051,0.248-0.068,0.374
			c-0.016,0.082-0.035,0.162-0.047,0.244c-0.013,0.068-0.028,0.136-0.038,0.204c-0.015,0.068-0.029,0.137-0.04,0.206
			c-0.015,0.067-0.029,0.137-0.04,0.205c-0.016,0.068-0.029,0.137-0.041,0.206c-0.017,0.068-0.029,0.138-0.042,0.207
			c-0.017,0.068-0.029,0.138-0.043,0.206c-0.018,0.068-0.029,0.139-0.044,0.208c-0.028,0.109-0.05,0.221-0.07,0.332
			c-0.024,0.098-0.05,0.195-0.067,0.295c-0.016,0.066-0.033,0.133-0.046,0.201c-0.017,0.066-0.033,0.134-0.046,0.201
			c-0.019,0.067-0.034,0.134-0.049,0.201c-0.019,0.067-0.034,0.135-0.049,0.203c-0.02,0.066-0.035,0.135-0.051,0.202
			c-0.021,0.071-0.038,0.145-0.056,0.219c-0.035,0.111-0.065,0.225-0.09,0.34c-0.021,0.071-0.043,0.143-0.06,0.216
			c-0.02,0.064-0.039,0.13-0.055,0.197c-0.021,0.064-0.04,0.13-0.057,0.197c-0.021,0.065-0.041,0.131-0.059,0.197
			c-0.022,0.064-0.041,0.131-0.061,0.198c-0.032,0.09-0.06,0.183-0.086,0.275c-0.03,0.085-0.061,0.171-0.084,0.259
			c-0.022,0.063-0.046,0.127-0.064,0.192c-0.024,0.063-0.047,0.127-0.067,0.192c-0.024,0.063-0.047,0.127-0.068,0.192
			c-0.025,0.062-0.048,0.128-0.07,0.191c-0.042,0.096-0.078,0.194-0.111,0.295c-0.029,0.068-0.059,0.138-0.083,0.209
			c-0.026,0.062-0.053,0.123-0.076,0.187c-0.028,0.062-0.054,0.124-0.078,0.187c-0.029,0.062-0.056,0.124-0.081,0.187
			c-0.041,0.081-0.077,0.165-0.111,0.249c-0.039,0.076-0.076,0.153-0.109,0.232c-0.03,0.06-0.061,0.12-0.087,0.182
			c-0.031,0.06-0.062,0.119-0.09,0.181c-0.033,0.059-0.062,0.118-0.092,0.18c-0.044,0.074-0.084,0.152-0.122,0.231
			c-0.042,0.07-0.084,0.142-0.122,0.217c-0.003,0.006-0.004,0.011-0.007,0.018c-0.024,0.041-0.052,0.079-0.074,0.122
			c-0.01,0.018-0.017,0.035-0.025,0.053c-0.019,0.029-0.039,0.057-0.057,0.086c-0.017,0.029-0.029,0.06-0.045,0.088
			c-0.012,0.019-0.024,0.034-0.036,0.052c-0.024,0.04-0.045,0.081-0.067,0.121c-0.004,0.007-0.01,0.013-0.014,0.019
			c-0.044,0.064-0.081,0.131-0.119,0.197c-0.054,0.077-0.104,0.154-0.15,0.234c-0.038,0.056-0.076,0.111-0.111,0.17
			c-0.039,0.054-0.077,0.109-0.112,0.167c-0.041,0.054-0.078,0.109-0.115,0.166c-0.047,0.06-0.088,0.121-0.13,0.184
			c-0.065,0.082-0.128,0.166-0.185,0.252c-0.042,0.054-0.083,0.107-0.122,0.164c-0.042,0.053-0.084,0.106-0.123,0.161
			c-0.044,0.053-0.085,0.105-0.125,0.16c-0.045,0.052-0.085,0.105-0.126,0.158c-0.064,0.072-0.123,0.147-0.181,0.224
			c-0.059,0.067-0.118,0.135-0.172,0.206c-0.045,0.052-0.091,0.104-0.133,0.157c-0.046,0.051-0.091,0.103-0.134,0.155
			c-0.047,0.05-0.091,0.102-0.135,0.154c-0.047,0.049-0.091,0.101-0.136,0.152c-0.063,0.064-0.121,0.133-0.18,0.201
			c-0.074,0.075-0.146,0.15-0.213,0.23c-0.048,0.05-0.097,0.1-0.143,0.152c-0.048,0.05-0.097,0.099-0.142,0.15
			c-0.049,0.049-0.097,0.099-0.144,0.149c-0.049,0.049-0.097,0.099-0.143,0.148c-0.05,0.048-0.097,0.098-0.145,0.147
			c-0.062,0.058-0.117,0.118-0.175,0.179c-0.089,0.082-0.175,0.166-0.256,0.255c-0.054,0.053-0.109,0.103-0.16,0.157
			c-0.051,0.049-0.103,0.097-0.15,0.148c-0.051,0.047-0.102,0.095-0.151,0.146c-0.051,0.048-0.102,0.096-0.15,0.146
			c-0.052,0.047-0.102,0.095-0.15,0.144c-0.053,0.046-0.102,0.095-0.151,0.144c-0.052,0.045-0.101,0.094-0.15,0.143
			c-0.074,0.062-0.143,0.132-0.212,0.199c-0.096,0.083-0.189,0.167-0.278,0.257c-0.058,0.053-0.118,0.103-0.173,0.158
			c-0.053,0.048-0.107,0.094-0.158,0.144c-0.053,0.048-0.106,0.094-0.158,0.144c-0.053,0.047-0.106,0.094-0.157,0.142
			c-0.054,0.047-0.106,0.094-0.158,0.143c-0.054,0.046-0.105,0.093-0.157,0.141c-0.054,0.045-0.105,0.094-0.158,0.141
			c-0.054,0.045-0.104,0.094-0.157,0.14c-0.054,0.045-0.104,0.094-0.157,0.14c-0.057,0.046-0.108,0.097-0.163,0.145
			c-0.102,0.081-0.196,0.169-0.292,0.257c-0.101,0.084-0.202,0.166-0.297,0.256c-0.055,0.049-0.112,0.093-0.165,0.143
			c-0.055,0.047-0.111,0.093-0.164,0.142c-0.056,0.047-0.111,0.092-0.165,0.141c-0.007,0.007-0.015,0.012-0.021,0.018
			c-0.004,0.003-0.007,0.006-0.011,0.009c-0.034,0.029-0.069,0.056-0.103,0.085c-0.062,0.051-0.122,0.103-0.181,0.155
			c-0.06,0.049-0.117,0.098-0.175,0.148c-0.059,0.048-0.116,0.097-0.173,0.147c-0.059,0.048-0.116,0.097-0.174,0.146
			c-1.595,1.293-2.615,3.268-2.615,5.481c0,3.896,3.158,7.055,7.055,7.055c3.591,0,6.554-2.684,6.995-6.154
			c0.014-0.083,0.026-0.166,0.036-0.249c0.014-0.082,0.026-0.164,0.037-0.246c0.014-0.082,0.026-0.163,0.037-0.245
			c0.012-0.074,0.023-0.149,0.033-0.224c0.011-0.066,0.017-0.134,0.025-0.2c0.016-0.092,0.029-0.183,0.042-0.275
			c0.016-0.091,0.03-0.182,0.043-0.274c0.015-0.091,0.031-0.181,0.042-0.272c0.016-0.091,0.032-0.181,0.044-0.272
			c0.014-0.084,0.032-0.166,0.042-0.251c0.018-0.084,0.026-0.172,0.041-0.258c0.019-0.091,0.031-0.183,0.046-0.274
			c0.019-0.091,0.032-0.183,0.046-0.274c0.019-0.09,0.034-0.181,0.047-0.272c0.018-0.09,0.035-0.179,0.048-0.271
			c0.018-0.09,0.036-0.179,0.049-0.269c0.002-0.013,0.004-0.024,0.007-0.036c0.006-0.027,0.009-0.055,0.016-0.082
			c0.008-0.05,0.02-0.1,0.025-0.149c0.004-0.014,0.006-0.028,0.009-0.042c0.02-0.09,0.034-0.181,0.05-0.271
			c0.02-0.089,0.036-0.179,0.051-0.269c0.02-0.089,0.037-0.177,0.052-0.267c0.02-0.088,0.039-0.176,0.054-0.264
			c0.007-0.032,0.014-0.063,0.02-0.095c0.007-0.029,0.013-0.06,0.019-0.09c0.005-0.025,0.012-0.052,0.016-0.078
			c0.007-0.032,0.014-0.065,0.02-0.099c0.021-0.087,0.038-0.175,0.055-0.264c0.021-0.086,0.04-0.173,0.056-0.26
			c0.021-0.086,0.042-0.171,0.058-0.258c0.012-0.045,0.022-0.091,0.032-0.138c0.023-0.084,0.039-0.171,0.058-0.257
			c0.022-0.084,0.042-0.168,0.059-0.253c0.022-0.082,0.044-0.165,0.062-0.248c0.016-0.058,0.03-0.113,0.044-0.17
			c0.023-0.081,0.042-0.164,0.061-0.247c0.023-0.08,0.044-0.161,0.063-0.242c0.023-0.079,0.047-0.156,0.065-0.236
			c0.02-0.063,0.036-0.129,0.053-0.194c0.024-0.077,0.045-0.155,0.065-0.233c0.024-0.075,0.049-0.149,0.068-0.226
			c0.023-0.07,0.045-0.142,0.063-0.213c0.025-0.073,0.047-0.147,0.067-0.222c0.025-0.07,0.052-0.142,0.072-0.214
			c0.027-0.074,0.05-0.15,0.072-0.226c0.026-0.069,0.05-0.139,0.071-0.209c0.03-0.075,0.061-0.151,0.085-0.229
			c0.027-0.067,0.049-0.138,0.072-0.207c0.026-0.064,0.053-0.129,0.076-0.194c0.035-0.079,0.063-0.161,0.093-0.242
			c0.027-0.062,0.053-0.126,0.076-0.189c0.037-0.08,0.073-0.16,0.104-0.243c0.028-0.062,0.053-0.123,0.077-0.185
			c0.034-0.072,0.069-0.144,0.099-0.216c0.034-0.068,0.063-0.138,0.092-0.207c0.033-0.062,0.065-0.126,0.094-0.19
			c0.04-0.073,0.074-0.147,0.107-0.223c0.031-0.057,0.062-0.112,0.089-0.17c0.044-0.075,0.082-0.153,0.119-0.231
			c0.019-0.031,0.04-0.062,0.058-0.095c0.013-0.023,0.021-0.048,0.033-0.071c0.045-0.073,0.088-0.149,0.128-0.228
			c0.033-0.054,0.064-0.108,0.094-0.164c0.049-0.075,0.097-0.15,0.14-0.23c0.034-0.052,0.066-0.107,0.099-0.164
			c0.047-0.067,0.093-0.136,0.135-0.209c0.04-0.058,0.077-0.119,0.114-0.18c0.044-0.062,0.088-0.123,0.128-0.188
			c0.047-0.063,0.09-0.13,0.133-0.197c0.04-0.053,0.08-0.105,0.116-0.162c0.055-0.068,0.104-0.142,0.153-0.215
			c0.042-0.054,0.083-0.108,0.122-0.164c0.054-0.066,0.107-0.134,0.156-0.204c0.044-0.054,0.085-0.11,0.126-0.167
			c0.047-0.056,0.094-0.11,0.138-0.168c0.053-0.062,0.103-0.128,0.151-0.193c0.049-0.056,0.096-0.112,0.142-0.171
			c0.052-0.059,0.104-0.116,0.152-0.178c0.051-0.056,0.098-0.116,0.146-0.175c0.053-0.058,0.104-0.115,0.153-0.176
			c0.05-0.053,0.099-0.105,0.146-0.161c0.055-0.058,0.105-0.118,0.157-0.179c0.057-0.059,0.112-0.118,0.165-0.18
			c0.045-0.047,0.091-0.093,0.134-0.142c0.059-0.059,0.112-0.12,0.168-0.182c0.06-0.06,0.117-0.121,0.173-0.184
			c0.061-0.06,0.122-0.12,0.179-0.184c0.04-0.038,0.078-0.078,0.116-0.118c0.063-0.06,0.121-0.122,0.18-0.185
			c0.063-0.06,0.125-0.122,0.185-0.185c0.064-0.061,0.128-0.121,0.188-0.187c0.031-0.03,0.063-0.06,0.094-0.091
			c0.032-0.028,0.062-0.06,0.093-0.09c0.002-0.002,0.004-0.004,0.006-0.006c0.031-0.028,0.06-0.059,0.09-0.089
			c0.066-0.06,0.129-0.122,0.191-0.186c0.066-0.061,0.132-0.122,0.194-0.187c0.067-0.061,0.135-0.122,0.198-0.187
			c0.021-0.019,0.04-0.037,0.06-0.056c0.027-0.023,0.052-0.049,0.079-0.072c0.021-0.021,0.042-0.039,0.062-0.059
			c0.019-0.019,0.037-0.036,0.057-0.054c0.068-0.06,0.133-0.123,0.198-0.185c0.068-0.061,0.135-0.122,0.2-0.186
			c0.069-0.061,0.138-0.122,0.203-0.187c0.069-0.061,0.14-0.122,0.205-0.186c0.005-0.005,0.01-0.009,0.015-0.014
			c0.001-0.001,0.003-0.002,0.004-0.003c0.062-0.057,0.128-0.111,0.188-0.171c0.003-0.003,0.006-0.006,0.01-0.009
			c0.07-0.059,0.136-0.121,0.203-0.183c0.071-0.059,0.138-0.121,0.206-0.183c0.07-0.06,0.139-0.121,0.206-0.184
			c0.071-0.06,0.141-0.121,0.208-0.184c0.071-0.061,0.143-0.121,0.21-0.185c0.071-0.061,0.144-0.12,0.211-0.184
			c0.064-0.057,0.133-0.109,0.195-0.168c0.058-0.047,0.11-0.099,0.166-0.146c0.073-0.059,0.14-0.12,0.209-0.18
			c0.072-0.059,0.141-0.12,0.21-0.181c0.071-0.058,0.141-0.119,0.21-0.18c0.072-0.059,0.143-0.119,0.211-0.181
			c0.072-0.059,0.144-0.118,0.213-0.18c0.071-0.061,0.144-0.119,0.213-0.182c0.002-0.001,0.004-0.003,0.006-0.005
			c0.097-0.075,0.19-0.152,0.282-0.232c0.065-0.053,0.13-0.107,0.192-0.162c0.066-0.054,0.132-0.108,0.195-0.163
			c0.066-0.055,0.132-0.108,0.196-0.164c0.066-0.055,0.133-0.109,0.197-0.165c0.066-0.054,0.134-0.108,0.198-0.164
			c0.037-0.03,0.073-0.061,0.109-0.092c0.009-0.006,0.018-0.013,0.025-0.019c0.059-0.047,0.114-0.097,0.171-0.145
			c0.018-0.015,0.036-0.027,0.055-0.042c0.049-0.04,0.096-0.082,0.144-0.122c0.026-0.021,0.055-0.042,0.082-0.064
			c0.039-0.031,0.077-0.066,0.116-0.099c0.036-0.029,0.073-0.057,0.109-0.087c0.03-0.025,0.06-0.053,0.09-0.078
			c0.045-0.036,0.091-0.07,0.136-0.107c0.021-0.02,0.043-0.039,0.064-0.058c0.054-0.043,0.108-0.084,0.161-0.129
			c0.014-0.012,0.026-0.024,0.041-0.036c0.062-0.05,0.124-0.098,0.185-0.15c0.006-0.005,0.012-0.011,0.018-0.016
			c0.024-0.021,0.05-0.041,0.075-0.062C62.727,29.494,62.792,29.438,62.858,29.383"/>
		<linearGradient id="SVGID_4_" gradientUnits="userSpaceOnUse" x1="58.5928" y1="16.7373" x2="86.641" y2="61.6064">
			<stop  offset="0.0221" style="stop-color:#6E0097"/>
			<stop  offset="1" style="stop-color:#FF0009"/>
		</linearGradient>
		<path fill="url(#SVGID_4_)" d="M80.008,53.843c-0.058-0.074-0.118-0.146-0.181-0.215c-0.058-0.073-0.116-0.145-0.179-0.214
			c-0.057-0.072-0.114-0.145-0.176-0.212c-0.044-0.057-0.091-0.112-0.138-0.166c-0.057-0.074-0.117-0.145-0.179-0.215
			c-0.056-0.073-0.115-0.144-0.176-0.212c-0.055-0.072-0.112-0.143-0.172-0.211c-0.054-0.072-0.109-0.143-0.168-0.21
			c-0.052-0.068-0.104-0.136-0.16-0.2c-0.054-0.072-0.111-0.142-0.17-0.21c-0.053-0.071-0.107-0.14-0.165-0.207
			c-0.052-0.07-0.104-0.139-0.16-0.205c-0.053-0.073-0.105-0.144-0.163-0.212c-0.054-0.076-0.112-0.149-0.172-0.221
			c-0.049-0.069-0.101-0.136-0.155-0.2c-0.046-0.067-0.095-0.135-0.146-0.197c-0.056-0.082-0.113-0.162-0.176-0.237
			c-0.05-0.072-0.102-0.142-0.156-0.209c-0.044-0.065-0.09-0.129-0.138-0.19c-0.053-0.081-0.108-0.159-0.168-0.234
			c-0.049-0.076-0.102-0.149-0.157-0.221c-0.039-0.062-0.081-0.123-0.125-0.182c-0.052-0.088-0.11-0.17-0.171-0.249
			c-0.043-0.071-0.089-0.14-0.138-0.204c-0.043-0.073-0.089-0.144-0.138-0.212c-0.007-0.01-0.011-0.021-0.017-0.031
			c-0.044-0.075-0.092-0.146-0.142-0.214c-0.02-0.033-0.036-0.068-0.058-0.101c-0.018-0.027-0.037-0.053-0.056-0.079
			c-0.043-0.08-0.09-0.158-0.142-0.235c-0.005-0.006-0.01-0.011-0.013-0.016c-0.034-0.063-0.072-0.126-0.112-0.188
			c-0.043-0.085-0.093-0.17-0.148-0.252c-0.033-0.067-0.071-0.133-0.112-0.197c-0.04-0.087-0.088-0.17-0.14-0.253
			c-0.033-0.07-0.07-0.139-0.11-0.207c-0.039-0.086-0.083-0.17-0.132-0.252c-0.032-0.072-0.068-0.143-0.107-0.212
			c-0.036-0.087-0.076-0.171-0.123-0.253c-0.03-0.074-0.064-0.146-0.104-0.217c-0.032-0.084-0.067-0.167-0.11-0.247
			c-0.029-0.078-0.063-0.153-0.101-0.227c-0.027-0.076-0.058-0.15-0.093-0.222c-0.029-0.089-0.065-0.175-0.105-0.258
			c-0.025-0.075-0.054-0.15-0.087-0.223c-0.027-0.09-0.061-0.178-0.099-0.263c-0.022-0.075-0.05-0.149-0.08-0.223
			c-0.026-0.091-0.056-0.181-0.093-0.269c-0.021-0.074-0.046-0.147-0.074-0.221c-0.024-0.093-0.052-0.185-0.087-0.274
			c-0.02-0.073-0.042-0.146-0.067-0.217c-0.022-0.096-0.05-0.189-0.083-0.281c-0.017-0.07-0.037-0.141-0.06-0.21
			c-0.021-0.098-0.047-0.192-0.079-0.286c-0.016-0.075-0.036-0.149-0.059-0.223c-0.019-0.091-0.041-0.18-0.068-0.268
			c-0.018-0.092-0.04-0.183-0.067-0.271c-0.014-0.072-0.03-0.145-0.05-0.215c-0.018-0.099-0.039-0.194-0.065-0.288
			c-0.017-0.087-0.036-0.173-0.06-0.257c-0.014-0.079-0.029-0.157-0.05-0.234c-0.015-0.092-0.032-0.183-0.055-0.271
			c-0.001-0.008-0.001-0.016-0.002-0.023c-0.014-0.082-0.033-0.161-0.053-0.24c-0.006-0.034-0.008-0.068-0.015-0.104
			c-0.009-0.049-0.023-0.095-0.035-0.144c-0.01-0.066-0.018-0.134-0.031-0.2c-0.005-0.018-0.011-0.035-0.015-0.054
			c-0.013-0.089-0.028-0.179-0.049-0.268c-0.013-0.085-0.029-0.17-0.049-0.256c-0.012-0.087-0.027-0.174-0.046-0.261
			c-0.012-0.089-0.026-0.177-0.045-0.266c-0.012-0.09-0.023-0.181-0.042-0.271c-0.011-0.079-0.026-0.159-0.042-0.238
			c-0.011-0.09-0.026-0.179-0.044-0.269c-0.011-0.091-0.025-0.181-0.043-0.272c-0.011-0.092-0.023-0.183-0.041-0.274
			c-0.012-0.093-0.022-0.186-0.041-0.279c-0.008-0.067-0.018-0.135-0.029-0.202c-0.01-0.092-0.025-0.183-0.041-0.274
			c-0.01-0.093-0.024-0.185-0.041-0.277c-0.01-0.094-0.022-0.187-0.039-0.279c-0.01-0.095-0.022-0.188-0.039-0.282
			c-0.01-0.095-0.021-0.189-0.037-0.284c-0.011-0.096-0.021-0.19-0.038-0.285c-0.005-0.05-0.012-0.099-0.019-0.147
			c-0.009-0.094-0.023-0.187-0.038-0.28c-0.009-0.095-0.022-0.188-0.036-0.282c-0.009-0.095-0.022-0.189-0.037-0.284
			c-0.009-0.095-0.021-0.189-0.035-0.285c-0.01-0.095-0.021-0.19-0.036-0.286c-0.009-0.097-0.02-0.192-0.035-0.288
			c-0.01-0.097-0.02-0.193-0.034-0.289c-0.011-0.097-0.02-0.193-0.035-0.29c-0.002-0.023-0.005-0.047-0.008-0.07
			c-0.001-0.023-0.006-0.048-0.008-0.072c-0.007-0.05-0.01-0.1-0.019-0.149c-0.002-0.021-0.005-0.041-0.008-0.062
			c-0.007-0.096-0.021-0.189-0.033-0.285c-0.007-0.095-0.021-0.189-0.033-0.285c-0.008-0.096-0.021-0.191-0.032-0.286
			c-0.009-0.097-0.021-0.191-0.033-0.287c-0.008-0.097-0.02-0.192-0.032-0.288c-0.009-0.097-0.02-0.193-0.033-0.289
			c-0.009-0.097-0.019-0.193-0.031-0.289c-0.01-0.098-0.019-0.194-0.032-0.291c-0.01-0.097-0.018-0.193-0.032-0.291
			c-0.01-0.097-0.018-0.194-0.031-0.291c-0.011-0.098-0.018-0.195-0.032-0.292c-0.01-0.096-0.016-0.19-0.03-0.285
			c-0.003-0.046-0.011-0.091-0.015-0.137c-0.005-0.036-0.006-0.073-0.011-0.109c-0.006-0.094-0.021-0.187-0.03-0.279
			c-0.007-0.096-0.021-0.19-0.03-0.286c-0.006-0.096-0.02-0.191-0.03-0.286c-0.007-0.097-0.019-0.191-0.029-0.287
			c-0.007-0.097-0.019-0.191-0.029-0.287c-0.007-0.083-0.016-0.165-0.024-0.247c-0.008-0.119-0.02-0.235-0.033-0.354
			c-0.008-0.092-0.018-0.183-0.028-0.274c-0.008-0.091-0.018-0.183-0.028-0.274c-0.008-0.093-0.017-0.184-0.027-0.275
			c-0.008-0.092-0.017-0.184-0.028-0.276c-0.008-0.093-0.016-0.185-0.027-0.277c-0.008-0.093-0.017-0.185-0.027-0.277
			c-0.008-0.094-0.017-0.187-0.027-0.278c-0.005-0.062-0.012-0.124-0.019-0.187c-0.007-0.092-0.018-0.185-0.027-0.275
			c-0.007-0.092-0.018-0.184-0.027-0.275c-0.008-0.092-0.018-0.184-0.027-0.275c-0.008-0.093-0.018-0.186-0.027-0.277
			c-0.008-0.093-0.017-0.185-0.027-0.276c-0.008-0.094-0.017-0.186-0.027-0.278c-0.008-0.093-0.017-0.186-0.026-0.278
			c-0.008-0.093-0.017-0.186-0.027-0.278c-0.008-0.093-0.017-0.187-0.027-0.279c-0.008-0.093-0.016-0.187-0.026-0.279
			c-0.008-0.094-0.017-0.188-0.027-0.28c-0.008-0.093-0.016-0.187-0.026-0.28c-0.008-0.093-0.016-0.187-0.026-0.28
			c-0.009-0.094-0.016-0.188-0.027-0.28c-0.003-0.04-0.007-0.079-0.011-0.118c-0.007-0.093-0.017-0.186-0.026-0.277
			c-0.007-0.093-0.018-0.186-0.026-0.277c-0.007-0.093-0.017-0.186-0.026-0.277c-0.007-0.094-0.017-0.187-0.026-0.279
			c-0.007-0.093-0.017-0.186-0.026-0.278c-0.007-0.093-0.017-0.187-0.026-0.279c-0.007-0.093-0.017-0.186-0.026-0.278
			c-0.007-0.093-0.016-0.187-0.026-0.28c-0.007-0.093-0.016-0.186-0.025-0.279c-0.008-0.094-0.017-0.187-0.026-0.279
			c-0.191-2.376-1.193-4.698-3.01-6.515c-4.062-4.062-10.648-4.062-14.71,0c-3.983,3.982-4.059,10.391-0.23,14.468
			c0.058,0.065,0.118,0.129,0.179,0.193c0.058,0.064,0.119,0.128,0.179,0.192c0.058,0.065,0.119,0.129,0.18,0.193
			c0.058,0.065,0.119,0.129,0.179,0.193c0.059,0.065,0.12,0.129,0.18,0.193c0.103,0.117,0.209,0.23,0.317,0.344
			c0.065,0.07,0.129,0.143,0.196,0.212c0.002,0.003,0.005,0.005,0.007,0.007c0.054,0.059,0.106,0.118,0.161,0.176
			c0.006,0.006,0.011,0.01,0.016,0.015c0.051,0.057,0.101,0.113,0.153,0.168c0.008,0.008,0.016,0.015,0.022,0.023
			c0.049,0.053,0.096,0.107,0.146,0.159c0.01,0.012,0.021,0.021,0.03,0.031c0.046,0.051,0.091,0.103,0.138,0.152
			c0.013,0.014,0.026,0.026,0.039,0.039c0.043,0.048,0.085,0.097,0.129,0.145c0.016,0.016,0.032,0.03,0.048,0.047
			c0.041,0.045,0.079,0.091,0.121,0.136c0.019,0.019,0.037,0.036,0.056,0.056c0.038,0.042,0.074,0.085,0.112,0.127
			c0.021,0.021,0.044,0.043,0.064,0.064c0.035,0.039,0.068,0.079,0.104,0.118c0.024,0.025,0.049,0.049,0.073,0.074
			c0.032,0.036,0.062,0.072,0.096,0.107c0.026,0.029,0.055,0.057,0.082,0.085c0.028,0.032,0.057,0.066,0.086,0.099
			c0.03,0.032,0.061,0.062,0.091,0.093c0.026,0.03,0.051,0.061,0.078,0.09c0.032,0.036,0.066,0.068,0.1,0.104
			c0.023,0.026,0.045,0.054,0.068,0.079c0.035,0.039,0.073,0.075,0.108,0.113c0.021,0.023,0.04,0.048,0.061,0.069
			c0.038,0.043,0.078,0.083,0.118,0.125c0.017,0.019,0.032,0.039,0.05,0.059c0.042,0.046,0.085,0.089,0.128,0.134
			c0.014,0.017,0.026,0.033,0.041,0.049c0.044,0.05,0.091,0.097,0.137,0.146c0.011,0.012,0.021,0.024,0.031,0.037
			c0.048,0.054,0.098,0.104,0.146,0.156c0.008,0.009,0.015,0.018,0.022,0.026c0.051,0.058,0.104,0.112,0.156,0.168
			c0.004,0.005,0.008,0.01,0.012,0.015c0.054,0.062,0.11,0.121,0.166,0.181c0.001,0.001,0.002,0.001,0.003,0.002
			c0.091,0.104,0.184,0.207,0.279,0.306c0.058,0.064,0.115,0.129,0.176,0.191c0.058,0.064,0.115,0.129,0.175,0.19
			c0.059,0.065,0.116,0.131,0.177,0.193c0.058,0.064,0.116,0.13,0.176,0.192c0.058,0.065,0.116,0.13,0.176,0.192
			c0.059,0.066,0.116,0.131,0.177,0.193c0.058,0.065,0.116,0.131,0.177,0.194c0.107,0.122,0.218,0.242,0.332,0.356
			c0.058,0.062,0.111,0.128,0.171,0.188c0.056,0.061,0.108,0.126,0.167,0.185c0.056,0.061,0.109,0.126,0.167,0.185
			c0.057,0.062,0.109,0.127,0.168,0.186c0.056,0.062,0.109,0.126,0.168,0.186c0.056,0.062,0.109,0.126,0.167,0.186
			c0.056,0.062,0.11,0.126,0.168,0.187c0.057,0.062,0.11,0.126,0.168,0.187c0.056,0.062,0.111,0.126,0.168,0.186
			c0.056,0.064,0.111,0.127,0.169,0.188c0.055,0.063,0.11,0.126,0.168,0.188c0.056,0.063,0.111,0.126,0.169,0.188
			c0.055,0.064,0.111,0.126,0.168,0.188c0.056,0.064,0.112,0.126,0.169,0.188c0.055,0.065,0.112,0.127,0.169,0.188
			c0.055,0.065,0.112,0.127,0.169,0.189c0.054,0.065,0.112,0.127,0.169,0.189c0.054,0.066,0.112,0.127,0.169,0.189
			c0.054,0.067,0.112,0.127,0.169,0.19c0.076,0.095,0.159,0.183,0.24,0.271c0.093,0.111,0.187,0.223,0.286,0.325
			c0.055,0.062,0.106,0.127,0.163,0.186c0.055,0.062,0.107,0.127,0.164,0.187c0.054,0.062,0.106,0.127,0.163,0.187
			c0.054,0.062,0.107,0.127,0.164,0.188c0.054,0.063,0.107,0.127,0.164,0.188c0.054,0.064,0.107,0.128,0.164,0.188
			c0.053,0.065,0.107,0.128,0.164,0.189c0.053,0.065,0.108,0.128,0.164,0.19c0.053,0.065,0.108,0.128,0.164,0.19
			c0.053,0.066,0.108,0.128,0.165,0.191c0.052,0.066,0.108,0.129,0.164,0.192c0.065,0.085,0.137,0.164,0.208,0.243
			c0.075,0.096,0.153,0.189,0.235,0.278c0.053,0.063,0.104,0.129,0.16,0.189c0.052,0.063,0.104,0.129,0.159,0.189
			c0.052,0.065,0.104,0.129,0.159,0.191c0.052,0.065,0.104,0.129,0.16,0.191c0.052,0.066,0.104,0.131,0.16,0.193
			c0.051,0.066,0.104,0.131,0.159,0.193c0.051,0.067,0.104,0.132,0.159,0.195c0.059,0.079,0.121,0.154,0.185,0.229
			c0.065,0.088,0.134,0.173,0.206,0.254c0.05,0.066,0.101,0.132,0.155,0.194c0.05,0.066,0.101,0.132,0.154,0.194
			c0.05,0.067,0.102,0.134,0.155,0.196c0.049,0.068,0.101,0.135,0.154,0.198c0.049,0.069,0.101,0.135,0.153,0.2
			c0.06,0.087,0.124,0.171,0.192,0.251c0.051,0.072,0.104,0.144,0.159,0.211c0.048,0.068,0.098,0.135,0.15,0.199
			c0.047,0.069,0.097,0.137,0.148,0.202c0.047,0.07,0.097,0.138,0.148,0.203c0.046,0.071,0.095,0.14,0.146,0.206
			c0.055,0.086,0.113,0.169,0.176,0.249c0.045,0.069,0.093,0.138,0.144,0.204c0.045,0.071,0.092,0.141,0.143,0.207
			c0.043,0.072,0.09,0.143,0.14,0.21c0.049,0.084,0.102,0.166,0.159,0.243c0.043,0.073,0.088,0.143,0.137,0.21
			c0.042,0.073,0.086,0.144,0.135,0.212c0.04,0.074,0.084,0.146,0.132,0.216c0.044,0.082,0.091,0.163,0.144,0.241
			c0.039,0.073,0.082,0.146,0.128,0.215c0.038,0.075,0.08,0.148,0.125,0.219c0.037,0.076,0.077,0.149,0.122,0.221
			c0.039,0.083,0.082,0.163,0.13,0.241c0.035,0.077,0.074,0.15,0.117,0.223c0.034,0.077,0.071,0.152,0.113,0.225
			c0.033,0.077,0.068,0.154,0.109,0.228c0.034,0.084,0.074,0.164,0.117,0.245c0.03,0.077,0.065,0.153,0.104,0.229
			c0.029,0.078,0.063,0.155,0.101,0.229c0.03,0.086,0.065,0.169,0.105,0.251c0.027,0.079,0.06,0.156,0.096,0.232
			c0.026,0.079,0.057,0.157,0.092,0.233c0.025,0.08,0.054,0.158,0.087,0.235c0.026,0.087,0.059,0.173,0.095,0.258
			c0.023,0.08,0.052,0.159,0.083,0.237c0.022,0.08,0.049,0.159,0.079,0.237c0.023,0.089,0.051,0.178,0.084,0.264
			c0.021,0.083,0.047,0.164,0.077,0.244c0.02,0.081,0.043,0.161,0.071,0.24c0.019,0.081,0.041,0.16,0.068,0.24
			c0.019,0.084,0.041,0.169,0.068,0.251c0.019,0.093,0.044,0.184,0.073,0.273c0.018,0.081,0.038,0.162,0.063,0.243
			c0.016,0.081,0.035,0.161,0.06,0.242c0.015,0.081,0.034,0.161,0.057,0.241c0.018,0.103,0.04,0.203,0.069,0.305
			c0.016,0.082,0.033,0.164,0.056,0.245c0.015,0.082,0.032,0.164,0.054,0.245c0.014,0.081,0.03,0.163,0.051,0.244
			c0.013,0.081,0.029,0.162,0.049,0.243c0.012,0.081,0.029,0.162,0.047,0.243c0.016,0.109,0.036,0.22,0.062,0.331
			c0.001,0.003,0.002,0.005,0.003,0.008c0.011,0.068,0.02,0.136,0.035,0.204c0.003,0.015,0.008,0.028,0.012,0.044
			c0.008,0.056,0.014,0.112,0.025,0.169c0.005,0.026,0.014,0.052,0.02,0.077c0.006,0.045,0.009,0.09,0.017,0.135
			c0.008,0.038,0.019,0.074,0.026,0.111c0.005,0.034,0.006,0.067,0.012,0.102c0.008,0.05,0.021,0.096,0.03,0.144
			c0.003,0.023,0.003,0.047,0.007,0.069c0.008,0.06,0.022,0.116,0.034,0.176c0.001,0.012,0.001,0.024,0.003,0.036
			c0.009,0.07,0.023,0.139,0.037,0.207c0,0.002,0,0.004,0,0.006c0.014,0.128,0.034,0.254,0.061,0.376
			c0.012,0.084,0.022,0.168,0.04,0.25c0.011,0.084,0.022,0.167,0.038,0.249c0.011,0.083,0.022,0.166,0.037,0.248
			c0.01,0.083,0.021,0.166,0.037,0.247c0.009,0.083,0.021,0.165,0.036,0.247c0.008,0.083,0.021,0.164,0.034,0.246
			c0.009,0.082,0.021,0.163,0.034,0.245c0.206,2.198,2.054,3.919,4.306,3.919c2.39,0,4.326-1.937,4.326-4.326
			C81.121,55.62,80.698,54.61,80.008,53.843"/>
	</g>
</g>
</svg>
