<?xml version="1.0" standalone="no"?>
<!DOCTYPE svg PUBLIC "-//W3C//DTD SVG 1.1//EN" "http://www.w3.org/Graphics/SVG/1.1/DTD/svg11.dtd">
<svg xmlns="http://www.w3.org/2000/svg">
<metadata>Copyright (C) 2019 by original authors @ fontello.com</metadata>
<defs>
<font id="fontello" horiz-adv-x="1000" >
<font-face font-family="fontello" font-weight="400" font-stretch="normal" units-per-em="1000" ascent="850" descent="-150" />
<missing-glyph horiz-adv-x="1000" />
<glyph glyph-name="brand-account-check" unicode="&#xe800;" d="M1000 704c0 28-23 50-51 50h-898c-28 0-51-22-51-50v-606c0-28 23-51 51-51h472c39-86 126-146 227-146 138 0 250 112 250 250 0 1 0 3 0 5 0 0 0 0 0 1v547z m-250-764c-116 0-211 95-211 211s95 211 211 211 211-95 211-211-95-211-211-211z m211 345c-44 70-122 116-211 116-138 0-250-112-250-250 0-22 3-44 8-65h-457c-7 0-12 6-12 12v606c0 6 5 11 12 11h898c7 0 12-5 12-11v-419z m-554 17l-61 38c-1 2-2 5-2 7v24c0 0 1 1 1 1 8 11 15 23 20 36 11 9 19 23 19 37v27c0 8-3 16-7 23v28c1 9 1 35-19 57-17 20-44 30-80 30-35 0-62-10-79-30-20-22-20-48-19-57v-28c-4-7-7-15-7-23v-27c0-11 5-22 12-30 6-20 15-36 21-44v-23c0-2-1-5-2-7l-56-39c-25-14-41-40-41-69v-22c0-10 9-19 20-19h303c11 0 19 9 19 19v21c0 30-16 57-42 70z m3-71h-263v2c0 15 7 28 20 35 1 1 1 1 2 1l58 40c15 9 18 31 18 39v29c0 5-1 9-4 12-2 3-14 19-19 41-1 4-4 8-7 10-2 1-3 3-3 5v27c0 1 1 3 2 4 3 4 5 8 5 13v35c0 1 0 1 0 2 0 2-1 16 9 28 10 11 27 17 50 17 24 0 41-6 51-17 10-12 9-26 9-28 0-1 0-1 0-2v-35c0-5 2-9 5-13 1-1 2-3 2-4v-27c0-2-2-5-4-6-5-2-9-6-11-11-4-12-10-23-17-33-1-2-3-4-4-6-2-3-4-7-4-12v-30c0-7 4-31 19-40l63-38c0-1 1-1 1-1 14-7 22-21 22-36v-1z m437-10l-126-126-63 63c-7 7-20 7-27 0-8-8-8-20 0-28l75-75c2-2 4-3 6-4 3-2 6-3 10-3 5 0 10 2 13 6l140 140c8 7 8 20 0 27-8 8-20 8-28 0z m-10 375h-317c-11 0-20-9-20-19s9-20 20-20h317c11 0 19 9 19 20s-8 19-19 19z m0-98h-317c-11 0-20-8-20-19s9-20 20-20h317c11 0 19 9 19 20s-8 19-19 19z" horiz-adv-x="1000" />

<glyph glyph-name="brand-account-theft" unicode="&#xe801;" d="M757 77c-13 0-24-11-24-24v-8c0-13 11-23 24-23s23 10 23 23v8c0 13-10 24-23 24z m2 236c-22 0-41-7-56-21-15-15-23-34-23-57 0-10 8-19 19-19 0 0 0 0 0 0 11 0 20 8 20 19 0 12 3 21 11 28 7 7 17 11 29 11 11 0 20-3 26-10 7-7 10-17 10-30 0-9-2-17-5-24-3-5-9-14-24-27-18-15-28-37-28-63 0-11 8-20 19-20 11 0 20 9 20 20 0 19 8 28 14 32 0 1 0 1 1 1 16 15 27 28 33 39 6 13 9 27 9 42 0 23-7 42-20 57-14 15-33 22-55 22z m78 305h-317c-11 0-20-9-20-20s9-19 20-19h317c11 0 19 8 19 19s-8 20-19 20z m163 107c0 28-23 51-51 51h-898c-28 0-51-23-51-51v-605c0-28 23-51 51-51h472c39-87 126-147 227-147 138 0 250 112 250 250 0 2 0 3 0 5 0 0 0 1 0 1v547z m-250-764c-116 0-211 95-211 211s95 211 211 211c116 0 211-94 211-211s-95-211-211-211z m211 345c-44 70-122 116-211 116-138 0-250-112-250-250 0-22 3-44 8-64h-457c-7 0-12 5-12 12v605c0 7 5 12 12 12h898c7 0 12-5 12-12v-419z m-124 214h-317c-11 0-20-9-20-20s9-19 20-19h317c11 0 19 9 19 19s-8 20-19 20z m-430-196l-61 38c-1 1-2 5-2 7v23c0 1 1 1 1 2 8 11 15 23 20 36 11 8 19 22 19 37v26c0 9-3 17-7 24v28c1 9 1 34-19 56-17 20-44 30-80 30s-62-10-79-30c-20-22-20-47-19-56v-28c-4-7-7-15-7-24v-26c0-12 5-23 12-31 6-20 15-35 21-44v-23c0-1-1-5-2-7l-56-38c-25-14-41-41-41-69v-22c0-11 9-20 20-20h303c11 0 19 9 19 20v21c0 29-16 56-42 70z m3-72h-263v3c0 14 7 28 20 35 1 0 1 0 2 1l58 39c15 9 18 32 18 39v30c0 4-1 8-4 12-2 3-14 19-19 40-1 4-4 8-7 11-2 1-3 3-3 5v26c0 2 1 3 2 5 3 3 5 8 5 13v35c0 0 0 1 0 1 0 2-1 17 9 29 10 11 27 16 50 16 24 0 41-5 51-16 10-12 9-27 9-29 0 0 0-1 0-1v-35c0-5 2-10 5-13 1-2 2-3 2-5v-26c0-3-2-5-4-6-5-2-9-7-11-12-4-12-10-23-17-33-1-2-3-4-4-5-2-4-4-8-4-12v-30c0-8 4-31 19-40l63-39c0 0 1-1 1-1 14-7 22-20 22-35v-2z" horiz-adv-x="1000" />

<glyph glyph-name="brand-analytics" unicode="&#xe802;" d="M787 166c-12 13-29 20-47 20-14 0-27-4-38-12l-49 49c60 67 97 155 97 252 0 33-4 64-12 94l146 209 7-28c3-9 11-14 19-14 2 0 4 0 5 0 11 3 17 14 14 24l-20 76c-2 5-5 9-9 11s-10 4-15 2l-76-20c-10-3-16-13-13-24 2-10 13-16 24-14l32 9-129-185c-56 138-191 235-348 235-207 0-375-168-375-375 0-113 50-214 129-283l-56-80c-5 1-10 2-14 2-33 0-59-27-59-59s26-59 59-59 58 27 58 59c0 13-4 26-12 36l55 77c61-43 135-68 215-68 96 0 184 36 250 96l50-50c-7-11-11-23-11-36 0-18 7-35 20-47l185-186c13-12 29-19 47-19s34 7 47 19l10 10c12 13 19 29 19 47 0 18-7 34-19 47l-186 185z m-728-130c-11 0-20 8-20 19s9 20 20 20 19-9 19-20-9-19-19-19z m92 189c-68 61-112 151-112 250 0 185 151 336 336 336 150 0 277-99 320-235l-60-85c-14 13-34 21-55 21-38 0-71-27-80-62h-88c-9 35-41 62-80 62-45 0-82-37-82-82 0-17 5-32 14-45l-113-160z m472 205c0-24-19-43-43-43s-43 19-43 43 19 43 43 43 43-19 43-43z m-248 0c0-24-19-43-43-43s-43 19-43 43 19 43 43 43 43-19 43-43z m0-291c-72 0-138 23-193 61l111 158c11-6 25-10 39-10 39 0 71 27 80 63h88c9-36 42-63 80-63 45 0 82 37 82 82 0 9-1 17-4 25l49 70c3-16 4-33 4-50 0-185-151-336-336-336z m570-224l-10-10c-5-5-12-8-19-8s-14 3-19 8l-186 185c-5 6-8 12-8 20 0 7 3 14 8 19l10 10c5 5 12 8 19 8s15-3 20-8l185-186c5-5 8-12 8-19 0-7-3-14-8-19z m-535 837c0 11-9 20-19 20-173 0-313-140-313-313 0-10 9-19 20-19s19 9 19 19c0 151 123 274 274 274 10 0 19 9 19 19z m471-402c0-32 26-59 59-59s58 27 58 59-26 59-58 59-59-27-59-59z m59 20c10 0 19-9 19-20 0-11-9-19-19-19s-20 8-20 19c0 11 9 20 20 20z m-440-403c-32 0-59-26-59-58s27-59 59-59 59 26 59 59-27 58-59 58z m0-78c-11 0-19 9-19 20s8 19 19 19c11 0 20-9 20-19s-9-20-20-20z" horiz-adv-x="1000" />

<glyph glyph-name="brand-blog" unicode="&#xe803;" d="M994 678c4 7 5 15 5 22 0 14-5 27-14 36l-98 98c-10 10-22 15-36 15s-26-5-36-15l-130-130h-619c-36 0-66-30-66-67v-574c0-37 30-67 66-67h81v-127c0-7 4-14 10-17 3-1 6-2 9-2 4 0 9 1 12 4l183 142h573c36 0 66 30 66 67v601c0 6-2 11-6 14z m-151 128c2 3 5 4 8 4 3 0 6-1 8-4l98-97c2-3 3-5 3-9s-1-6-3-8l-51-51-114 115 51 50z m-79-78l115-114-261-261c-2-2-5-3-8-3l-114-4 4 114c1 3 2 5 4 8l260 260z m197-665c0-15-12-27-27-27h-580c-4 0-8-2-12-5l-156-122v107c0 11-9 20-20 20h-100c-15 0-27 12-27 27v574c0 15 12 28 27 28h580l-170-170c-9-9-14-21-15-34l-5-135c0-5 2-11 6-14 4-4 9-6 14-6 0 0 0 0 1 0l135 5c13 0 25 6 34 15l315 315v-578z m-813 145c0-10 8-19 19-19h666c11 0 20 9 20 19s-9 20-20 20h-666c-11 0-19-9-19-20z m19 123h199c11 0 20 9 20 20 0 11-9 20-20 20h-199c-11 0-19-9-19-20 0-11 8-20 19-20z m0 143h199c11 0 20 9 20 20s-9 19-20 19h-199c-11 0-19-9-19-19s8-20 19-20z" horiz-adv-x="1000" />

<glyph glyph-name="brand-book" unicode="&#xe804;" d="M998 661c-1 12-12 22-25 21l-119-9h0v82c0 3-1 6-2 9-5 12-19 18-31 13l-312-125c-6-2-12-2-18 0l-316 125c-3 1-6 2-9 2-13 0-23-11-23-24v-82h-1c-79 6-118 9-119 9-12 0-23-10-23-23v-662c0-13 9-23 22-24l476-37c1 0 3 0 4 0l474 37c13 1 22 11 22 24 0 442 0 663 0 664z m-183 71v-625l-295-117v625c1 0 2 1 3 1l292 116z m-633 0l295-116c1-1 2-1 4-1v-626l-299 118v625z m-143-90c3 0 7-1 11-1 20-2 49-4 89-7 1 0 2 0 4 0v-538c0-9 6-18 14-21l231-91-349 27v631z m572-658l228 91c9 3 15 12 15 21v538c1 0 2 0 3 0l102 8c0-6 0-14 0-23 0-28 0-69 0-125 0-108 0-269 0-483l-348-27z" horiz-adv-x="1000" />

<glyph glyph-name="brand-briefcase" unicode="&#xe805;" d="M934 666h-256c0 1 0 2 0 2v86c0 28-23 51-51 51h-252c-28 0-51-23-51-51v-86c0 0 0-1 0-2h-258c-36 0-66-29-66-66v-623c0-37 30-67 66-67h868c36 0 66 30 66 67v623c0 37-30 66-66 66z m-571 2v86c0 7 6 12 12 12h252c6 0 12-5 12-12v-86c0 0 0-1 0-2h-276c0 1 0 2 0 2z m-297-41h868c15 0 27-12 27-27v-187h-148v25c0 34-28 62-63 62s-62-28-62-62v-25h-375v25c0 34-28 62-63 62s-62-28-62-62v-25h-149v187c0 15 12 27 27 27z m707-189v-90c0-13-10-23-23-23s-23 10-23 23v90c0 13 10 23 23 23s23-10 23-23z m-500 0v-90c0-13-10-23-23-23s-23 10-23 23v90c0 13 10 23 23 23s23-10 23-23z m661-488h-868c-15 0-27 12-27 27v396h149v-25c0-34 28-62 62-62s63 28 63 62v25h375v-25c0-34 28-62 62-62s63 28 63 62v25h148v-396c0-15-12-27-27-27z" horiz-adv-x="1000" />

<glyph glyph-name="brand-building-blocks" unicode="&#xe806;" d="M934 313v43c0 17-14 31-32 31h-115c-17 0-31-14-31-31v-43h-12c4 8 6 18 6 27v336c0 37-30 67-66 67v43c0 17-14 31-32 31h-115c-17 0-31-14-31-31v-43h-41v43c0 17-14 31-31 31h-116c-17 0-31-14-31-31v-43h-43v43c0 17-14 31-31 31h-115c-18 0-32-14-32-31v-43c-36 0-66-30-66-67v-336c0-36 30-66 66-66h190c-4-8-6-18-6-27v-337c0-36 30-66 66-66h618c36 0 66 30 66 66v337c0 36-30 66-66 66z m-139 35h100v-35h-100v35z m-250 430h100v-35h-100v35z m-219 0h100v-35h-100v35z m-220 0h99v-35h-99v35z m-67-438v336c0 15 12 28 27 28h178 43 178 41 178c15 0 27-13 27-28v-336c0-15-12-27-27-27h-368-250c-15 0-27 12-27 27z m922-430c0-15-12-27-27-27h-618c-15 0-27 12-27 27v337c0 15 12 27 27 27h368 72 178c15 0 27-12 27-27v-337z" horiz-adv-x="1000" />

<glyph glyph-name="brand-card-fraud" unicode="&#xe807;" d="M953 559h-300c0 1 0 2 0 3v36c40 10 70 45 70 88 0 43-30 79-71 88 0 0 0 0 0 0v57c0 10-8 19-19 19-11 0-20-9-20-19v-57c0 0 0 0 0 0-40-9-70-45-70-88 0-43 30-79 71-88v-36c0-1 0-2 0-3h-239c0 11 0 24 0 41v18l27-17c9-6 21-3 27 6 5 9 3 21-6 27l-57 36c-13 8-30-2-30-17v-94h-289c-26 0-47-21-47-47v-615c0-26 21-47 47-47h906c26 0 47 21 47 47v615c0 26-21 47-47 47z m-320 178c21 0 39-13 47-31h-94c8 18 26 31 47 31z m-47-71h94c-8-18-26-31-47-31s-39 13-47 31z m-547-154c0 4 4 8 8 8h289v-41h-297v33z m0-72h300c6-38 21-68 47-90h-347v90z m922-543c0-4-4-8-8-8h-906c-4 0-8 4-8 8v414h922v-414z m0 582h-523c-11 0-20-9-20-19s9-20 20-20h523v-90h-484c-1 1-3 1-4 2-67 13-98 53-98 124 0 18 0 32 0 44h578c4 0 8-4 8-8v-33z m-340-520c26 0 52 9 72 23 21-14 46-23 73-23 69 0 125 56 125 125s-56 125-125 125c-27 0-52-8-73-23 0 0 0 1 0 1-21 14-46 22-72 22-69 0-125-56-125-125s56-125 125-125z m145 211c47 0 86-38 86-86s-39-86-86-86c-48 0-86 39-86 86s38 86 86 86z m-145 0c16 0 31-4 44-12-15-20-24-46-24-74s9-53 24-74c-13-7-28-12-44-12-47 0-86 39-86 86s39 86 86 86z" horiz-adv-x="1000" />

<glyph glyph-name="brand-care" unicode="&#xe808;" d="M895 180c-75-35-137-63-185-85 0 6-1 12-2 18-7 26-27 46-59 54l-262 5c-27 0-50 6-98 23-18 7-26 9-35 12l-103 85v30c0 26-21 47-46 47h-57c-26 0-47-21-47-47v-395c0-26 21-47 47-47h57c25 0 46 21 46 47v11c80-59 139-88 179-88h204c56 0 110 17 157 48l280 172c1 1 3 2 5 3 26 21 31 59 11 85-22 28-60 37-92 22z m-783-253c0-4-3-8-7-8h-57c-4 0-8 4-8 8v395c0 4 4 8 8 8h57c3 0 6-3 7-6l-1 1v-357l1-1v-40z m840 177c-1 0-1 0-2-1l-281-172c-40-28-87-42-135-42h-204c-32 0-93 32-179 98v254l85-69 3-1c10-3 17-6 37-13 25-9 38-13 53-17 21-5 40-8 58-8l257-5c15-4 23-13 26-25 2-10 0-21-4-25-1-1-2-2-3-3-22-10-40-17-54-22-131-15-157-17-204-12-11 1-20-6-22-17-1-11 7-20 18-22 51-5 79-4 217 12l2 1c47 17 144 61 291 130 16 7 34 3 45-11 7-9 5-22-4-30z m1 715h-56c-26 0-47-21-47-47v-13c-81 59-140 89-180 89h-204c-56 0-110-17-157-48l-280-172c-1-1-3-2-5-3-26-21-31-58-11-85 22-28 60-37 92-22 75 35 137 63 185 85 0-6 1-12 2-18 7-26 27-46 59-54l262-5c27 0 50-6 98-23 18-6 26-9 35-12l104-86v-28c0-25 21-46 47-46h56c26 0 47 21 47 46v395c0 26-21 47-47 47z m-103-363l-86 70-3 1c-10 3-17 6-37 13-25 9-38 13-53 17-21 5-40 8-58 8l-257 5c-15 4-23 13-26 25-2 10 0 21 4 25 1 1 2 2 3 3 22 10 40 17 54 22 131 15 157 17 204 12 11-1 20 6 22 17s-7 20-18 22c-51 5-79 3-217-12l-2-1c-47-17-144-60-291-130-16-7-34-3-45 11-7 9-5 23 4 30 1 0 1 1 2 1l281 172c40 27 87 42 135 42h204c32 0 93-33 180-98v-255z m111-79c0-4-4-7-8-7h-56c-5 0-8 3-8 7v395c0 4 3 8 8 8h56c4 0 8-4 8-8v-395z m-461-127c78 46 118 89 118 129 0 65-74 93-119 50-44 43-118 15-118-50 0-40 40-83 119-129z m-62 158c11 5 24 3 34-7 15-15 40-15 55 0 10 10 23 12 34 7 11-4 18-14 18-29 0-20-25-49-79-83-55 34-80 63-80 83 0 15 7 25 18 29z" horiz-adv-x="1000" />

<glyph glyph-name="brand-chart-bar" unicode="&#xe809;" d="M981-111h-22v895c0 36-30 66-66 66h-116c-36 0-66-30-66-66v-895h-86v643c0 36-30 66-66 66h-116c-36 0-66-30-66-66v-643h-88v395c0 36-30 66-66 66h-116c-36 0-66-30-66-66v-395h-21c-11 0-20-9-20-20s9-19 20-19h961c10 0 19 9 19 19s-9 20-19 20z m-231 895c0 15 12 27 27 27h116c15 0 27-12 27-27v-895h-170v895z m-334-252c0 15 12 27 27 27h116c15 0 27-12 27-27v-643h-170v643z m-336-248c0 15 12 27 27 27h116c15 0 27-12 27-27v-395h-170v395z" horiz-adv-x="1000" />

<glyph glyph-name="brand-chart-pie" unicode="&#xe80a;" d="M941 350h-429c-7 0-12 5-12 12v429c0 11-9 20-19 20-129 0-249-50-340-141s-141-211-141-339 50-249 141-340c91-91 211-141 340-141s249 50 339 141 141 211 141 340c0 10-9 19-20 19z m-148-332c-84-83-195-129-312-129-118 0-229 46-313 129-83 84-129 195-129 313 0 117 46 228 129 312 79 78 182 124 293 129v-410c0-28 23-51 51-51h410c-5-111-51-214-129-293z m82 705c-81 81-188 125-303 125-10 0-19-9-19-19v-377c0-28 23-51 51-51h377c10 0 19 9 19 19 0 115-44 222-125 303z m-271-283c-7 0-12 5-12 12v357c199-10 359-170 369-369h-357z" horiz-adv-x="1000" />

<glyph glyph-name="brand-checklist" unicode="&#xe80b;" d="M242 309h254c11 0 20 9 20 20s-9 19-20 19h-254c-11 0-19-9-19-19s8-20 19-20z m-88-160h-2c-10 0-19-9-19-20s9-19 19-19h2c11 0 20 9 20 19s-9 20-20 20z m88 260h371c11 0 20 8 20 19s-9 20-20 20h-371c-11 0-19-9-19-20s8-19 19-19z m508-61v256c0 10-4 19-11 25l-211 211c-7 6-16 10-25 10h-439c-19 0-35-15-35-34v-932c0-19 16-34 35-34h649c0 0 1 0 2 0 2 0 4 0 6 0 138 0 250 112 250 250 0 128-97 234-221 248z m-230 445l162-162h-162v162z m-452-904v922h413v-185c0-19 14-34 33-34h197v-242c-134-6-240-115-240-250 0-89 46-167 116-211h-519z m653 0c-117 0-211 95-211 211s94 211 211 211c116 0 211-95 211-211s-95-211-211-211z m-479 617h371c11 0 20 9 20 20s-9 19-20 19h-371c-11 0-19-8-19-19s8-20 19-20z m-88-259h-2c-10 0-19-9-19-20s9-20 19-20h2c11 0 20 9 20 20s-9 20-20 20z m664-76l-126-127-63 63c-8 8-20 8-28 0-7-8-7-20 0-28l76-75c1-2 4-3 6-4 3-2 6-3 9-3 5 0 10 2 14 6l140 140c7 8 7 20 0 28-8 7-20 7-28 0z m-386 76h-190c-11 0-19-9-19-20s8-20 19-20h190c11 0 20 9 20 20s-9 20-20 20z m-278 103h-2c-10 0-19-9-19-19s9-20 19-20h2c11 0 20 9 20 20s-9 19-20 19z m246-201h-158c-11 0-19-9-19-20s8-19 19-19h158c11 0 20 9 20 19s-9 20-20 20z m-246 299h-2c-10 0-19-9-19-20s9-19 19-19h2c11 0 20 8 20 19s-9 20-20 20z m0 97h-2c-10 0-19-8-19-19s9-20 19-20h2c11 0 20 9 20 20s-9 19-20 19z" horiz-adv-x="1000" />

<glyph glyph-name="brand-checkmark" unicode="&#xe80c;" d="M500 850c-276 0-500-224-500-500s224-500 500-500c276 0 500 224 500 500s-224 500-500 500z m0-961c-255 0-461 206-461 461 0 255 206 461 461 461 255 0 461-206 461-461 0-255-206-461-461-461z m197 612l-259-259-135 135c-8 8-20 8-28 0-7-8-7-20 0-28l146-146c2-2 5-3 7-4 8-5 18-4 25 3l271 271c8 8 8 20 0 28s-20 7-27 0z" horiz-adv-x="1000" />

<glyph glyph-name="brand-chip-big" unicode="&#xe80d;" d="M617 637h-234c-37 0-67-30-67-66v-442c0-36 30-66 67-66h234c37 0 67 30 67 66v442c0 36-30 66-67 66z m28-508c0-15-13-27-28-27h-234c-15 0-27 12-27 27v442c0 15 12 27 27 27h234c15 0 28-12 28-27v-442z m336 424c10 0 19 9 19 20s-9 19-19 19h-127v73h127c10 0 19 8 19 19s-9 20-19 20h-127v80c0 36-30 66-67 66h-574c-37 0-66-30-66-66v-80h-127c-11 0-20-9-20-20s9-19 20-19h127v-73h-127c-11 0-20-9-20-19s9-20 20-20h127v-72h-127c-11 0-20-9-20-20s9-19 20-19h127v-72h-127c-11 0-20-9-20-20 0-11 9-19 20-19h127v-73h-127c-11 0-20-8-20-19s9-20 20-20h127v-72h-127c-11 0-20-9-20-20s9-19 20-19h127v-72h-127c-11 0-20-9-20-20s9-20 20-20h127v-80c0-36 29-66 66-66h574c37 0 67 30 67 66v80h127c10 0 19 9 19 20s-9 20-19 20h-127v72h127c10 0 19 9 19 19s-9 20-19 20h-127v72h127c10 0 19 9 19 20s-9 19-19 19h-127v73h127c10 0 19 8 19 19 0 11-9 20-19 20h-127v72h127c10 0 19 9 19 19s-9 20-19 20h-127v72h127z m-166-637c0-15-13-27-28-27h-574c-15 0-27 12-27 27v868c0 15 12 27 27 27h574c15 0 28-12 28-27v-868z" horiz-adv-x="1000" />

<glyph glyph-name="brand-chip-small" unicode="&#xe80e;" d="M617 534h-234c-37 0-67-30-67-67v-234c0-37 30-67 67-67h234c37 0 67 30 67 67v234c0 37-30 67-67 67z m28-301c0-15-13-27-28-27h-234c-15 0-27 12-27 27v234c0 15 12 28 27 28h234c15 0 28-13 28-28v-234z m336 209c10 0 19 9 19 19s-9 20-19 20h-127v72h127c10 0 19 9 19 20s-9 19-19 19h-127v45c0 37-30 67-67 67h-45v127c0 10-9 19-19 19s-20-9-20-19v-127h-72v127c0 10-9 19-20 19s-19-9-19-19v-127h-72v127c0 10-9 19-20 19-11 0-19-9-19-19v-127h-73v127c0 10-8 19-19 19s-20-9-20-19v-127h-72v127c0 10-9 19-20 19s-19-9-19-19v-127h-45c-37 0-66-30-66-67v-45h-127c-11 0-20-9-20-19s9-20 20-20h127v-72h-127c-11 0-20-9-20-20s9-19 20-19h127v-72h-127c-11 0-20-9-20-20 0-11 9-19 20-19h127v-73h-127c-11 0-20-8-20-19s9-20 20-20h127v-72h-127c-11 0-20-9-20-20s9-19 20-19h127v-45c0-37 29-67 66-67h45v-127c0-10 9-19 19-19s20 9 20 19v127h72v-127c0-10 9-19 20-19s19 9 19 19v127h73v-127c0-10 8-19 19-19 11 0 20 9 20 19v127h72v-127c0-10 9-19 19-19s20 9 20 19v127h72v-127c0-10 9-19 20-19s19 9 19 19v127h45c37 0 67 30 67 67v45h127c10 0 19 9 19 19s-9 20-19 20h-127v72h127c10 0 19 9 19 20s-9 19-19 19h-127v73h127c10 0 19 8 19 19 0 11-9 20-19 20h-127v72h127z m-166-379c0-15-13-27-28-27h-574c-15 0-27 12-27 27v574c0 15 12 28 27 28h574c15 0 28-13 28-28v-574z" horiz-adv-x="1000" />

<glyph glyph-name="brand-cloud-download" unicode="&#xe80f;" d="M924 544c-44 38-102 60-166 63-6 135-119 243-257 243-138 0-251-108-257-243-64-2-124-25-168-63-49-43-76-104-76-171 0-67 27-127 76-170 47-41 111-64 181-64 11 0 20 9 20 20s-9 19-20 19c-60 0-115 19-155 54-41 36-63 85-63 141 0 57 22 106 63 141 40 35 95 54 155 54 2 0 4 0 6 0 6 0 11 2 15 6 3 4 5 9 5 15 0 2 0 5 0 7 0 119 98 215 218 215 120 0 218-96 218-215 0-2 0-5 0-7 0-6 2-11 5-15 4-4 9-6 15-6 1 0 3 0 4 0 60 0 115-19 155-54 41-35 63-84 63-141 0-56-22-105-63-141-40-35-95-54-155-54-11 0-19-9-19-19s8-20 19-20c70 0 134 23 181 64 49 43 76 103 76 170 0 67-27 128-76 171z m-553-188c-11 0-19-9-19-20v-299h-143l22 22c8 8 8 20 0 28-7 7-20 7-27 0l-55-55c-4-3-6-8-6-13 0 0 0 0 0 0 0-1 0-1 0-1 0 0 0-1 0-1 0-5 2-10 5-13l56-56c3-4 8-5 13-5s10 1 14 5c8 8 8 20 0 28l-22 22h162c11 0 20 9 20 20v318c0 11-9 20-20 20z m425-269c-8 7-20 7-28 0-8-8-8-20 0-28l22-22h-138v297c0 11-8 20-19 20s-20-9-20-20v-317c0-11 9-20 20-20h156l-21-21c-8-8-8-20 0-28 4-4 9-5 14-5s10 1 14 5l55 56c8 7 8 20 0 27l-55 56z m-254-150l-22-22v626c0 11-9 20-20 20-11 0-19-9-19-20v-625l-22 21c-7 8-20 8-27 0-8-7-8-20 0-27l55-55c4-4 9-6 14-6 5 0 10 2 13 6l56 55c7 7 7 20 0 27-8 8-20 8-28 0z" horiz-adv-x="1000" />

<glyph glyph-name="brand-cloud-upload" unicode="&#xe810;" d="M385 349c-8 7-20 7-28 0l-55-55c-8-8-8-20 0-28s20-8 28 0l22 22v-290h-190c-11 0-19-9-19-20 0-10 8-19 19-19h209c11 0 20 9 20 19v310l22-22c7-8 20-8 27 0s8 20 0 28l-55 55z m184 191l-55 55c-8 8-20 8-28 0l-55-55c-8-8-8-20 0-28s20-8 28 0l22 22v-665c0-10 8-19 19-19 11 0 20 9 20 19v665l21-22c8-8 20-8 28 0s8 20 0 28z m267-543h-184v291l22-22c8-8 20-8 28 0s8 20 0 28l-55 55c-8 7-20 7-28 0l-55-55c-8-8-8-20 0-28s20-8 27 0l22 22v-310c0-11 9-20 20-20h203c11 0 20 9 20 20s-9 19-20 19z m-78 610c-6 135-119 243-257 243-138 0-251-108-257-243-136-6-244-117-244-253 0-140 115-254 257-254 11 0 20 9 20 20s-9 19-20 19c-120 0-218 96-218 215 0 118 98 214 218 214 2 0 4 0 6 0 11 0 21 9 20 21 0 2 0 5 0 7 0 119 98 215 218 215 120 0 218-96 218-215 0-2 0-5 0-7-1-12 8-21 20-21 1 0 3 0 4 0 121 0 218-96 218-214 0-119-97-215-218-215-11 0-19-9-19-19s8-20 19-20c142 0 257 114 257 254 0 135-107 246-242 253z" horiz-adv-x="1000" />

<glyph glyph-name="brand-code" unicode="&#xe811;" d="M851 626l-221 220c-3 2-7 4-11 4h-457c-8 0-15-7-15-16v-968c0-9 7-16 15-16h678c8 0 16 7 16 16v749c0 4-2 8-5 11z m-214 158l153-153h-153v153z m179-895h-630v922h412v-185c0-19 15-34 33-34h185v-703z m-248 613c-10 4-22-1-26-11l-130-305c-4-10 1-22 11-26s21 1 25 11l130 305c4 10 0 22-10 26z m-184-52c-8 7-20 7-28 0l-99-100c-12-11-12-30 0-41l99-99c8-8 20-8 28 0s8 20 0 27l-93 93 93 92c8 8 8 20 0 28z m230 0c-8-8-8-20 0-28l93-92-93-93c-8-7-8-20 0-27s20-8 28 0l99 99c12 11 12 30 0 41l-99 100c-8 7-20 7-28 0z" horiz-adv-x="1000" />

<glyph glyph-name="brand-cloud" unicode="&#xe812;" d="M758 482c-6 135-119 243-257 243-138 0-251-108-257-243-136-6-244-118-244-253 0-140 115-254 257-254h486c142 0 257 114 257 254 0 135-107 246-242 253z m-15-468h-486c-120 0-218 96-218 215s98 214 218 214c2 0 4 0 6 0 6 0 11 2 15 6 3 4 5 9 5 15 0 2 0 5 0 7 0 119 98 215 218 215 120 0 218-96 218-215 0-2 0-5 0-7 0-6 2-11 5-15s9-6 15-6c1 0 3 0 4 0 120 0 218-96 218-214s-98-215-218-215z" horiz-adv-x="1000" />

<glyph glyph-name="brand-coffee" unicode="&#xe813;" d="M348 643c9-6 21-3 27 7l97 169c6 9 2 21-7 26-9 6-21 3-27-7l-97-169c-6-9-2-21 7-26z m113 0c10-6 22-3 27 7l98 169c5 9 2 21-8 26-9 6-21 3-26-7l-98-169c-5-9-2-21 7-26z m114 0c9-6 21-3 26 7l98 169c5 9 2 21-7 26-10 6-22 3-27-7l-98-169c-5-9-2-21 8-26z m406-754h-270c33 111 56 222 71 333 15 115 21 231 18 348-1 17-14 30-31 30h-537c-17 0-31-13-31-30-2-43-2-85-1-127-21 18-48 28-78 28-67 0-122-54-122-120 0-137 104-249 239-262 14-67 30-133 50-200h-269c-11 0-20-9-20-20s9-19 20-19h304 352 305c10 0 19 9 19 19s-9 20-19 20z m-942 462c0 45 37 81 83 81 41 0 76-30 82-69 3-47 7-94 13-141 4-31 9-62 15-92-110 15-193 108-193 221z m631-462h-340c-22 73-40 146-55 219 0 3 0 5-1 7-7 37-13 75-18 113-5 40-10 82-13 123 0 0 0 0 0 0 0 5 0 10-1 15-4 65-5 130-3 195h522c3-112-3-223-18-333-15-113-39-226-73-339z" horiz-adv-x="1000" />

<glyph glyph-name="brand-cog-spin" unicode="&#xe814;" d="M719 175c2 2 4 3 6 3 0 0 1 0 2 0l47-9c3 0 5-1 8-1 17 0 33 11 39 27l0 0c0 0 0 0 0 0l23 60c0 1 0 1 0 2l0 0c6 20-2 40-20 49l-40 23c-2 2-4 5-4 8 1 14 1 29-1 45 0 3 1 6 3 7l41 28c0 0 0 0 1 0l0 1c15 11 21 31 14 49l0 0c-1 0-1 1-1 1l-27 59c0 1-1 2-1 2l-1 2c-8 12-21 19-35 19-3 0-6-1-9-1l-1 0c0-1 0-1-1-1l-45-12c-1 0-2-1-3-1-2 0-4 1-6 3-10 12-21 22-32 31-3 2-4 5-3 8l9 47c3 20-8 40-27 47l-60 22c0 1-1 1-1 1l-1 0c-4 1-8 2-12 2-15 0-29-9-37-22l-23-40c-1-2-4-4-7-4 0 0 0 0 0 1-15 1-31 0-47-2-3 0-6 1-8 4l-26 39c-5 6-10 11-17 14-4 2-8 3-12 4-3 0-5 0-6 0 0 0 0 0 0 0-1 0-1 0-2 0-2 0-3 0-5 0-4-1-7-2-11-4l-56-25c-19-9-29-30-23-50l12-45c0-3-1-6-3-8-11-10-21-21-31-33-2-2-4-4-7-4 0 0-1 0-2 0l-48 9c-1 1-2 1-3 1h-2c-15 0-29-8-37-21l-1-2c-1-1-1-2-2-3l-22-61c0 0-1-1-1-1l0-1c-5-19 3-39 20-48l41-24c2-1 4-4 3-7 0-15 0-30 2-45 0-3-1-6-3-8l-40-27 0 0c0 0-1 0-1 0l0-1c-16-11-21-31-14-49l0 0c0-1 0-1 0-1l27-59c1-1 1-2 2-3l1-1c8-12 21-19 35-19 3 0 5 1 8 1l1 0c0 0 1 0 1 1l47 12c0 0 0 0 0 0l1 0c0 0 0 0 1 0 2 0 5-1 6-2 11-12 22-22 33-31 3-2 4-5 3-8l-9-47c-3-20 8-40 27-47l60-22c0 0 1-1 1-1l1 0c4-1 8-2 12-2 15 0 29 9 37 22l23 40c2 3 4 4 8 4l0 0c14 0 28 0 43 2 3 0 6-1 8-4l27-39c4-6 10-11 16-15 4-1 8-3 13-3 2-1 4-1 5-1 0 0 1 0 1 0 0 0 1 0 1 0 2 0 4 1 6 1 3 1 7 2 10 3l56 26c19 8 29 30 24 50l-12 44c-1 3 0 6 2 8 12 11 22 22 31 33z m-57-4c-13-12-19-30-14-47l12-45c0 0 0 0 0 0 0-2 0-3-1-3 0 0 0 0-1-1l-56-25c0 0 0 0 0 0-1 0-1-1-1-1 0 0 0 0 0 0 0 0 0 0-1 0 0 0 0 0 0 0l0 0c0 0-1 1-1 1 0 0-1 0-1 1 0 0 0 0 0 0l-27 39c-9 13-23 21-39 21-2 0-4 0-6 0-12-2-24-2-36-2 0 0-1 1-1 1-17 0-34-9-43-24l-23-41c0 0 0 0-1 0 0-1 0-2-2-2 0 0-1 0-1 1l-59 21c0 1 0 1 0 1-2 0-2 2-2 3l9 46c3 18-4 35-17 46-1 0-1 0-1 1-10 7-19 16-28 26-9 10-22 15-35 15-4 0-9 0-12-1l-46-13c-1 0-1 0-1 0-2 0-2 1-3 2l-26 57 0 0c0 1 0 2 1 3l40 27c14 10 22 27 20 44-1 13-2 26-1 39 0 18-9 34-24 43l-41 23c0 1 0 1 0 1-2 1-2 2-1 3l21 59c1 1 2 2 4 2l46-9c1 0 1 0 1 0 3-1 5-1 7-1 1 0 2 0 2 0 15 1 28 8 37 18 0 1 0 1 0 1 8 10 17 20 26 28 0 0 0 0 0 0 13 12 19 30 14 47l-12 45c0 1 0 1 0 1 0 1 0 2 1 3 1 0 1 0 1 0l56 26c0 0 1 0 1 0 0 0 0 0 0 0 0 0 0 0 0 0 0 0 1 0 1 0 0 0 0 0 0 0l0 0c1 0 1 0 1 0 0 0 1-1 1-1 0 0 0 0 0 0l27-39c9-13 23-21 39-21 2 0 4 0 6 0 13 2 26 2 39 2 18-2 36 8 44 23l23 40c0 0 0 0 1 0 0 1 0 2 2 2 0 0 1 0 1 0l59-22c0 0 0 0 0 0 2-1 2-3 2-4l-9-47c-3-17 3-34 17-46 0 0 0 0 1 0 9-7 18-16 27-26 9-10 22-16 35-16 5 0 9 1 13 2l45 12 0 0c0 0 0 0 1 0 1 0 2 0 2-1l26-57c1-1 0-3-1-3l-39-27c-15-10-23-27-21-45 2-13 2-26 1-38-1-18 8-35 24-44l40-23c0 0 0 0 1 0 1-1 1-3 1-4l-22-59c-1-1-2-2-3-2 0 0 0 0-1 0l-47 9c0 0 0 0 0 0-3 1-6 1-9 1-14 0-27-6-37-18-7-9-16-19-26-28z m-165 301c-66 0-120-54-120-121s54-120 120-120c66 0 120 54 120 120s-54 121-120 121z m0-202c-45 0-81 36-81 81s36 82 81 82c45 0 81-37 81-82s-36-81-81-81z m-351 377c79 94 190 152 313 163 122 11 240-26 334-104h-51c-11 0-19-9-19-20s8-20 19-20h94c11 0 20 9 20 20v94c0 11-9 19-20 19s-20-8-20-19v-43c-101 84-229 123-360 112-134-12-254-74-340-177-80-95-121-215-117-339 1-10 9-18 20-18 0 0 0 0 1 0 10 0 19 9 18 20-4 114 35 225 108 312z m853-291c0 11-9 20-19 20-1 0-1 0-1 0-10 0-19-9-19-20 1-110-37-217-108-301-77-93-186-151-306-163-120-12-238 22-332 97-1 1-3 3-5 4-1 1-1 1-1 1h50c11 0 19 9 19 20s-8 20-19 20h-94c-11 0-19-9-19-20v-94c0-11 8-19 19-19s20 8 20 19v43c3-3 4-4 5-5 89-70 197-107 309-107 17 0 34 1 52 2 130 14 248 76 332 176 77 92 118 208 117 327z" horiz-adv-x="1000" />

<glyph glyph-name="brand-cog" unicode="&#xe815;" d="M969 269l-59 34c-10 6-16 17-15 28 1 21 0 42-2 63-1 12 4 23 13 29l58 40 1 0c0 0 0 1 1 1l0 0c15 12 21 33 14 51l0 0c0 1 0 1-1 1l-39 86c0 1 0 1-1 2l-1 2c-8 12-22 19-36 19-3 0-6 0-9-1l-1 0c-1 0-1 0-1 0l-67-19c-2 0-5-1-8-1-8 0-17 4-22 11-15 16-30 30-46 42-9 8-13 19-11 30l13 69c4 21-8 42-28 49l-87 33c0 0-1 0-1 0l-1 1c-4 1-8 1-13 1-16 0-30-8-38-22l-33-59c-5-9-16-15-26-15-1 0-2 0-2 0-21 2-44 1-66-2-1 0-2 0-3 0-10 0-20 5-26 13l-39 58c-4 6-10 12-17 15-4 2-8 3-12 4-3 0-5 0-7 0 0 0-1 0-1 0-2 0-4 0-6 0-3-1-7-2-11-4l-83-38c-19-8-29-30-23-51l17-67c3-10 0-22-9-30-15-13-30-29-43-46-6-8-15-12-25-13-1 0-3 0-5 1l-70 13c-1 0-3 1-4 1h-2c-16 0-30-9-38-23l-1-1c-1-1-1-2-2-3l-33-88c0-1 0-1 0-2l0-1c-6-19 2-40 20-50l60-34c10-6 15-17 15-28-1-21 0-42 2-63 1-11-4-23-13-29l-58-39c0-1-1-1-1-1l0 0c-16-12-22-33-14-51l0-1c0 0 0 0 0 0l39-86c1-1 1-2 2-3l0-1c9-12 22-19 37-19 3 0 6 0 9 0l0 1c1 0 1 0 1 0l69 18c0 0 0 0 0 0l1 0c1 0 3 1 6 1 9 0 17-4 23-10 15-16 30-31 46-43 10-8 14-19 12-30l-13-68c-4-21 8-42 27-49l87-33c1 0 1 0 2 0l1-1c4-1 8-1 12-1 16 0 30 8 38 22l34 60c6 9 17 15 28 15 20-1 40 0 61 2 1 0 2 0 3 0 11 0 20-5 26-13l39-58c4-7 10-12 17-15 4-2 8-3 13-4 2 0 4 0 6 0 1 0 1 0 2 0 2 0 4 0 5 0 4 1 8 2 11 4l83 37c20 9 30 31 24 52l-18 66c-3 11 1 22 9 30 17 15 31 30 44 46 6 7 14 12 23 12 1 0 2 0 6-1l69-13c3-1 5-1 8-1 18 0 34 11 41 27l0 1c0 0 0 0 0 0l33 88c0 0 0 1 0 1l0 1c6 20-3 40-20 50z m-17-39l-33-87 0 0c0-2-2-3-4-3 0 0 0 0 0 0l-70 13c0 0 0 0 0 0-5 1-9 2-13 2-21 0-41-10-54-27-11-14-24-28-39-41-19-18-27-45-21-70l18-66c0 0 0 0 0 0 1-2 0-4-2-5 0 0 0 0 0 0l-83-38c0 0 0 0 0 0-1 0-1 0-1 0 0 0 0 0-1 0l0 0c-1 0-1 0-1 0 0 0-1 0-1 0-1 0-1 1-1 1 0 0-1 0-1 1l-39 58c-13 19-35 30-58 30-2 0-5 0-8 0-18-2-36-3-54-2 0 0 0 0 0 0-26 1-50-12-63-35l-35-60c0 0 0 0 0 0 0-1-1-2-4-2 0 0-1 0-2 0l0 0-86 32c0 0 0 0 0 0-3 1-3 4-3 5l13 69c5 25-5 51-25 67 0 0 0 1-1 1-14 11-28 23-41 38-13 15-32 23-52 23-6 0-12-1-17-2l-68-18c0 0-1 0-1 0-2 0-3 1-4 2l-38 83c-1 2 0 5 1 6l58 39c21 14 33 40 30 65-2 19-3 38-2 57 1 27-12 51-35 64l-59 34c-1 0-1 0-1 0-3 2-2 5-2 6l32 85 0 0c1 2 3 3 5 3h0l68-13c1 0 1 0 1 0 5 0 8-1 12-1 1 0 1 0 1 0 22 1 41 11 54 27 0 0 1 1 1 1 11 15 24 29 38 41 0 0 0 0 1 0 19 18 27 44 20 69l-18 67c0 1 0 1 0 1 0 2 0 4 2 4 0 1 0 1 0 1l84 38c0 0 0 0 0 0 0 0 0 0 1 0 0 0 0 0 0 0l0 0c1 0 1 0 1 0 1 0 1 0 1 0 1-1 1-1 2-2 0 0 0 0 0 0l39-57c13-19 35-31 58-31 3 0 5 0 8 1 20 2 39 3 58 1 2 0 3 0 5 0 25 0 47 13 60 35l33 59c1 0 1 0 1 0 0 1 1 2 3 2 1 0 2 0 2 0l87-32c0 0 0 0 0 0 2-1 3-3 3-5l-13-70c-5-25 4-50 24-67 1 0 1 0 1 0 14-11 28-24 41-39 13-14 31-23 51-23 7 0 13 1 19 3l65 18h0c1 0 1 0 2 0 2 0 3-2 4-2l38-84c0-1 0-4-2-5l-58-39c-21-15-33-40-30-66 2-19 3-38 2-56-2-27 12-51 34-64l59-35c0 0 1 0 1 0 2-1 2-4 2-5z m-452 298c-98 0-178-80-178-178s80-178 178-178 178 80 178 178-80 178-178 178z m0-317c-76 0-139 63-139 139s63 139 139 139 139-62 139-139-62-139-139-139z" horiz-adv-x="1000" />

<glyph glyph-name="brand-cogs" unicode="&#xe816;" d="M593 185l-13 49c-2 5 0 10 4 13 12 12 24 24 33 36 3 3 6 5 10 5 1 0 1 0 3-1l52-9c2-1 5-1 8-1 17 0 33 11 39 26l0 1c0 0 0 0 0 0l25 66c0 0 0 1 0 1l1 1c5 19-3 40-20 49l-45 26c-4 2-6 7-6 12 1 15 0 32-1 48-1 5 1 10 5 13l45 30c0 0 0 0 0 0l1 1c15 11 21 32 14 49l-1 1c0 0 0 0 0 0l-30 65c0 1-1 2-1 3l-1 1c-8 12-21 19-35 19-3 0-6 0-9-1l-1 0c0 0-1 0-1 0l-50-14c-1 0-2-1-4-1-3 0-7 2-9 5-12 12-23 23-36 33-4 3-5 8-5 13l10 52c4 20-8 40-27 47l-65 25c-1 0-1 0-2 0l-1 0c-4 1-8 2-12 2-15 0-29-8-37-22l-25-44c-2-3-6-6-11-6 0 0-1 0-1 0-16 1-34 1-51-1-5-1-10 1-12 5l-30 43c-4 7-10 12-16 15-4 2-8 3-13 4-2 0-4 0-6 0 0 0-1 0-1 0-2 0-4 0-5-1-4 0-8-1-11-3l-62-28c-20-9-30-30-24-50l13-50c2-5 0-9-3-13-12-10-24-22-34-36-3-3-7-5-11-5-1 0-1 0-3 0l-52 10c-2 0-3 0-4 0h-2c-15 0-29-8-37-21l-1-2c-1-1-1-2-2-3l-25-66c0-1 0-1 0-2l0 0c-6-20 2-40 20-50l45-25c4-3 6-7 6-12-1-17 0-33 2-49 0-5-2-9-6-12l-44-30c0 0 0 0 0 0l-1-1c-15-11-21-32-14-49l0-1c1 0 1 0 1-1l29-64c1-1 1-2 2-3l1-1c8-12 21-19 35-19 3 0 6 0 9 1l0 0c1 0 1 0 1 0l52 14c0 0 0 0 1 0l0 0c0 0 1 0 2 0 4 0 8-1 10-4 12-13 23-24 36-33 4-4 6-8 5-13l-10-51c-4-21 8-41 27-48l66-24c0-1 1-1 1-1l1 0c4-1 8-2 12-2 16 0 29 8 37 22l26 44c2 4 7 7 12 7l0 0c15-1 31 0 47 2 5 0 10-2 12-6l30-43c4-7 10-12 17-15 4-2 8-3 12-4 2 0 4 0 6 0 1 0 1 0 2 0 2 0 3 0 5 0 4 1 7 2 11 4l62 28c19 8 29 30 23 50z m-35 91c-15-13-21-33-16-52l13-49c0-1 0-1 0-1 1-1 0-3-1-3 0 0 0 0 0 0l-63-29c0 0 0 0 0 0 0 0 0 0 0 0-1 0-1 0-1 0h0c-1 0-1 0-1 0 0 0 0 0-1 0 0 0 0 1-1 1 0 0 0 0 0 0l-29 44c-10 14-26 23-44 23-2 0-4 0-6-1-14-1-27-2-40-1 0 0 0 0-1 0-19 1-37-9-47-26l-26-45c0 0 0 0 0 0-1-1-1-2-3-2 0 0-1 0-1 0l-65 25c0 0 0 0-1 0-1 0-2 2-2 3l10 51c4 19-3 39-19 51 0 0 0 0 0 0-11 9-21 18-31 29-10 11-24 17-39 17-5 0-9 0-13-1 0 0 0 0 0-1l-51-13c0 0-1 0-1 0-1 0-2 1-3 2l-28 62 0 0c-1 2 0 3 1 4l43 30c16 10 25 29 22 49-1 14-2 28-1 42 1 20-9 38-26 48l-45 25c0 1 0 1 0 1-2 1-2 3-2 4l24 64 0 0c1 1 2 2 4 2l51-10c1 0 1 0 1 0 3 0 6-1 9-1 0 0 1 0 1 0 16 1 31 9 40 21 0 0 1 0 1 0 9 12 18 22 29 31 0 0 0 0 0 0 14 13 20 33 15 52l-13 50c0 0 0 0 0 1-1 1 0 2 1 3 0 0 0 0 1 0l62 29c0 0 0 0 0 0 0 0 1 0 1 0 0 0 0 0 0 0l0 0c1 0 1 0 1 0 0 0 1 0 1 0 0-1 1-1 1-1 0 0 0-1 0-1l29-43c10-14 26-22 44-22 2 0 4 0 6 0 15 2 29 2 44 1 20-1 38 9 48 26l25 44c0 0 1 0 1 0 0 1 0 2 2 2 1 0 1 0 2 0l65-24c0 0 0 0 0 0 1-1 2-3 2-4l-10-52c-4-19 4-38 19-50 0 0 0-1 0-1 11-8 21-18 31-28 10-12 24-18 38-18 5 0 10 1 14 2l50 14 0 0c0 0 0 0 1 0 1 0 2-1 3-2l28-62c1-2 0-3-1-4l-44-30c-16-11-24-29-22-49 1-14 2-29 1-42-1-20 9-38 26-48l44-26c0 0 1 0 1 0 2-1 1-3 1-4l-24-65c-1-1-2-2-3-2 0 0 0 0-1 0l-52 10c0 0 0 0 0 0-4 0-7 1-9 1-16 0-31-7-41-20-9-11-18-21-29-31z m-182 331c-73 0-133-60-133-133 0-73 60-132 133-132s132 59 132 132c0 73-59 133-132 133z m0-226c-52 0-94 42-94 93s42 94 94 94 93-42 93-94-42-93-93-93z m599-280l-18 5c-1 4-2 8-4 12l13 15c1 0 1 0 1 1l1 0c11 15 11 35 0 49l0 1c-1 0-1 0-1 1l-24 28c0 1-1 2-2 2l-1 1c-7 7-17 11-27 11-6 0-13-2-18-5l-1 0c0 0-1 0-1-1l-17-9c-3 2-7 4-11 6l-1 19c-2 20-17 36-37 38l-36 3c0 0-1 0-1 0l-2 0c-19 0-35-13-39-31l-5-17c-5-1-9-2-13-4l-15 12c-5 5-12 8-19 10-4 1-8 1-13 0-1 0-2 0-3-1 0 0 0 0-1 0-1 0-1 0-1 0 0 0 0 0-1 0 0 0 0 0-1 0-1-1-3-2-4-2-4-2-7-4-9-6l-27-22c-16-13-20-35-9-52l9-16c-2-4-5-8-7-12l-20-1c-2-1-3-1-4-1l-2-1c-14-3-25-14-29-28l0-2c-1-1-1-2-1-3l-3-38c-1 0-1-1-1-1l0-1c0-19 13-36 31-40l18-5c1-4 2-8 4-12l-13-15c0 0-1 0-1-1l0 0c-11-15-12-35-1-50l1 0c0 0 0-1 0-1l24-28c1-1 1-2 2-3l1-1c8-6 17-10 27-10 6 0 13 2 18 4l1 1c0 0 1 0 1 0l17 10c4-2 8-4 12-6l1-19c1-19 17-36 37-37l36-4c0 0 1 0 1 0l2 0c19 0 35 13 39 31l5 18c4 1 8 2 12 3l14-12c5-5 12-8 19-10 5 0 9-1 13 0 1 0 2 0 4 1 0 0 0 0 0 0 1 0 1 0 1 0 1 0 1 0 2 0 0 1 0 1 0 1 2 0 3 1 5 1 3 2 6 4 9 6l26 22c16 13 20 35 10 52l-9 16c2 4 4 7 6 11l19 2c19 1 35 16 38 35l0 1c0 0 0 0 0 0l3 36c0 1 0 1 0 2l0 1c1 19-12 35-30 40z m-12-75l0 0c0 0-1-1-2-1l-26-2c-1 0-1 0-1 0-1 0-1 0-1-1-1 0-2 0-3 0-8-2-15-8-18-15-3-6-6-13-10-19-6-9-6-19-1-28l13-22c0 0 0-1 0-1 1 0 1-1 0-2 0 0 0 0 0 0l-27-22c0 0 0 0 0 0 0 0 0 0-1 0l0 0c0 0 0 0-1 0 0 0 0 0 0 0 0 0 0 0 0 0l-21 18c-4 4-11 6-17 6-3 0-7-1-10-2-6-2-13-4-19-6-1 0-1 0-1 0-9-2-17-9-20-19l-6-25c0 0 0 0 0-1-1 0-2-1-2-1h0l-35 4c0 0 0 0-1 0-1 0-1 1-1 1l-2 27c-1 9-7 18-16 22 0 0 0 0 0 0-7 3-13 6-19 10-6 4-14 5-21 3-3 0-5-1-7-2l-23-13 0 0c0-1-1-1-1-1 0 0 0 0-1 1l-22 27c-1 0-1 1 0 2l17 20c7 7 8 18 5 27-3 7-5 14-7 21-2 10-9 17-19 20l-25 7c0 0 0 0 0 0-1 0-2 1-2 1l4 35c0 0 0 1 1 2l27 2c0 0 0 0 0 0 1 0 2 0 2 0 2 0 3 1 5 1 7 3 12 8 15 15 0 0 0 0 0 0 3 7 7 13 11 19 0 0 0 0 0 1 5 8 5 18 0 27l-13 22c0 1 0 1 0 1 0 0 0 1 0 2 0 0 1 0 1 0l27 22c0 0 0 0 0 0l0 0c1 0 1 0 1 0 0 0 0 0 1 0 0 0 0 0 0 0l20-17c7-7 18-9 27-5 7 3 14 5 21 7 10 1 18 9 21 19l6 24c0 0 0 1 0 1 1 1 2 1 2 1l35-3c0 0 0 0 0 0 1 0 2-1 2-2l2-27c1-9 7-18 16-22 0 0 0 0 0 0 6-3 13-6 19-10 6-4 14-5 21-4 3 1 5 2 7 3l22 13c0 1 1 1 1 1 0 0 1 0 1-1l23-27c0 0 0-1 0-2l-18-20c-7-8-8-18-5-27 3-7 5-14 7-21 2-10 9-18 19-20l25-7c0 0 0 0 0 0 1 0 1-1 1-2l-3-35z m-177 103c-5 0-11-1-17-3-36-9-57-46-48-82 8-30 35-50 65-50 6 0 12 0 18 2 17 5 32 16 41 32 9 15 11 33 7 51-8 29-35 50-66 50z m25-82c-4-7-10-11-17-13-3-1-5-1-8-1-12 0-24 8-27 21-4 15 5 31 20 35 2 0 5 1 7 1 13 0 25-9 28-21 2-8 1-15-3-22z" horiz-adv-x="1000" />

<glyph glyph-name="brand-compass" unicode="&#xe817;" d="M854 704c-94 93-219 145-351 146-1 0-1 0-1 0 0 0 0 0 0 0-1 0-1 0-2 0-134 0-259-52-354-146s-146-220-146-354 52-259 146-354c95-94 220-146 354-146s259 52 354 146 146 220 146 354c0 134-52 259-146 354z m-28-680c-82-82-191-130-306-135v64c0 11-9 20-20 20-11 0-19-9-19-20v-64c-116 5-224 53-307 135-82 83-130 191-134 307h64c10 0 19 8 19 19 0 11-9 20-19 20h-64c4 115 52 224 134 306 83 83 192 130 308 135v-64c0-11 9-20 20-20 11 0 20 9 20 20v63c115-5 222-52 304-134 82-82 130-191 135-306h-64c-11 0-20-9-20-20 0-11 9-19 20-19h64c-5-116-53-224-135-307z m-408 415l-192-371 364 200c5 3 10 8 13 13l176 341-347-169c-6-3-11-8-14-14z m272 96l-121-234-249-137 132 255 238 116z m-190-240c30 0 55 25 55 55s-25 55-55 55-55-25-55-55 25-55 55-55z m0 71c9 0 16-7 16-16s-7-16-16-16-16 7-16 16 7 16 16 16z" horiz-adv-x="1000" />

<glyph glyph-name="brand-complexity" unicode="&#xe818;" d="M854 704c-95 94-220 146-354 146-100 0-197-30-280-86-81-54-143-131-181-220-4-10 0-22 10-26 10-4 22 1 26 10 19 46 45 87 76 124l81-81c1-1 1-2 2-2 4-4 9-5 13-5 6 0 11 2 15 6 27 29 58 53 94 71 10 4 14 16 9 26-5 9-17 13-26 9-34-17-65-39-92-65l-69 69c20 19 41 36 64 52 76 52 165 79 258 79 123 0 239-48 326-135 82-82 130-191 135-306h-104c-2 0-4-1-6-2-2 1-5 2-7 2-11 0-20-9-20-20 0-61-17-120-49-172-7-11-14-21-22-31l-78 77c-1 1-2 2-4 3-1 1-1 1-2 2-8 7-20 6-27-2-33-38-79-60-129-64-50-3-98 13-136 46-78 67-86 186-18 264 67 78 186 86 264 19 36-32 59-75 64-122h-99c-9 40-45 70-88 70-11 0-19-9-19-20s8-19 19-19c28 0 51-23 51-51 0-28-23-51-51-51-28 0-51 23-51 51 0 11-8 20-19 20s-20-9-20-20c0-49 41-90 90-90 43 0 79 30 88 71h116c1-1 2-1 3-1 0 0 0 0 0 0 11 0 20 9 20 20 0 66-29 128-78 171-38 33-83 51-129 55v98c55-4 108-21 155-51 50-32 91-78 117-132 4-7 10-11 18-11 3 0 6 1 8 2 10 5 14 16 9 26-29 61-74 112-131 148-59 38-126 57-196 57-11 0-19-8-19-19v-118c-57-5-112-31-152-77-69-80-73-195-15-278l-70-70c-43 56-68 126-68 199 0 31 4 61 13 90 3 11-3 22-14 25-10 3-21-3-24-14-8-26-12-54-14-81 0 0 0 0 0 0h-117c-11 0-20-9-20-20 0-134 52-259 146-354 95-94 220-146 354-146s259 52 354 146 146 220 146 354c0 134-52 259-146 354z m-28-680c-82-82-191-130-306-135v109c0 11-9 20-20 20-11 0-19-9-19-20v-109c-116 5-224 53-307 135-82 83-130 191-134 307h97c0 0 0 0 0 0 7-128 80-242 193-302 3-2 6-2 9-2 7 0 14 3 18 10 5 9 1 21-9 26-29 16-55 36-78 59l69 69c4-4 8-8 12-12 42-36 94-56 149-56 5 0 10 1 16 1 53 4 103 26 141 63l69-69c-23-23-50-42-79-57-9-5-13-17-8-26 3-7 10-11 17-11 3 0 6 1 9 2 59 30 108 76 143 132 33 52 52 111 55 173h98c-5-116-53-224-135-307z" horiz-adv-x="1000" />

<glyph glyph-name="brand-conconnector" unicode="&#xe819;" d="M918 428c-37 0-69-25-79-58h-86c-4 53-25 102-57 141l137 137c7-2 14-4 21-4 16 0 30 7 42 18 22 22 22 60 0 82-12 12-26 18-42 18-16 0-30-6-41-18-20-19-23-48-9-71l-135-134c-40 36-92 60-149 64v85c35 9 62 42 62 80 0 45-37 82-82 82-45 0-82-37-82-82 0-38 27-71 63-80v-85c-54-4-103-25-143-57l-136 136c8 21 3 46-13 62-12 12-26 18-42 18s-30-6-41-18c-23-22-23-60 0-82 11-11 25-18 41-18 11 0 21 3 29 8l134-134c-36-41-60-94-63-152h-85c-9 35-41 62-80 62-45 0-82-37-82-82 0-45 37-82 82-82 39 0 71 27 80 63h85c5-57 29-108 65-147l-134-134c-9 6-20 9-31 9-16 0-30-7-41-18-11-11-18-25-18-41s7-30 18-42c11-11 25-17 41-17s30 6 42 17c11 12 17 26 17 42 0 7-1 13-4 19l138 138c38-31 85-51 137-56v-86c-35-9-61-41-61-79 0-45 37-82 82-82 45 0 82 37 82 82 0 39-28 72-64 80v85c56 3 107 25 147 59l136-136c-3-8-5-17-5-26 0-16 6-30 17-42 11-11 26-17 41-17 16 0 31 6 42 17s17 26 17 42c0 16-6 30-17 41-11 12-26 18-42 18-9 0-17-2-25-6l-136 136c35 40 58 91 62 147h85c7-37 40-66 80-66 45 0 82 37 82 82 0 45-37 82-82 82z m-78 289c4 4 9 6 14 6 5 0 10-2 14-6 8-8 8-20 0-28-4-3-9-6-14-6-5 0-10 3-14 6-7 8-7 20 0 28z m-383 51c0 24 19 43 43 43s43-19 43-43-19-43-43-43-43 19-43 43z m-296-79c-4-3-9-6-14-6s-10 3-14 6c-7 8-7 20 0 28 4 4 9 6 14 6s10-2 14-6c8-8 8-20 0-28z m-79-386c-24 0-43 19-43 43s19 43 43 43c22 0 41-17 43-39v-8c-2-22-21-39-43-39z m377-13c-3 3-17 22-23 46-1 4-3 8-6 10-3 2-4 5-4 8v29c0 3 1 5 2 7 3 3 5 8 5 13v39c0 1 0 1 0 2 0 2-1 19 11 33 11 13 31 20 58 20 27 0 47-7 58-20 13-14 11-31 11-33 0-1 0-1 0-2v-39c0-5 2-10 5-13 1-2 2-4 2-7v-29c0-4-2-7-5-9-5-2-9-6-11-11-5-14-11-27-19-38-2-2-3-5-5-6-2-4-4-8-4-12v-25c0-9 4-34 22-43 0 0 0 0 0-1l71-32c-36-26-80-42-127-42-48 0-92 16-127 42l69 34c0 0 0 0 0 0 17 9 21 34 21 42v25c0 4-2 8-4 12z m-298-308c-4-4-9-6-14-6s-10 2-14 6c-3 4-5 9-5 14 0 5 2 10 5 14 4 3 9 6 14 6s10-3 14-6c4-4 6-9 6-14 0-5-2-10-6-14z m380-50c0-24-19-43-43-43s-43 19-43 43 19 43 43 43 43-19 43-43z m325 76c4-4 6-9 6-14 0-5-2-10-6-14s-9-6-14-6c-5 0-10 2-14 6s-5 9-5 14c0 5 2 10 5 14s9 6 14 6c5 0 10-2 14-6z m-207 197l-84 39c-1 2-2 7-2 9v18c1 1 1 2 2 2 9 13 16 26 22 41 12 9 20 24 20 40v29c0 10-2 18-7 26v32c1 8 1 37-20 62-19 22-49 33-88 33-39 0-69-11-88-33-21-25-21-54-20-62v-32c-5-8-7-16-7-26v-29c0-13 4-24 13-33 6-23 17-40 24-50v-18c0-2-2-6-3-9l-80-39c-32 36-52 82-55 132v26c6 112 100 202 214 202 119 0 215-96 215-215 0-56-21-107-56-145z m259 98c-24 0-43 19-43 43s19 43 43 43 43-19 43-43-19-43-43-43z" horiz-adv-x="1000" />

<glyph glyph-name="brand-connection" unicode="&#xe81a;" d="M977 104h-104v244c0 11-9 20-19 20h-334v228h103c13 0 24 11 24 24v207c0 13-11 23-24 23h-246c-13 0-23-10-23-23v-207c0-13 10-24 23-24h104v-228h-334c-11 0-20-9-20-20v-244h-104c-12 0-23-11-23-23v-208c0-13 11-23 23-23h247c13 0 23 10 23 23v208c0 12-10 23-23 23h-104v225h315v-225h-104c-13 0-23-11-23-23v-208c0-13 10-23 23-23h246c13 0 24 10 24 23v208c0 12-11 23-24 23h-103v225h314v-225h-103c-13 0-24-11-24-23v-208c0-13 11-23 24-23h246c13 0 23 10 23 23v208c0 12-10 23-23 23z m-584 707h214v-176h-214v176z m-139-922h-215v176h215v-176z m353 0h-214v176h214v-176z m354 0h-215v176h215v-176z" horiz-adv-x="1000" />

<glyph glyph-name="brand-credit-card" unicode="&#xe81b;" d="M934 704h-868c-36 0-66-30-66-67v-576c0-37 30-67 66-67h868c36 0 66 30 66 67v576c0 37-30 67-66 67z m27-643c0-15-12-27-27-27h-868c-15 0-27 12-27 27v395h922v-395z m0 434h-922v89l922 1v-90z m0 129l-922-1v14c0 15 12 28 27 28h868c15 0 27-13 27-28v-13z m-340-520c26 0 51 8 72 23 21-14 46-23 73-23 69 0 125 56 125 125s-56 125-125 125c-27 0-52-9-73-23 0 0 0 0 0 0-21 15-46 23-72 23-69 0-125-56-125-125s56-125 125-125z m145 211c47 0 86-39 86-86s-39-86-86-86-86 39-86 86 38 86 86 86z m-145 0c16 0 31-4 44-12-15-21-24-46-24-74 0-28 9-53 24-74-13-8-28-12-44-12-47 0-86 39-86 86s39 86 86 86z" horiz-adv-x="1000" />

<glyph glyph-name="brand-crypto-laundering-alt" unicode="&#xe81c;" d="M863 850h-722c-37 0-67-30-67-66v-868c0-36 30-66 67-66h722c37 0 67 30 67 66v868c0 36-30 66-67 66z m28-934c0-15-13-27-28-27h-722c-15 0-28 12-28 27v749h778v-749z m0 788h-778v80c0 15 13 27 28 27h722c15 0 28-12 28-27v-80z m-75 70h-62c-11 0-20-9-20-20s9-19 20-19h62c11 0 20 9 20 19s-9 20-20 20z m-158 0h-62c-11 0-20-9-20-20s9-19 20-19h62c11 0 20 9 20 19s-9 20-20 20z m-158-813c183 0 332 149 332 332 0 23-2 45-6 66 0 1 0 3 0 4 0 5-1 9-4 13-37 143-167 249-322 249-183 0-332-149-332-332s149-332 332-332z m0 625c131 0 242-86 280-205-41-5-83-19-124-32-7-2-14-5-21-7l-117 201c-4 6-10 9-16 9s-13-3-16-9l-117-198c-3 1-7 2-11 3-45 16-92 31-137 34 38 118 148 204 279 204z m2-397l-135 78 18 31c40-12 80-22 121-22 38 0 76 9 113 20l17-29-134-78z m96 13l-96-140-97 140 87-51c6-4 13-4 19 0l87 51z m-192 131l96 164 97-166c-32-9-63-16-93-16-33 0-66 8-100 18z m-195 11c43-2 87-17 134-33 2 0 3 0 4-1l-23-40c-2-2-2-5-3-8 0 0 0 0 0 0 0 0 0-1 0-1 0 0 0-1 0-1 0 0 0 0 0 0 1-4 2-7 4-10l159-231c4-5 10-8 16-8s11 3 15 8l160 231c2 3 3 6 3 10 0 0 0 0 0 0 0 0 0 1 0 1 0 0 0 1 0 1 0 0 0 0 0 0 0 3-1 6-2 8l-22 37c4 2 8 3 13 5 42 14 83 27 120 31 3-16 4-33 4-50 0-161-131-293-293-293-161 0-293 132-293 293 0 18 2 34 4 51z" horiz-adv-x="1000" />

<glyph glyph-name="brand-crypto-laundering" unicode="&#xe81d;" d="M863 850h-722c-37 0-67-30-67-66v-868c0-36 30-66 67-66h722c37 0 67 30 67 66v868c0 36-30 66-67 66z m28-934c0-15-13-27-28-27h-722c-15 0-28 12-28 27v749h778v-749z m0 788h-778v80c0 15 13 27 28 27h722c15 0 28-12 28-27v-80z m-75 70h-62c-11 0-20-9-20-20s9-19 20-19h62c11 0 20 9 20 19s-9 20-20 20z m-158 0h-62c-11 0-20-9-20-20s9-19 20-19h62c11 0 20 9 20 19s-9 20-20 20z m-158-813c183 0 332 149 332 332s-149 332-332 332-332-149-332-332 149-332 332-332z m0 625c158 0 287-125 293-282-45-2-93-18-138-33-17-6-34-11-51-16-6 8-13 16-21 23 21 13 37 33 43 58l1 3c7 26 4 52-9 75-10 16-23 29-40 37l9 31c2 10-4 21-14 24-11 2-21-4-24-14l-8-28-22 6 7 28c3 10-3 21-14 24-10 3-21-4-24-14l-7-28-15 4c-5 1-11 0-15-2-4-3-8-7-9-12l-42-155-14-55c-10 4-20 7-30 10-49 17-100 34-149 35 6 156 135 281 293 281z m4-388c25 0 51 4 76 10 1-7 0-14-2-21l-1-4c-7-26-30-43-56-43-5 0-10 0-15 2l-104 27 11 43c30-9 61-14 91-14z m-81 51l10 37 104-28c10-2 19-7 26-14-20-4-40-7-59-7-26 0-53 5-81 12z m109 53c-5 0-10 1-15 2l-74 20 32 117 73-20c31-8 50-40 42-71l-1-4c-7-26-31-44-57-44z m-189-69c11-3 22-7 33-10l-17-62c-1-5-1-11 2-15s7-8 12-9l15-4-7-27c-3-10 3-21 14-24 1 0 3 0 5 0 8 0 16 5 19 14l7 26 22-6-7-26c-3-10 4-21 14-24 2 0 3-1 5-1 9 0 17 6 19 15l7 26 9-2c9-2 17-4 26-4 44 0 83 30 94 73l1 4c4 13 4 27 2 41 16 5 33 10 49 16 44 14 86 28 125 31-15-148-140-265-292-265-152 0-277 117-292 265 43-1 88-16 135-32z" horiz-adv-x="1000" />

<glyph glyph-name="brand-dashboard-slow" unicode="&#xe81e;" d="M500 350c-38 0-70-26-79-60h-249c-11 0-20-9-20-20s9-20 20-20h248c8-36 41-64 80-64 45 0 82 37 82 82s-37 82-82 82z m0-125c-24 0-43 19-43 43s19 43 43 43 43-19 43-43-19-43-43-43z m359 369c-1 2-2 3-3 5-1 1-3 2-4 3-94 93-218 144-349 145-1 0-1 0-1 0 0 0 0 0 0 0-1 0-1 0-2 0-131 0-255-51-349-143-2 0-4-2-5-3-2-2-3-4-4-5-92-94-142-218-142-349 0-99 29-195 83-277 3-7 10-13 19-13h795c5 0 11 3 14 7 2 1 4 3 5 5 55 82 84 178 84 278 0 130-50 254-141 347z m28-598h-774c-14 21-25 43-35 65h844c-10-22-21-44-35-65z m49 104h-873c-14 41-22 83-23 127h64c10 0 19 9 19 20s-9 19-19 19h-64c4 109 47 212 121 292l44-44c4-4 9-6 14-6s10 2 14 6c7 7 7 20 0 27l-45 45c81 74 184 117 294 121v-64c0-11 9-20 20-20 11 0 20 9 20 20v64c109-5 211-48 292-123l-45-45c-8-7-8-20 0-27 4-4 9-6 14-6s10 2 13 6l45 45c73-81 115-182 120-291h-64c-11 0-20-9-20-19s9-20 20-20h64c-2-44-10-86-24-127 0 0-1 0-1 0z" horiz-adv-x="1000" />

<glyph glyph-name="brand-data-volumes" unicode="&#xe81f;" d="M1001 755c0 54-78 95-181 95s-180-41-180-95c0 0 0 0 0 0 0 0 0-1 0-1v-108c0-3 0-5 1-7 5-23 26-44 56-58l-33-33c-29 31-89 52-163 52-77 0-140-23-167-57l-35 36c37 15 61 39 63 67 0 1 0 2 0 3v103c0 1 0 1 0 1 0 1 0 2 0 2 0 54-77 95-180 95s-181-41-181-95c0 0 0 0 0 0 0 0 0-1 0-1v-108c0-3 1-5 1-7 11-48 85-82 180-82 27 0 53 3 75 8l63-63v-298c0 0 0 0 0 0l-66-67c-1 0-1-1-1-1-22 5-46 7-71 7-103 0-181-41-181-95 0 0 0 0 0 0 0 0 0-1 0-1v-108c0-3 1-5 1-7 11-48 85-82 180-82 99 0 175 38 180 89 0 1 0 2 0 3v103c0 1 0 1 0 1 0 1 0 2 0 2 0 31-25 58-67 75l37 37c25-36 89-60 169-60 76 0 139 22 167 55l34-34c-39-17-62-43-62-73 0 0 0 0 0 0 0 0 0-1 0-1v-108c0-3 0-5 1-7 11-48 84-82 179-82 100 0 176 38 181 89 0 1 0 2 0 3v103c0 1 0 1 0 1 0 1 0 2 0 2 0 54-78 95-181 95-28 0-54-3-77-9-1 1-1 2-2 3l-58 58c0 0 0 0 0 0v307c0 3-1 5-1 7 0 0 0 1 0 1 0 0 0 1 1 1l55 56c25-7 52-10 82-10 100 0 176 38 181 89 0 1 0 2 0 3v103c0 1 0 1 0 1 0 1 0 2 0 2z m-819 56c87 0 141-32 141-56s-54-55-141-55-142 32-142 55 54 56 142 56z m-142-160v44c33-21 83-34 142-34s109 13 141 34v-44c0-12-13-25-36-35-27-13-65-20-105-20-87 0-142 33-142 55z m247-742c-27-13-65-20-105-20-87 0-142 32-142 55v44c33-21 83-35 142-35s109 14 141 35v-44c0-12-13-25-36-35z m36 139c0-23-54-55-141-55s-142 32-142 55 54 56 142 56 141-32 141-56z m603-139c-28-13-65-20-106-20-86 0-141 32-141 55v44c32-21 83-35 141-35s109 14 142 35v-44c0-12-13-25-36-35z m36 139c0-23-54-55-142-55s-141 32-141 55 54 56 141 56 142-32 142-56z m-318 359c-1-2-1-4-1-6 0-12-14-25-36-35-28-13-66-20-106-20-86 0-142 33-142 55v44c33-21 83-34 142-34 59 0 110 13 143 35v-39z m-285-66c33-21 83-34 142-34 59 0 110 13 143 35v-37c-1-2-1-4-1-6 0-11-14-24-36-34-28-13-66-20-106-20-86 0-142 32-142 54v42z m142 220c88 0 142-32 142-56s-54-55-142-55c-88 0-142 32-142 55s54 56 142 56z m0-422c-86 0-142 33-142 55v46c33-21 83-34 142-34 59 0 110 13 143 34v-46c0-22-56-55-143-55z m319 672c88 0 142-32 142-56s-54-55-142-55-141 32-141 55 54 56 141 56z m106-195c-28-13-65-20-106-20-86 0-141 33-141 55v44c32-21 83-34 141-34s109 13 142 34v-44c0-12-13-25-36-35z" horiz-adv-x="1000" />

<glyph glyph-name="brand-database-cloud" unicode="&#xe820;" d="M856 184v484c0 1-1 2-1 2 0 2 1 3 1 4 0 50-39 96-110 128-66 31-153 48-246 48s-180-17-246-48c-70-32-109-78-109-128 0-1 0-1 0-2 0-1 0-1 0-2v-644c0-50 39-96 109-128 66-31 154-48 246-48 2 0 4 0 5 1 6-1 11-1 17-1h309c94 0 170 75 170 168 0 84-63 154-145 166z m-229 149c-39-8-82-12-127-12-87 0-168 15-229 44-56 25-87 59-87 92v135c17-17 41-32 70-46 66-31 154-48 246-48s180 17 246 48c29 14 53 29 70 46v-135c0-33-31-67-87-92-23-11-49-20-77-27-8-1-17-3-25-5z m-243-217c-119 21-200 72-200 127v133c17-18 41-33 70-47 66-30 154-47 246-47 17 0 33 0 50 1-24-26-40-60-43-98-51-4-95-30-123-69z m362 213c29 14 53 29 70 47v-108c-18 26-44 47-74 59 1 1 2 2 4 2z m-475 438c61 28 142 44 229 44s168-16 229-44c56-26 87-60 87-93s-31-67-87-93c-61-28-142-43-229-43s-168 15-229 43c-56 26-87 60-87 93s31 67 87 93z m0-834c-56 26-87 60-87 93v135c37-36 100-65 180-81-8-19-12-40-12-62 0-48 20-92 54-123-51 7-97 20-135 38z m560-44h-309c-72 0-131 58-131 129s59 129 131 129c1 0 2 0 4 0 5 0 10 2 14 6 4 4 6 9 6 14 0 2 0 3 0 5 0 57 38 106 91 123 8 1 15 3 22 5 6 0 12 1 18 1 72 0 131-58 131-129 0-2 0-3 0-5 0-5 2-10 6-14 3-4 9-6 14-6 1 0 2 0 3 0 72 0 131-58 131-129s-59-129-131-129z" horiz-adv-x="1000" />

<glyph glyph-name="brand-database-ok" unicode="&#xe821;" d="M856 331v337c0 1-1 2-1 2 0 2 1 3 1 4 0 50-39 96-110 128-66 31-153 48-246 48s-180-17-246-48c-70-32-109-78-109-128 0-1 0-1 0-2 0-1 0-1 0-2v-644c0-50 39-96 109-128 66-31 154-48 246-48 55 0 107 6 156 17 28-11 59-17 91-17 140 0 253 113 253 253 0 101-59 188-144 228z m-585 436c61 28 142 44 229 44s168-16 229-44c56-26 87-60 87-93s-31-67-87-93c-61-28-142-43-229-43s-168 15-229 43c-56 26-87 60-87 93s31 67 87 93z m-87-175c17-17 41-32 70-46 66-31 154-48 246-48s180 17 246 48c29 14 53 29 70 46v-135c0-33-31-67-87-92-11-6-23-11-36-15-12-3-24-6-35-10-48-13-102-19-158-19-87 0-168 15-229 44-56 25-87 59-87 92v135z m632-216v-30c-9 3-19 5-28 7 11 7 20 15 28 23z m-632 0c17-18 41-33 70-47 66-30 154-47 246-47 24 0 48 1 72 3-47-45-77-109-78-179-85 1-164 16-223 44-56 26-87 59-87 93v133z m316-487c-87 0-168 16-229 44-56 26-87 60-87 93v135c17-17 41-33 70-47 65-30 151-47 243-47 10-70 49-131 104-171-32-4-66-7-101-7z m247 0c-118 0-214 96-214 214 0 91 57 168 137 199 11 3 22 7 33 10 14 3 29 5 44 5 118 0 214-96 214-214s-96-214-214-214z m97 282l-127-127-63 63c-7 8-20 8-27 0-8-8-8-20 0-28l75-75c2-2 4-3 6-4 3-2 6-3 10-3 5 0 10 2 14 6l139 140c8 8 8 20 0 28-7 7-20 7-27 0z" horiz-adv-x="1000" />

<glyph glyph-name="brand-database" unicode="&#xe822;" d="M856 674c0 50-39 96-110 128-66 31-153 48-246 48s-180-17-246-48c-70-32-109-78-109-128 0-1 0-1 0-2 0-1 0-1 0-2v-644c0-50 39-96 109-128 66-31 154-48 246-48s180 17 246 48c69 32 107 76 109 124 0 1 1 1 1 2v644c0 1-1 2-1 2 0 2 1 3 1 4z m-672-298c17-18 41-33 70-47 66-30 154-47 246-47s180 17 246 47c29 14 53 29 70 47v-133c0-34-31-67-87-93-61-28-142-44-229-44s-168 16-229 44c-56 26-87 59-87 93v133z m545-11c-61-29-142-44-229-44s-168 15-229 44c-56 25-87 59-87 92v135c17-17 41-32 70-46 66-31 154-48 246-48s180 17 246 48c29 14 53 29 70 46v-135c0-33-31-67-87-92z m-458 402c61 28 142 44 229 44s168-16 229-44c56-26 87-60 87-93s-31-67-87-93c-61-28-142-43-229-43s-168 15-229 43c-56 26-87 60-87 93s31 67 87 93z m458-834c-61-28-142-44-229-44s-168 16-229 44c-56 26-87 60-87 93v135c17-17 41-33 70-47 66-30 154-47 246-47s180 17 246 47c29 14 53 30 70 47v-135c0-33-31-67-87-93z" horiz-adv-x="1000" />

<glyph glyph-name="brand-diamond" unicode="&#xe823;" d="M998 444l-134 312c-3 7-10 12-18 12h-346c0 0 0 0 0 0h-348c-7 0-15-5-18-12l-130-312c-3-8-2-16 3-21l479-522c3-4 9-6 14-6 0 0 0 0 0 0 6 0 11 2 14 6l481 522c5 5 7 14 3 21z m-314-29l-185-440-185 440h370z m-359 39l175 260 181-260h-356z m212 275h280l-106-250-174 250z m-247-257l-108 257h281l-173-257z m-18-57l172-411-376 411h204z m455 0h207l-382-415 175 415z m225 39h-209l103 244 106-244z m-800 244l103-244h-205l102 244z" horiz-adv-x="1000" />

<glyph glyph-name="brand-disk-alt" unicode="&#xe824;" d="M184 432c-46 0-82-37-82-82 0-45 36-82 82-82s82 37 82 82c0 45-37 82-82 82z m0-125c-24 0-43 19-43 43s19 43 43 43 43-19 43-43-20-43-43-43z m0 445c-46 0-82-36-82-82s36-82 82-82 82 37 82 82-37 82-82 82z m0-125c-24 0-43 20-43 43s19 43 43 43 43-19 43-43-20-43-43-43z m322 104c-8 8-20 8-28 0l-88-91c-7-8-7-20 1-28 4-4 8-5 13-5 5 0 11 2 14 6l88 91c8 7 8 20 0 27z m113 0c-7 8-20 8-27 0l-90-91c-8-8-8-20 0-28 4-4 9-5 14-5 5 0 10 1 14 5l89 92c8 7 8 20 0 27z m114 0c-8 8-21 8-28 0l-90-91c-8-8-7-20 0-28 4-4 9-5 14-5 5 0 10 1 14 5l90 92c7 7 7 20 0 27z m87 0l-92-91c-7-8-7-20 0-28 4-4 9-5 14-5 5 0 10 1 14 5l91 91c8 8 8 20 0 28-7 8-20 8-27 0z m-314-322c-8 8-20 7-28 0l-88-92c-7-7-7-20 1-27 4-4 8-6 13-6 5 0 11 2 14 6l88 91c8 8 8 21 0 28z m113 0c-7 7-20 7-27 0l-90-91c-8-8-8-21 0-28 4-4 9-6 14-6 5 0 10 2 14 6l89 91c8 8 8 20 0 28z m114 0c-8 7-21 7-28 0l-90-91c-8-8-7-21 0-28 4-4 9-6 14-6 5 0 10 2 14 6l90 91c7 8 7 20 0 28z m87 0l-92-91c-7-8-7-20 0-28 4-4 9-6 14-6 5 0 10 2 14 6l91 91c8 8 8 20 0 28s-20 7-27 0z m-636-297c-46 0-82-37-82-82s36-82 82-82 82 36 82 82-37 82-82 82z m0-125c-24 0-43 19-43 43s19 43 43 43 43-20 43-43-20-43-43-43z m816 797c0 36-30 66-66 66h-868c-36 0-66-30-66-66v-225c0-19 8-36 20-48-12-12-20-29-20-48v-224c0-20 8-37 21-49-13-12-21-30-21-49v-225c0-36 30-66 66-66h868c36 0 66 30 66 66v225c0 19-8 37-21 49 13 12 21 29 21 49v224c0 19-8 36-20 48 12 12 20 29 20 48v225z m-39-868c0-15-12-27-27-27h-868c-15 0-27 12-27 27v225c0 15 12 27 27 27h868c15 0 27-12 27-27v-225z m0 323c0-16-12-28-27-28h-868c-15 0-27 12-27 28v224c0 15 12 28 27 28h868c15 0 27-13 27-28v-224z m0 320c0-15-12-27-27-27h-868c-15 0-27 12-27 27v225c0 15 12 27 27 27h868c15 0 27-12 27-27v-225z m-455-470c-8 7-20 7-28-1l-88-91c-7-8-7-20 1-28 4-3 8-5 13-5 5 0 11 2 14 6l88 91c8 8 8 20 0 28z m113 0c-7 7-20 7-27-1l-90-91c-8-8-8-20 0-28 4-3 9-5 14-5 5 0 10 2 14 6l89 91c8 8 8 20 0 28z m114 0c-8 7-21 7-28-1l-90-91c-8-8-7-20 0-28 4-3 9-5 14-5 5 0 10 2 14 6l90 91c7 8 7 20 0 28z m87-1l-92-91c-7-7-7-20 0-27 4-4 9-6 14-6 5 0 10 2 14 6l91 91c8 7 8 20 0 27-7 8-20 8-27 0z" horiz-adv-x="1000" />

<glyph glyph-name="brand-disk" unicode="&#xe825;" d="M164 379c-45 0-82-36-82-82s37-82 82-82c45 0 82 37 82 82s-37 82-82 82z m0-125c-24 0-43 20-43 43s19 43 43 43 43-19 43-43-19-43-43-43z m0 479c-45 0-82-37-82-82s37-82 82-82c45 0 82 37 82 82s-37 82-82 82z m0-125c-24 0-43 19-43 43s19 43 43 43 43-19 43-43-19-43-43-43z m836 193c0 26-21 47-47 47h-906c-26 0-47-21-47-47v-299c0-10 3-19 9-27-6-8-9-17-9-27v-299c0-26 21-47 47-47h436c0-2-1-4-1-6v-84c-30-6-54-30-62-60h-400c-11 0-20-9-20-20s9-20 20-20h400c9-35 41-62 80-62 39 0 71 27 80 62h399c11 0 20 9 20 20s-9 20-20 20h-399c-7 28-30 51-58 59v85c0 2-1 4-1 6h432c26 0 47 21 47 47v299c0 10-3 19-9 27 6 8 9 17 9 27v299z m-457-869c0-24-19-43-43-43s-43 19-43 43 19 43 43 43 43-19 43-43z m418 217c0-4-4-8-8-8h-906c-4 0-8 4-8 8v299c0 4 4 8 8 8h906c4 0 8-4 8-8v-299z m0 353c0-4-4-7-8-7h-906c-4 0-8 3-8 7v299c0 5 4 8 8 8h906c4 0 8-3 8-8v-299z m-455 206c-8 7-20 7-28-1l-88-91c-7-8-7-20 1-27 8-8 20-8 27 0l88 91c8 8 8 20 0 28z m113 0c-7 7-20 7-27 0l-90-92c-8-7-8-20 0-27s20-8 28 0l89 91c8 8 8 20 0 28z m114 0c-8 7-21 7-28 0l-90-92c-8-7-7-20 0-27s20-8 28 0l90 91c7 8 7 20 0 28z m87 0l-92-92c-7-7-7-20 0-27 8-8 20-8 28 0l91 91c8 8 8 20 0 28s-20 7-27 0z m-314-348c-8 8-20 7-28 0l-88-91c-7-8-7-21 1-28 8-8 20-7 27 0l88 92c8 7 8 20 0 27z m113 0c-7 8-20 8-27 0l-90-91c-8-8-8-20 0-28s20-7 28 0l89 91c8 8 8 20 0 28z m114 0c-8 8-21 8-28 0l-90-91c-8-8-7-20 0-28s20-7 28 0l90 91c7 8 7 20 0 28z m87 0l-92-91c-7-8-7-20 0-28 8-7 20-7 28 0l91 91c8 8 8 20 0 28s-20 8-27 0z" horiz-adv-x="1000" />

<glyph glyph-name="brand-email" unicode="&#xe826;" d="M625 637c3-2 6-3 10-3 7 0 13 4 17 10l47 81c5 9 2 21-8 27-9 5-21 2-26-7l-47-82c-5-9-2-21 7-26z m-143 18c11 0 20 8 20 19v157c0 10-9 19-20 19-10 0-19-9-19-19v-157c0-11 9-19 19-19z m518-131c0 86-70 156-156 156-76 0-140-55-154-127h-624c-36 0-66-30-66-66v-571c0-15 6-30 15-41 1-2 1-3 2-4 1 0 1 0 2-1 12-12 29-20 47-20h868c36 0 66 30 66 66v598c0 1 0 2 0 3 0 2 0 4 0 7z m-934-10h622c4-73 59-132 130-144l-293-293c-11-11-28-11-39 0l-433 433c4 3 9 4 13 4z m-27-45l274-274-274-274v548z m895-580h-868c-1 0-2 0-3 0l278 278 118-118c13-13 30-19 47-19s34 6 47 19l118 119 276-275c-4-3-8-4-13-4z m27 45l-262 261 175 176c34 6 65 24 87 50v-487z m-117 473c-65 0-117 52-117 117s52 117 117 117c64 0 117-53 117-117s-53-117-117-117z m19 190c-8 3-16 1-21-5l-39-38c-7-8-7-20 0-28 8-7 20-7 28 0l5 5v-62c0-11 9-19 19-19 11 0 20 8 20 19v110c0 7-5 15-12 18z m-550 47c4-6 10-10 17-10 3 0 7 1 10 3 9 5 12 17 7 26l-47 82c-5 9-17 12-27 7-9-6-12-18-7-27l47-81z" horiz-adv-x="1000" />

<glyph glyph-name="brand-encrypted" unicode="&#xe827;" d="M745 556h90c11 0 19 9 19 20v90c0 11-8 19-19 19h-90c-11 0-20-8-20-19v-90c0-11 9-20 20-20z m11 98h67v-67h-67v67z m-241-131c-13 0-23-11-23-24v-72c0-2-1-2-2-2h-20v74c0 11-9 20-20 20h-90c-11 0-19-9-19-20v-74h-67v74c0 11-9 20-20 20h-90c-11 0-19-9-19-20v-649h481l230 229v444h-341z m-143-36h67v-62h-67v62z m-196 0h67v-62h-67v62z m461-571v154h154l-154-154z m180 193h-186c-18 0-33-15-33-34v-186h-414v496h306c22 0 41 19 41 42v56h286v-374z m-653 447h90c11 0 20 9 20 20v90c0 11-9 19-20 19h-90c-11 0-19-8-19-19v-90c0-11 8-20 19-20z m12 98h67v-67h-67v67z m-12 67h90c11 0 20 8 20 19v90c0 11-9 20-20 20h-90c-11 0-19-9-19-20v-90c0-11 8-19 19-19z m12 98h67v-67h-67v67z m569-98h90c11 0 19 8 19 19v90c0 11-8 20-19 20h-90c-11 0-20-9-20-20v-90c0-11 9-19 20-19z m11 98h67v-67h-67v67z m-309-522h-91c-10 0-19-9-19-19v-91c0-11 9-19 19-19h91c10 0 19 8 19 19v91c0 10-9 19-19 19z m-12-98h-67v67h67v-67z m-77 357h91c10 0 19 9 19 20v90c0 11-9 19-19 19h-91c-11 0-19-8-19-19v-90c0-11 8-20 19-20z m12 98h67v-67h-67v67z m-12 67h91c10 0 19 8 19 19v90c0 11-9 20-19 20h-91c-11 0-19-9-19-20v-90c0-11 8-19 19-19z m12 98h67v-67h-67v67z m182-263h91c10 0 19 9 19 20v90c0 11-9 19-19 19h-91c-10 0-19-8-19-19v-90c0-11 9-20 19-20z m12 98h67v-67h-67v67z m-10-486h91c10 0 19 8 19 19v91c0 10-9 19-19 19h-91c-10 0-19-9-19-19v-91c0-11 9-19 19-19z m12 98h67v-67h-67v67z" horiz-adv-x="1000" />

<glyph glyph-name="brand-filter" unicode="&#xe828;" d="M1000 799c0 28-23 51-51 51h-898c-28 0-51-23-51-51v-56c0-9 2-17 6-24 1-4 2-8 6-12l395-395c0 0 1-1 1-1v-430c0-4 1-8 3-12 5-12 16-19 29-19 0 0 0 0 0 0 4 0 8 1 12 2l121 52c11 5 19 16 19 29v378c1 0 1 1 2 1l395 395c3 4 5 8 6 13 3 7 5 14 5 23v56z m-961 0c0 7 5 12 12 12h898c7 0 12-5 12-12v-56c0-7-5-12-12-12h-898c-7 0-12 5-12 12v56z m514-861l-106-45v418h106v-373z m23 412h-152l-342 342h836l-342-342z" horiz-adv-x="1000" />

<glyph glyph-name="brand-flag" unicode="&#xe829;" d="M748 563l99 176c4 7 6 15 6 23 0 25-21 47-46 47l-623 2v22c0 10-9 19-20 19s-19-9-19-19v-964c0-10 8-19 19-19s20 9 20 19v442l623 5c8 0 15 2 22 6 23 13 31 41 18 64l-99 177z m62-207c-1 0-2-1-4-1l-620-5v422l620-2c5 0 8-4 8-8 0-2 0-3-1-4l-110-195 110-196c2-4 1-9-3-11z" horiz-adv-x="1000" />

<glyph glyph-name="brand-flash" unicode="&#xe82a;" d="M856 819c0 17-15 31-32 31h-484c-13 0-25-8-30-21l-164-477c-1-3-1-6-1-10 0-17 14-31 31-31h173l-184-405c-4-8-1-19 7-24 3-2 7-3 11-3 5 0 10 1 14 5l544 550c6 5 9 13 9 22 0 17-14 31-31 31h-183l310 310c6 6 10 13 10 22z m-381-338c-5-6-7-14-4-21 3-8 10-12 18-12h211l-454-459 151 333c3 6 2 14-1 19-4 6-10 9-17 9h-192l158 461h460l-330-330z" horiz-adv-x="1000" />

<glyph glyph-name="brand-folder" unicode="&#xe82b;" d="M1000-121v843c0 11-9 20-19 20h-470l-31 95c-3 8-11 13-19 13h-441c-11 0-20-9-20-19v-961c0-10 9-19 20-19h962c11 0 20 9 20 19 0 3-1 6-2 9z m-39 824v-103h-403l-34 103h437z m-922-813v921h408l77-232c0-10 9-18 19-18h418v-671h-922z" horiz-adv-x="1000" />

<glyph glyph-name="brand-food-alt" unicode="&#xe82c;" d="M981 36h-10c5 28 8 57 8 86 0 127-50 248-141 338-70 70-158 116-253 133 0 0 0 1 0 1 2 7 3 14 3 22 0 48-39 88-88 88-48 0-88-40-88-88 0-7 1-15 3-22 0 0 0-1 0-1-95-17-183-63-253-133-91-90-140-211-140-338 0-29 2-58 7-86h-9c-11 0-20-9-20-20s9-20 20-20h961c10 0 19 9 19 20s-9 20-19 20z m-481 629c27 0 49-22 49-49 0-4-1-8-2-12 0-2 0-4 0-6-16 1-31 2-47 2-16 0-31-1-47-2 0 2 0 4 0 6-1 4-2 8-2 12 0 27 22 49 49 49z m431-629h-862c-6 28-8 57-8 86 0 117 45 227 128 310 83 83 194 129 311 129s228-46 311-129 129-193 129-310c0-29-3-58-9-86z m-449 476c-210 0-380-171-380-381 0-10 8-19 19-19 11 0 20 9 20 19 0 189 153 342 341 342 11 0 20 9 20 20s-9 19-20 19z" horiz-adv-x="1000" />

<glyph glyph-name="brand-food" unicode="&#xe82d;" d="M967 199c4 1 8 3 12 6 29 34 29 83 0 116l-46 53c-9 10-14 22-13 35l4 67c2 44-28 82-73 93l-71 18c-14 3-26 11-33 22l-41 57c-25 35-73 50-115 35l-69-24c-14-5-29-5-43 0l-68 24c-43 15-91 0-116-35l-40-57c-8-11-20-19-34-22l-71-18c-44-11-75-49-72-93l3-67c1-13-3-25-12-35l-46-53c-30-33-30-82 0-116 2-2 6-4 9-5-16-41-27-83-32-128-4-37 23-71 61-75 2 0 5-1 7-1h860c39 0 70 32 70 71 0 3 0 6 0 8-5 44-16 85-31 124z m-39-163h-860c-1 0-2 0-3 0-16 2-27 16-26 32 26 233 224 411 460 411 236 0 433-176 460-408 0-1 0-3 0-4 0-17-14-31-31-31z m24 198c-82 169-255 284-453 284-197 0-369-114-451-282-12 19-11 42 4 60l46 52c16 18 24 40 22 63l-3 67c-2 24 16 47 43 53l70 18c23 6 43 19 57 38l40 56c15 21 44 30 71 21l68-24c23-8 47-8 69 0l69 24c26 9 56 0 71-21l40-56c13-19 33-32 56-38l71-18c27-6 44-29 43-53l-4-67c-1-23 7-45 22-63l46-52c16-18 17-43 3-62z m-458 99c-7 7-20 7-27 0l-177-177c-8-8-8-20 0-28s20-8 27 0l177 177c8 8 8 20 0 28z m188 0l-177-177c-8-8-8-20 0-28s20-8 27 0l177 177c8 8 8 20 0 28s-20 7-27 0z" horiz-adv-x="1000" />

<glyph glyph-name="brand-globe-net-alt" unicode="&#xe82e;" d="M979-48h-399c-7 29-30 52-59 59v91c0 0 0 0 0 0 0 0 0 1 0 1 197 10 354 174 354 373 0 202-160 366-360 374-2 0-3 0-5 0-3 0-6 0-9 0 0 0 0 0 0 0 0 0 0 0 0 0 0 0 0 0 0 0-1 0-1 0-2 0-6 3-12 3-18-1-96-5-182-46-246-110 0-1-1-1-2-2 0 0 0 0 0 0-66-68-106-160-106-261 0-101 40-193 106-261 0 0 0 0 0 0 1-1 2-1 2-2 64-64 151-106 247-111v-90c-30-7-54-30-62-60h-400c-11 0-20-9-20-20s9-20 20-20h400c9-35 42-62 80-62s71 27 80 62h399c11 0 20 9 20 20s-9 20-20 20z m-812 506h132c1-59 9-112 24-158-26-13-51-28-73-45-49 55-79 126-83 203z m83 239c23-18 48-33 74-45-15-46-23-97-25-154h-132c5 76 35 145 83 199z m585-199h-132c-2 57-11 109-26 155 26 12 51 28 74 46 48-55 79-124 84-201z m-84-245c-22 18-46 33-72 45 15 47 23 101 24 160h133c-5-78-36-150-85-205z m-230 361c42 2 82 10 120 24 13-41 21-88 23-140h-143v116z m0 39v149c44-30 79-70 102-120 1-2 3-5 4-8-34-12-69-19-106-21z m-39 0c-38 2-74 9-108 21 2 3 3 7 5 10 24 50 58 90 103 120v-151z m0-39v-116h-144c2 51 9 98 22 139 39-13 80-21 122-23z m0-156v-120c-43-2-84-10-123-23-13 42-20 90-21 143h144z m0-159v-150c-45 28-79 67-103 115-2 5-4 9-6 14 34 12 71 19 109 21z m39-151v151c38-2 74-10 109-22-2-5-5-10-7-15-23-48-58-86-102-114z m0 190v120h143c-1-54-8-102-21-144-38 13-80 22-122 24z m142 351c-19 43-45 81-78 111 52-13 99-39 138-73-19-15-39-27-60-38z m-325-1c-21 11-42 23-60 37 38 35 85 61 136 75-32-31-57-68-76-112z m-1-425c18-43 44-80 76-110-51 14-97 39-135 74 18 14 38 26 59 36z m329-1c20-11 39-23 57-36-37-34-82-59-131-72 31 29 55 65 74 108z m-166-373c-24 0-43 19-43 43s19 43 43 43 43-19 43-43-19-43-43-43z" horiz-adv-x="1000" />

<glyph glyph-name="brand-globe-net" unicode="&#xe82f;" d="M1000 350c0 134-52 259-146 354-90 89-208 141-334 146-3 0-5 0-7 0-4 0-9 0-13 0-2 0-5 0-7 0-6 3-12 3-18-1-124-6-240-57-329-145-94-95-146-220-146-354s52-259 146-354c90-89 208-141 333-146 2 0 4 0 5 0 2 0 3 0 4 0 4 0 8 0 12 0 2 0 4 0 7 0 2-1 6-2 9-2 3 0 6 1 9 2 0 0 1 0 1 1 124 6 239 57 328 145 0 1 0 1 0 1 1 0 2 1 2 2 1 1 1 1 1 1 92 94 143 218 143 350z m-266-244c21 65 32 140 34 225h193c-5-109-47-212-121-292-32 27-68 49-106 67z m-694 225h193c1-84 12-159 34-224-39-18-75-41-108-67-73 80-115 182-119 291z m118 328c34-27 71-50 110-68-22-65-33-139-35-221h-193c4 108 46 209 118 289z m803-289h-194c-2 82-14 156-36 221 40 18 77 41 110 69 73-80 115-182 120-290z m-480-476c-67 39-119 95-153 166-4 8-8 16-12 25 52 19 107 30 165 32v-223z m0 262c-62-2-122-13-178-34-20 60-30 130-31 209h209v-175z m-209 214c2 77 13 146 32 206 55-21 115-32 177-34v-172h-209z m248 435c67-42 118-100 152-172 4-7 7-13 9-20-50-19-105-30-161-32v224z m-39-224c-57 2-112 13-163 32 3 7 6 15 10 22 34 72 86 130 153 172v-226z m39-39c61 2 120 14 175 34 20-60 31-129 33-206h-208v172z m197 86c-3 7-6 15-9 22-29 60-68 111-118 152 83-16 160-55 224-114-30-24-62-44-97-60z m-425 24c-3-8-7-16-10-24-35 16-67 36-96 59 62 59 139 98 221 115-48-41-86-91-115-150z m-12-582c4-9 8-19 13-27 27-57 65-106 112-144-81 17-156 55-218 113 29 23 60 42 93 58z m240 47c57-2 113-13 164-33-3-9-7-18-12-26-34-71-85-127-152-166v225z m0 39v175h208c-1-79-11-149-30-210-56 21-116 33-178 35z m188-115c4 9 8 18 12 28 33-16 64-35 93-58-61-56-135-94-215-112 46 39 82 86 110 142z" horiz-adv-x="1000" />

<glyph glyph-name="brand-group" unicode="&#xe830;" d="M148 850c-81 0-148-67-148-148s67-149 148-149 149 67 149 149-67 148-149 148z m0-258c-60 0-109 49-109 110s49 109 109 109 110-49 110-109-49-110-110-110z m0-445c-81 0-148-67-148-149s67-148 148-148 149 67 149 148-67 149-149 149z m0-258c-60 0-109 49-109 109s49 110 109 110 110-49 110-110-49-109-110-109z m704 258c-82 0-149-67-149-149s67-148 149-148 148 67 148 148-67 149-148 149z m0-258c-61 0-110 49-110 109s49 110 110 110 109-49 109-110-49-109-109-109z m-704 609c-81 0-148-66-148-148 0-82 67-148 148-148s149 66 149 148c0 82-67 148-149 148z m0-257c-60 0-109 49-109 109 0 60 49 109 109 109s110-49 110-109c0-60-49-109-110-109z m704 257c-82 0-149-66-149-148 0-82 67-148 149-148s148 66 148 148c0 82-67 148-148 148z m0-257c-61 0-110 49-110 109 0 60 49 109 110 109s109-49 109-109c0-60-49-109-109-109z m0 312c81 0 148 67 148 149s-67 148-148 148-149-67-149-148 67-149 149-149z m0 258c60 0 109-49 109-109s-49-110-109-110-110 49-110 110 49 109 110 109z m-352 39c-82 0-148-67-148-148s66-149 148-149c82 0 148 67 148 149s-66 148-148 148z m0-258c-60 0-109 49-109 110s49 109 109 109c60 0 109-49 109-109s-49-110-109-110z m0-94c-82 0-148-66-148-148 0-82 66-148 148-148 82 0 148 66 148 148 0 82-66 148-148 148z m0-257c-60 0-109 49-109 109 0 60 49 109 109 109 60 0 109-49 109-109 0-60-49-109-109-109z m0-94c-82 0-148-67-148-149s66-148 148-148c82 0 148 67 148 148s-66 149-148 149z m0-258c-60 0-109 49-109 109s49 110 109 110c60 0 109-49 109-110s-49-109-109-109z" horiz-adv-x="1000" />

<glyph glyph-name="brand-history" unicode="&#xe831;" d="M854 704c-95 94-220 146-354 146s-259-52-354-146-146-220-146-354c0-117 41-231 116-320h-96c-11 0-20-9-20-20s9-19 20-19h148c11 0 20 8 20 19v149c0 10-9 19-20 19s-20-9-20-19v-107c-70 83-109 189-109 298 0 123 48 239 135 326 87 87 203 135 326 135 123 0 239-48 326-135 87-87 135-203 135-326s-48-239-135-326c-87-87-203-135-326-135-11 0-19-9-19-20s8-19 19-19c134 0 259 52 354 146s146 220 146 354c0 134-52 259-146 354z m-352 5c-11 0-20-8-20-19v-336c0-4 2-8 4-11 1-2 2-5 4-7l162-162c4-4 9-6 14-6s10 2 14 6c8 8 8 20 0 28l-158 158v330c0 11-9 19-20 19z" horiz-adv-x="1000" />

<glyph glyph-name="brand-idea-alt" unicode="&#xe832;" d="M751 745c-67 68-154 105-247 105-198 0-359-161-359-359 0-98 38-189 108-257 0-1 0-1 1-1 40-36 62-158 62-229 0-3 1-6 2-8-1-4-2-9-2-13v-90c0-24 20-43 43-43h291c24 0 43 19 43 43v90c0 5 0 9-2 14 1 2 2 6 2 9 0 87 17 195 53 227 1 0 1 0 1 1 70 68 109 159 109 257 0 95-37 185-105 254z m-97-852c0-2-1-4-4-4h-291c-2 0-3 2-3 4v23h125c10 0 19 9 19 20 0 11-9 19-19 19h-125v28c0 2 1 4 3 4h291c3 0 4-2 4-4v-90z m-184 440l-11 15h85l-12-16c-6-7-9-16-9-25v-251h-44v251c0 9-3 18-9 26z m250-71c-54-49-64-181-66-236-1 0-2 0-4 0h-87v281c0 1 0 2 0 2l30 41c3 4 5 9 5 14 0 13-11 23-23 23h-148c-5 0-9-1-13-4-11-8-13-23-5-33l30-41c0 0 1-1 1-2v-281h-81c-1 0-3 0-4 0-2 36-8 79-17 115-14 59-34 99-58 121-62 61-96 142-96 229 0 176 143 320 320 320 82 0 160-33 220-94 59-61 92-141 92-226 0-87-34-168-96-229z" horiz-adv-x="1000" />

<glyph glyph-name="brand-idea" unicode="&#xe833;" d="M504 788c-170 0-309-139-309-309 0-84 34-163 94-221 14-13 28-55 39-113 8-49 14-105 14-139 0 0 0-1 0-1v-132c0-13 10-23 23-23h280c13 0 23 10 23 23v130c0 2 0 3 0 5 0 37 4 92 10 138 9 58 21 99 35 111 60 59 94 138 94 222 0 169-138 309-303 309z m125-899h-248v31h103c11 0 20 9 20 20s-9 19-20 19h-103v34h248v-104z m-159 443l-11 16h85l-12-16c-6-7-9-16-9-25v-275h-44v275c0 9-3 18-9 25z m217-46c-23-20-38-67-47-134-6-39-9-84-10-120h-67v275c0 1 0 2 0 2l30 41c3 4 5 9 5 14 0 13-10 23-23 23h-148c-5 0-9-1-13-4-11-8-13-23-5-33l30-41c0 0 1-1 1-2v-275h-60c-2 35-7 80-14 120-12 67-28 114-51 134-51 51-81 119-81 193 0 149 121 269 270 269 144 0 264-121 264-269 0-74-30-142-81-193z m-540 203c0 11-9 19-20 19h-107c-11 0-20-8-20-19s9-20 20-20h107c11 0 20 9 20 20z m71 250c8-8 20-8 28 0s8 20 0 27l-76 76c-8 8-20 8-28 0-7-7-7-20 0-27l76-76z m-5-500l-76-76c-8-8-8-20 0-28 7-7 20-7 27 0l76 76c8 8 8 20 0 28s-20 7-27 0z m766 269h-108c-11 0-19-8-19-19s8-20 19-20h108c10 0 19 9 19 20s-9 19-19 19z m-197 231l76 76c7 7 7 20 0 27s-20 8-28 0l-76-76c-8-7-8-20 0-27s20-8 28 0z m5-500c-7 7-20 7-27 0-8-8-8-20 0-28l76-76c7-7 20-7 27 0s8 20 0 28l-76 76z" horiz-adv-x="1000" />

<glyph glyph-name="brand-info" unicode="&#xe834;" d="M854 704c-95 94-220 146-354 146s-259-52-354-146-146-220-146-354 52-259 146-354c95-94 220-146 354-146s259 52 354 146 146 220 146 354c0 134-52 259-146 354z m-28-680c-87-87-203-135-326-135-123 0-239 48-326 135-87 87-135 203-135 326s48 239 135 326c87 87 203 135 326 135 123 0 239-48 326-135 87-87 135-203 135-326s-48-239-135-326z m-324 451c-11 0-20-9-20-19v-336c0-11 9-20 20-20 11 0 20 9 20 20v336c0 10-9 19-20 19z m0 124c-13 0-23-10-23-23v-16c0-13 10-23 23-23 13 0 23 10 23 23v16c0 13-10 23-23 23z" horiz-adv-x="1000" />

<glyph glyph-name="brand-interchange" unicode="&#xe835;" d="M993 93l-158 158c-7 7-20 7-27 0-8-8-8-20 0-28l126-127c-66 0-127 1-181 3-60 2-140 16-181 71-6 9-18 11-27 4-9-6-10-18-4-27 49-68 142-85 210-87 54-2 113-3 178-3l-121-121c-8-8-8-20 0-28 4-4 9-6 14-6s10 2 13 6l158 158c7 7 7 20 0 27z m-240 508c54 2 114 3 180 3l-125-125c-8-8-8-20 0-28 4-4 9-6 14-6 5 0 10 2 13 6l158 157c3 4 6 9 6 14s-3 10-6 14l-158 158c-7 7-20 7-27 0-8-8-8-20 0-28l123-123c-66 0-126-1-180-3-104-3-270-87-270-299 0-81-29-147-83-191-42-34-98-54-151-54-65 0-141 0-227 0 0 0 0 0 0 0-11 0-20-9-20-19 0-11 9-20 20-20 57 0 110 0 158 0 24 0 47 0 69 0 109 0 273 76 273 284 0 184 143 257 233 260z m-733 3c0 0 0 0 0 0 86 0 162 0 227 0 69 0 147-6 193-74 4-6 10-9 17-9 3 0 7 1 11 3 8 6 11 19 5 27-62 92-169 92-226 92-65 0-141 0-227 0-11 0-20-9-20-20 0-10 9-19 20-19z" horiz-adv-x="1000" />

<glyph glyph-name="brand-interface" unicode="&#xe836;" d="M981 741h-461v89c0 10-9 19-20 19h-480c-11 0-20-9-20-19v-961c0-10 9-19 20-19 10 0 19 9 19 19v941h442v-210h-317c-11 0-19-9-19-19s8-20 19-20h797v-692c0-10 9-19 20-19 10 0 19 9 19 19v852c0 11-9 20-19 20z m-20-141h-441v102h441v-102z m-189-295c-40 0-74-28-81-66h-171v90c0 11-9 20-20 20h-88c-8 36-41 64-80 64-45 0-82-37-82-82 0-46 37-83 82-83 38 0 70 27 79 62h70v-210h-173c-9 36-41 63-79 63-46 0-82-37-82-82s36-83 82-83c38 0 70 27 79 63h173v-192c0-10 8-19 19-19 11 0 20 9 20 19v92h88c10-35 42-60 80-60 45 0 82 36 82 82s-37 82-82 82c-40 0-73-28-81-65h-87v200h173c10-34 41-59 79-59 45 0 82 37 82 82 0 45-37 82-82 82z m-440-17c-24 0-43 19-43 43s19 42 43 42 43-19 43-42-19-43-43-43z m-103-250c-24 0-43 19-43 43s19 42 43 42 43-19 43-42-20-43-43-43z m459-12c23 0 43-19 43-43s-20-43-43-43-43 19-43 43 19 43 43 43z m84 154c-24 0-43 19-43 43s19 43 43 43 43-19 43-43-20-43-43-43z" horiz-adv-x="1000" />

<glyph glyph-name="brand-key" unicode="&#xe837;" d="M699 850c-166 0-301-135-301-301 0-76 29-145 75-198l-465-466c-8-8-8-20 0-28 3-3 8-5 13-5s10 2 14 5l60 60 61-61c4-4 9-6 14-6s10 2 14 6c7 7 7 20 0 27l-62 62 31 31 100-100c4-4 9-6 14-6s10 2 14 6c8 7 8 20 0 27l-100 100 31 31 86-86c4-4 9-6 14-6s10 2 14 6c7 8 7 20 0 28l-86 86 31 31 99-100c4-4 9-6 14-6s10 2 14 6c8 8 8 20 0 28l-100 100 203 202c53-46 122-75 198-75 166 0 301 135 301 301s-135 301-301 301z m0-562c-144 0-261 117-261 261s117 262 261 262 262-117 262-262-117-261-262-261z" horiz-adv-x="1000" />

<glyph glyph-name="brand-lock" unicode="&#xe838;" d="M787 350h-35c0 91 0 172 0 243 0 69-27 134-75 182-47 48-110 74-176 75-68 1-131-24-177-70-48-47-74-112-74-187 0-74 0-156 0-243h-37c-37 0-66-30-66-66v-368c0-36 29-66 66-66h574c37 0 67 30 67 66v368c0 36-30 66-67 66z m-436 403c39 38 92 59 150 58 56-1 108-23 148-63 41-41 64-96 64-155 0-71 0-152-1-243h-422c0 87-1 169-1 243 0 64 22 120 62 160z m464-837c0-15-13-27-28-27h-574c-15 0-27 12-27 27v41h629v-41z m0 80h-629v288c0 15 12 27 27 27h574c15 0 28-12 28-27v-288z m-315 272c-34 0-62-28-62-62v-90c0-35 28-63 62-63 35 0 63 28 63 63v90c0 34-28 62-63 62z m23-152c0-13-10-24-23-24-13 0-23 11-23 24v90c0 12 10 23 23 23 13 0 23-11 23-23v-90z" horiz-adv-x="1000" />

<glyph glyph-name="brand-magnet" unicode="&#xe839;" d="M427 485h526c26 0 47 21 47 47v195c0 26-21 47-47 47h-526c-114 0-221-45-302-125s-125-188-125-302 44-221 125-302 188-125 302-125h526c26 0 47 21 47 47v196c0 25-21 46-47 46h-526c-76 0-138 62-138 138s62 138 138 138z m323 39v211h65v-211h-65z m211 203v-195c0-5-4-8-8-8h-99v211h99c4 0 8-4 8-8z m-211-768v211h65v-211h-65z m211 204v-196c0-4-4-8-8-8h-99v211h99c4 0 8-3 8-7z m-711 184c0-97 79-177 177-177h284v-211h-284c-214 0-388 174-388 388s174 388 388 388h284v-211h-284c-98 0-177-79-177-177z" horiz-adv-x="1000" />

<glyph glyph-name="brand-map-marker" unicode="&#xe83a;" d="M500 637c-69 0-125-56-125-125s56-125 125-125c69 0 125 56 125 125s-56 125-125 125z m0-211c-47 0-86 39-86 86s39 86 86 86 86-38 86-86-39-86-86-86z m481-537h-442c210 287 313 486 313 609 0 194-158 352-352 352-194 0-352-158-352-352 0-123 103-322 313-609h-441c-11 0-20-9-20-20s9-19 20-19h961c10 0 19 9 19 19s-9 20-19 20z m-793 609c0 173 140 313 312 313 172 0 313-140 313-313 0-114-106-315-313-596-207 281-312 482-312 596z" horiz-adv-x="1000" />

<glyph glyph-name="brand-medal" unicode="&#xe83b;" d="M500 700c-124 0-225-101-225-225s101-225 225-225 225 101 225 225-101 225-225 225z m0-410c-102 0-185 83-185 185 0 103 83 186 185 186 103 0 186-83 186-186 0-102-83-185-186-185z m387 207l-66 82 5 104c1 17-10 32-26 36l-101 27-57 88c-9 14-27 20-42 14l-98-38-98 38c-15 6-33 0-42-14l-57-88-101-27c-16-4-27-19-26-36l5-104-66-82c-10-13-10-31 0-44l66-82-5-104c-1-17 10-32 26-36l58-16-2-3c-25-45-69-124-121-214-4-7-1-17 6-21 2-1 3-2 5-2l121-20c4-1 7-3 9-5l78-95c5-7 15-7 22-2 1 1 3 3 4 4 46 81 86 150 117 203l117-202c4-7 14-10 21-6 2 1 3 2 5 4l77 94c3 3 6 5 10 6l120 20c9 1 15 9 13 18 0 2-1 3-2 5l-124 215 62 17c16 4 27 19 26 36l-5 104 66 82c10 13 10 31 0 44z m-423-424c-4-7-21-36-26-43-27-48-49-86-71-124l-56 68c-9 11-21 17-34 20l-87 14c16 29 33 58 54 95 2 4 4 8 7 13 0 1 6 11 8 13 5 10 9 18 13 24 9 17 16 29 22 39 0 1 1 1 1 2 0 1 1 1 1 2l0 0c1 2 2 5 4 9l5-1 57-88c9-14 27-20 42-14l60 23 15-26c-5-7-10-16-15-26z m279 54c2-3 3-5 5-8 0 0 1-1 1-2 2-3 3-5 5-8 0-1 1-2 1-2 2-4 5-8 7-13 1-1 2-2 3-4 0-1 0-1 1-2 3-5 6-10 9-15 1-2 2-4 3-6 1-2 3-5 4-7 2-3 3-6 5-8 7-13 15-27 25-43l-88-15c-13-2-25-9-33-19l-56-68c-49 85-72 124-93 162-1 0-1 0-1 0 0 1-1 3-2 4 0 1-1 1-1 2-1 1-1 2-2 3-1 3-3 6-5 9 0 1-1 2-2 3 0 1-1 2-2 4-2 4-5 8-7 12-2 3-4 7-6 10-1 3-3 6-5 10-2 2-3 4-4 6-1 3-3 5-4 7l1 1 98-38c15-6 33 0 42 14l57 88c1-2 2-3 2-4 2-3 3-5 5-7 1-4 3-7 5-10 1-2 2-4 4-6 1-2 2-4 3-6 1-1 1-2 2-3 1-2 1-3 2-4 0-1 1-2 1-3 1-1 2-3 3-5 1 0 1-1 1-1 6-10 11-19 16-28z m47 268c-6-7-8-15-8-24l5-103-99-27c-9-2-16-7-21-15l-56-86-96 37c-9 3-17 3-25 0l-97-37-56 86c-5 8-12 13-21 15l-99 27 5 103c0 9-2 17-8 24l-64 80 64 80c6 7 8 16 8 24l-5 103 99 27c9 2 16 8 21 15l56 86 97-37c8-3 16-3 25 0l96 37 56-86c5-7 12-13 21-15l99-27-5-103c0-8 2-17 8-24l64-80-64-80z" horiz-adv-x="1000" />

<glyph glyph-name="brand-money-laundering-alt" unicode="&#xe83c;" d="M889 308c6 30 9 62 9 93 0 120-46 233-131 317-85 85-198 132-318 132-120 0-233-47-317-132-85-84-132-197-132-317 0-120 47-233 132-318 84-85 197-131 317-131 32 0 63 3 93 9 45-67 122-111 208-111 138 0 250 112 250 250 0 87-44 163-111 208z m-440-317c-226 0-410 184-410 410s184 410 410 410 410-184 410-410c0-25-2-49-6-73-31 14-66 22-103 22-65 0-124-25-168-65 0 2 0 5 0 7 0 58-37 109-92 127-2 0-4 1-6 1-12 4-28 9-39 12-1 0-2 0-3 0-1 0-1 0-2 0-2 1-4 1-7 2-5 1-11 2-16 4-37 13-61 48-61 88 0 51 42 93 93 93s94-42 94-93c0-11 9-20 20-20 10 0 19 9 19 20 0 66-49 121-112 131v33c0 11-9 19-20 19-10 0-19-8-19-19v-33c-65-9-115-64-115-131 0-56 36-106 88-125 7-3 15-4 22-6 2 0 4 0 6-1 1 0 2 0 3 0 1 0 1-1 2-1 9-1 24-6 35-10 2 0 4-1 6-2 39-12 65-48 65-89 0-52-42-94-94-94s-93 42-93 94c0 11-9 20-20 20-11 0-20-9-20-20 0-67 50-122 115-131v-45c0-11 9-20 19-20 11 0 20 9 20 20v45c15 2 29 7 42 14-8-24-12-49-12-75 0-37 8-71 22-103-24-4-48-6-73-6z m301-102c-76 0-143 40-180 101-1 2-2 5-4 7-17 30-27 65-27 103 0 116 95 211 211 211 116 0 211-95 211-211s-95-211-211-211z m84 295c-7 8-20 8-27 0l-57-56-56 56c-8 8-20 8-28 0-8-7-8-20 0-27l57-57-57-57c-8-7-8-20 0-27 4-4 9-6 14-6 5 0 10 2 14 6l56 56 57-56c4-4 9-6 14-6 5 0 10 2 13 6 8 7 8 20 0 27l-56 57 56 57c8 7 8 20 0 27z" horiz-adv-x="1000" />

<glyph glyph-name="brand-money-laundering" unicode="&#xe83d;" d="M501 190c-39 0-71 32-71 71 0 11-9 20-20 20-11 0-19-9-19-20 0-54 39-100 91-109v-32c0-11 9-20 20-20s20 9 20 20v33c51 9 89 54 89 108 0 48-30 91-76 105-2 1-3 1-5 2-10 3-23 7-32 9-1 0-2 0-3 0 0 0 0 0 0 1-2 0-4 0-6 1-5 1-9 1-12 3-28 10-47 37-47 67 0 39 32 71 71 71s71-32 71-71c0-11 9-20 20-20 11 0 19 9 19 20 0 54-38 98-89 108v24c0 10-9 19-20 19s-20-9-20-19v-24c-52-8-91-54-91-108 0-47 29-88 73-104 6-2 12-4 17-5 2 0 4 0 5-1 1 0 2 0 3 0 1 0 1 0 1 0 7-2 20-6 28-8 2-1 3-1 5-2 29-9 49-37 49-68 0-39-32-71-71-71z m-353 455c79 95 190 152 313 163 122 11 240-26 334-104h-51c-11 0-19-9-19-20s8-19 19-19h94c11 0 19 8 19 19v94c0 11-8 19-19 19-11 0-20-8-20-19v-43c-101 84-229 124-361 112-133-12-253-74-339-177-80-95-121-215-117-339 1-10 9-18 20-18 0 0 0 0 1 0 10 0 19 9 18 20-4 114 35 225 108 312z m853-291c0 11-9 20-20 20h0c-11 0-19-9-19-20 1-110-37-217-108-301-77-93-186-151-306-163-119-12-236 22-330 95h42c11 0 19 8 19 19s-8 20-19 20h-94c-11 0-19-9-19-20v-94c0-10 8-19 19-19 11 0 20 9 20 19v51c3-2 4-4 5-5 89-70 197-107 309-107 17 0 34 1 51 2 131 14 249 76 333 177 77 91 118 207 117 326z m-501-363c198 0 359 161 359 359s-161 359-359 359-359-161-359-359 161-359 359-359z m0 679c177 0 320-143 320-320 0-177-143-320-320-320-177 0-320 143-320 320 0 177 143 320 320 320z" horiz-adv-x="1000" />

<glyph glyph-name="brand-monitor" unicode="&#xe83e;" d="M938 780h-875c-35 0-63-28-63-63v-582c0-34 28-62 63-62h338c0 0 0-1 0-1 0-59-47-106-106-106-11 0-20-9-20-20 0-11 9-19 20-19 0 0 1 0 2 0h397c26 0 26 39 0 39-58 0-106 47-106 106 0 0 0 1 0 1h350c34 0 62 28 62 62v582c0 35-28 63-62 63z m-875-39h875c12 0 23-11 23-24v-502h-922v502c0 13 11 24 24 24z m532-775h-201c29 26 46 64 46 106 0 0 0 1 0 1h109c0 0 0-1 0-1 0-42 18-80 46-106z m343 146h-367-153-355c-13 0-24 10-24 23v41h922v-41c0-13-11-23-23-23z" horiz-adv-x="1000" />

<glyph glyph-name="brand-nodes-alt" unicode="&#xe83f;" d="M638-89c-44-16-91-24-138-24-90 0-177 30-247 84 27 27 44 64 44 106 0 81-67 148-149 148s-148-67-148-148 67-149 148-149c27 0 51 7 72 19 79-64 178-99 280-99 52 0 103 9 151 26 10 4 15 15 12 25s-15 16-25 12z m-490 56c-60 0-109 49-109 110s49 109 109 109 110-49 110-109-49-110-110-110z m-73 355c1 0 1 0 2 0 10 0 18 7 19 17 17 151 118 280 258 334 14-68 74-120 146-120 82 0 148 67 148 149s-66 148-148 148c-78 0-142-60-148-136-160-57-275-201-294-370-2-11 6-21 17-22z m425 489c60 0 109-49 109-109s-49-110-109-110c-60 0-109 49-109 110s49 109 109 109z m435-612c7 31 10 63 10 94 0 136-60 263-166 348-9 6-21 5-28-3-6-9-5-21 3-28 97-77 152-193 152-317 0-25-2-51-7-76-15 5-31 8-47 8-82 0-149-67-149-148s67-149 149-149 148 67 148 149c0 50-26 95-65 122z m-83-232c-61 0-110 49-110 110s49 109 110 109 109-49 109-109-49-110-109-110z" horiz-adv-x="1000" />

<glyph glyph-name="brand-nodes" unicode="&#xe840;" d="M887 297c-55 0-100-38-111-90h-40c-36 0-66-29-66-66v-196c0-11 9-20 20-20s19 9 19 20v196c0 15 12 27 27 27h39c7-55 55-97 112-97 62 0 113 51 113 113s-51 113-113 113z m0-187c-41 0-74 33-74 74s33 74 74 74 74-33 74-74-33-74-74-74z m-623 228h-38c-12 51-57 88-111 88-62 0-113-51-113-113s51-113 113-113c58 0 106 43 113 99h36c15 0 27-12 27-27v-327c0-11 9-20 20-20s19 9 19 20v327c0 37-30 66-66 66z m-149-99c-41 0-74 33-74 74s33 74 74 74 75-33 75-74-34-74-75-74z m619 179h41c7-55 55-97 112-97 62 0 113 51 113 113s-51 113-113 113c-55 0-100-38-111-90h-42c-15 0-27 13-27 28v273c0 11-9 20-19 20s-20-9-20-20v-273c0-37 30-67 66-67z m153 90c41 0 74-33 74-74s-33-74-74-74-74 33-74 74 33 74 74 74z m-432 73h-19c-9 53-56 93-112 93-62 0-113-51-113-113s51-113 113-113c56 0 103 40 112 93h19c15 0 27-12 27-27v-569c0-11 9-20 20-20 11 0 20 9 20 20v569c0 37-30 67-67 67z m-131-94c-41 0-74 33-74 74s33 74 74 74 74-33 74-74-33-74-74-74z" horiz-adv-x="1000" />

<glyph glyph-name="brand-non-scalable" unicode="&#xe841;" d="M981 850h-223c-11 0-20-9-20-19s9-20 20-20h203v-203c0-11 9-20 20-20s19 9 19 20v223c0 10-9 19-19 19z m0-738c-11 0-20-9-20-20v-203h-203c-11 0-20-9-20-20s9-19 20-19h223c10 0 19 9 19 19v223c0 11-9 20-19 20z m-961 476c10 0 19 9 19 20v203h203c11 0 20 9 20 20s-9 19-20 19h-222c-11 0-20-9-20-19v-223c0-11 9-20 20-20z m220-699h-203v203c0 11-9 20-19 20s-20-9-20-20v-223c0-10 9-19 20-19h222c11 0 20 9 20 19s-9 20-20 20z m516 233v448c0 3 0 5-1 7 0 36-29 69-80 93-47 22-109 34-174 34s-128-12-175-34c-51-24-80-58-80-95 0-1 0-2 0-3 0-1 0-1 0-2v-448c0-37 29-69 80-93 47-21 109-33 174-33 65 0 127 12 174 33 49 22 77 52 81 86 1 2 1 4 1 7z m-255 543c127 0 215-47 215-90 0-42-88-89-215-89s-216 47-216 89c0 43 89 90 216 90z m216-537c0-2-1-4-1-6 0-20-21-41-58-57-42-19-98-29-158-29-127 0-215 45-215 86v86c12-9 25-17 42-24 46-21 108-33 174-33s127 12 174 33c16 7 31 16 42 25v-81z m0 155c0-2-1-4-1-6 0-41-88-87-215-87s-216 46-216 87v78c12-9 25-17 42-24 46-21 108-33 174-33s127 12 174 33c16 7 31 16 42 25v-73z m0 147c0-2-1-4-1-6 0-41-88-87-215-87s-216 46-216 87v81c12-9 25-17 41-24 47-22 109-34 175-34 65 0 127 12 174 34 17 7 31 16 42 25v-76z" horiz-adv-x="1000" />

<glyph glyph-name="brand-off" unicode="&#xe842;" d="M905 480c-44 97-121 175-218 219-9 5-21 1-26-9-4-10 0-22 10-26 88-41 158-112 199-200 45-99 49-209 11-311-38-102-114-182-212-227-99-45-210-49-311-11-102 38-183 113-228 212-45 99-48 209-10 311 38 101 113 182 212 227 9 5 14 16 9 26-4 10-16 14-26 10-108-50-190-138-232-250s-37-232 12-340c49-109 138-191 249-233 51-19 104-28 156-28 63 0 126 13 185 40 108 49 191 138 232 249 42 112 38 233-12 341z m-405-130c11 0 20 9 20 20v461c0 10-9 19-20 19-11 0-19-9-19-19v-461c0-11 8-20 19-20z" horiz-adv-x="1000" />

<glyph glyph-name="brand-password-stolen" unicode="&#xe843;" d="M854 704c-95 94-220 146-354 146-133 0-259-52-353-146-95-95-147-220-147-354 0-134 52-259 147-354 94-94 220-146 353-146 117 0 228 40 317 113 1 0 3 1 4 2 3 2 5 5 7 8 9 7 17 15 26 23 94 95 146 220 146 354 0 134-52 259-146 354z m-354-815c-103 0-201 34-281 96 9 11 20 20 33 27 0 0 1 0 1 1l127 85c22 13 29 53 29 66v63c0 5-2 9-5 12-7 10-33 47-46 96-1 4-3 8-7 11-9 7-14 17-14 29v14h331v-14c0-15-8-28-21-34-5-2-9-6-11-12-9-28-23-54-39-77-4-5-7-10-10-13-3-3-4-8-4-12v-65c0-16 8-54 31-66l135-84c0-1 1-1 1-1 13-6 24-15 33-25-81-63-179-97-283-97z m-148 653v3c0 0 0 1-1 2 0 7-2 46 25 77 26 29 68 44 127 44 58 0 101-15 126-44 28-31 26-70 25-77 0-1 0-2 0-2v-3h-302z m257-81c0-21-17-38-39-38s-38 17-38 38 17 38 38 38 39-17 39-38z m-131 0c0-21-18-38-39-38s-38 17-38 38 17 38 38 38 39-17 39-38z m348-437c-4-4-9-8-13-12-13 13-27 25-44 33l-135 85c-1 0-1 0-2 0-4 4-10 21-10 32v58c2 3 4 6 7 9 17 25 31 51 42 80 22 14 36 39 36 66v57c0 15-5 31-14 44v68c1 12 3 64-34 106-34 38-86 57-156 57-70 0-123-19-156-57-37-42-36-94-35-106v-68c-9-13-14-29-14-44v-57c0-21 9-41 24-55 13-47 36-83 47-99v-57c0-11-6-28-9-32-1 0-1-1-2-1l-126-85c-16-9-31-22-43-36-5 5-10 9-15 14-87 87-135 203-135 326 0 123 48 239 135 326 87 87 203 135 326 135s239-48 326-135c87-87 135-203 135-326 0-123-48-239-135-326z" horiz-adv-x="1000" />

<glyph glyph-name="brand-password" unicode="&#xe844;" d="M934 850h-868c-36 0-66-30-66-66v-868c0-36 30-66 66-66h868c36 0 66 30 66 66v868c0 36-30 66-66 66z m27-934c0-15-12-27-27-27h-868c-15 0-27 12-27 27v868c0 15 12 27 27 27h868c15 0 27-12 27-27v-868z m-383 270c-32 0-58-26-58-59s26-58 58-58 59 26 59 58-27 59-59 59z m0-78c-11 0-19 9-19 19s8 20 19 20c11 0 20-9 20-20s-9-19-20-19z m-77 238c116 0 210 94 210 210s-94 210-210 210c-116 0-210-94-210-210s94-210 210-210z m0 39c-34 0-66 10-93 28 1 0 1 0 1 0l50 34c14 8 17 28 17 36v25c0 4-2 8-4 12-2 2-12 16-16 33-1 4-4 8-7 11-1 0-1 1-1 2v23c0 0 0 1 0 1 4 4 5 9 5 13v30c0 1 0 2 0 2 0 1-1 13 7 22 8 9 22 13 41 13 20 0 34-4 41-13 9-9 8-21 7-22 0 0 0-1 0-2v-30c0-4 2-9 5-13 1 0 1-1 1-1v-23c0-1-1-2-2-3-5-2-8-6-10-11-4-10-8-19-14-28-1-1-3-3-4-4-2-4-4-8-4-12v-26c0-7 3-28 18-36l53-33c1-1 1-1 1-1-27-17-58-27-92-27z m0 342c94 0 171-77 171-171 0-46-18-87-47-118-4 3-8 6-13 8l-51 32c0 1-1 3-1 4v19c0 0 1 1 1 1 6 9 12 20 16 31 11 7 17 20 17 33v23c0 7-2 14-6 20v23c1 9 1 31-16 51-16 18-39 26-71 26-31 0-55-8-70-26-17-20-17-42-17-51v-23c-3-6-5-13-5-20v-23c0-10 3-20 10-28 5-16 13-29 18-36l0-19c0-1-1-3-1-5l-48-32c-4-2-7-5-11-8-29 31-47 73-47 118 0 94 77 171 171 171z m-79-541c-32 0-59-26-59-59s27-58 59-58 59 26 59 58-27 59-59 59z m0-78c-11 0-20 9-20 19s9 20 20 20c11 0 19-9 19-20s-8-19-19-19z m404 166h-650c-37 0-67-30-67-67v-152c0-36 30-66 67-66h650c37 0 67 30 67 66v152c0 37-30 67-67 67z m28-219c0-15-13-27-28-27h-650c-15 0-28 12-28 27v152c0 16 13 28 28 28h650c15 0 28-12 28-28v-152z m-588 131c-33 0-59-26-59-59s26-58 59-58 58 26 58 58-26 59-58 59z m0-78c-11 0-20 9-20 19s9 20 20 20c10 0 19-9 19-20s-9-19-19-19z m468 78c-32 0-58-26-58-59s26-58 58-58 59 26 59 58-26 59-59 59z m0-78c-10 0-19 9-19 19s9 20 19 20c11 0 20-9 20-20s-9-19-20-19z" horiz-adv-x="1000" />

<glyph glyph-name="brand-plug" unicode="&#xe845;" d="M930 2c-30 5-61-5-82-26l-69-69c-22-22-56-22-78 0-10 10-16 24-16 39 0 14 6 28 16 38l69 69c35 35 37 91 4 128-1 2-15 16-24 25l3 4c13 12 20 29 20 47 0 17-7 34-20 47l-52 52c-1 1-3 2-4 3 13 31 20 64 20 98 0 67-26 130-73 177l-144 144c-2 2-4 4-6 5l30 30c7 7 7 20 0 27-8 8-20 8-28 0l-119-119-123 123c-8 8-20 8-28 0-7-7-7-20 0-27l123-123-119-119-122 123c-8 7-20 7-28 0-8-8-8-20 0-28l123-123-121-121c-8-8-8-20 0-28 3-3 8-5 13-5s10 2 14 5l32 33c2-3 4-5 5-7l144-143c47-48 110-74 177-74 34 0 68 7 98 20 1-1 2-2 3-4l53-52c13-13 30-19 47-19 17 0 34 6 47 19l7 7c8-8 21-20 23-23 19-21 18-54-3-74l-69-69c-17-18-27-41-27-66 0-25 10-49 28-67 18-18 42-27 66-27 24 0 48 9 66 27l43 43c0 0 0 0 0 0l26 26c13 12 31 18 48 15 11-2 21 5 23 16 2 11-5 21-16 23z m-612 306l-144 144c-2 2-2 4-2 5s0 4 2 6l287 287c2 2 5 3 6 3 1 0 3-1 5-3l144-143c40-40 62-93 62-150 0-56-22-109-62-149s-93-62-149-62-109 22-149 62z m330-109l-47 47c15 10 29 21 43 35 13 13 24 27 34 43l48-48c5-5 8-12 8-19 0-8-3-15-8-20l-39-38c-11-11-28-11-39 0z" horiz-adv-x="1000" />

<glyph glyph-name="brand-presentation" unicode="&#xe846;" d="M938 704h-498c-15 83-88 146-176 146-100 0-180-80-180-180 0-58 28-109 70-142h-24c-22 0-41-15-46-37l-83-359c-1-2-1-4-1-6 0-13 11-23 23-23h89l19-231c1-13 11-22 23-22h213c12 0 22 10 23 22l15 228h201v-211h-157c-11 0-19-9-19-20s8-19 19-19h168c2-1 5-2 8-2 3 0 6 1 9 2h169c11 0 20 9 20 19s-9 20-20 20h-158v211h293c34 0 62 28 62 63v478c0 35-28 63-62 63z m-815-34c0 78 63 141 141 141s140-63 140-141-63-140-140-140-141 63-141 140z m229-781h-184l-17 217c-2 20-19 36-39 36h-69l79 341c1 3 4 6 8 6h265l237-127-1-78-199 65c-25 8-50-9-51-35l-29-425z m609 274c0-13-11-24-23-24h-530l12 173 219-72c2 0 4-1 7-1 12 0 23 10 23 23l2 84 157 91c10 5 13 17 8 26-6 10-18 13-27 7l-144-83c-2 2-4 4-6 5l-249 133c-3 2-7 3-11 3h-26c41 32 69 81 70 137h495c12 0 23-11 23-24v-478z" horiz-adv-x="1000" />

<glyph glyph-name="brand-question" unicode="&#xe847;" d="M854 704c-95 94-220 146-354 146s-259-52-354-146-146-220-146-354 52-259 146-354c95-94 220-146 354-146s259 52 354 146 146 220 146 354c0 134-52 259-146 354z m-28-680c-87-87-203-135-326-135-123 0-239 48-326 135-87 87-135 203-135 326s48 239 135 326c87 87 203 135 326 135 123 0 239-48 326-135 87-87 135-203 135-326s-48-239-135-326z m-326 139c-13 0-23-11-23-24v-16c0-12 10-23 23-23 13 0 23 11 23 23v16c0 13-10 24-23 24z m4 437c-39 0-72-13-98-38-27-25-40-58-41-99 0-11 9-20 20-20 0 0 0 0 0 0 10 0 19 9 19 20 1 30 10 53 29 71 18 18 42 27 71 27 29 0 51-9 68-26 16-18 25-42 25-74 0-22-5-41-13-58-9-17-26-38-52-62-34-26-50-64-50-112 0-11 8-20 19-20 11 0 20 9 20 20 0 36 11 63 35 82 1 0 1 1 1 1 31 27 51 51 62 73 11 22 17 48 17 76 0 41-12 75-36 101-24 25-56 38-96 38z" horiz-adv-x="1000" />

<glyph glyph-name="brand-real-time" unicode="&#xe848;" d="M278 553c-8 8-20 8-28 0-8-8-8-20 0-28l233-233c3-2 6-4 9-5 3-2 7-4 11-4 5 0 10 2 14 6l434 434c8 8 8 20 0 28-8 7-20 7-28 0l-421-422-224 224z m671 18c-5 10-17 14-26 9-10-5-14-17-9-26 28-58 44-120 47-184h-64c-11 0-20-9-20-20 0-11 9-19 20-19h64c-5-116-53-224-135-307-82-82-191-130-306-135v64c0 11-9 20-20 20s-19-9-19-20v-64c-116 5-224 53-307 135-82 83-130 191-134 307h64c10 0 19 8 19 19 0 11-9 20-19 20h-64c4 115 52 224 134 306 83 83 192 130 308 135v-64c0-11 9-20 20-20s20 9 20 20v63c85-3 166-31 237-79 9-6 21-3 27 6 6 8 4 21-5 27-82 56-179 86-279 86 0 0 0 0 0 0 0 0 0 0 0 0-1 0-1 0-2 0-134 0-259-52-354-146-94-95-146-220-146-354s52-259 146-354c95-94 220-146 354-146s259 52 354 146c94 95 146 220 146 354 0 78-17 152-51 221z" horiz-adv-x="1000" />

<glyph glyph-name="brand-reshipping" unicode="&#xe849;" d="M118 595c3-4 8-5 13-5s10 1 14 5c8 8 8 20 0 28l-81 81c69 1 133 0 189-2 40-1 100-18 150-62 37-34 82-96 82-200v-26c0-11 9-19 20-19s19 8 19 19v26c0 118-52 190-95 229-49 43-114 71-175 72-54 2-115 3-182 2l73 73c8 8 8 20 0 28-7 7-20 7-27 0l-111-111c-3-3-5-8-5-13s2-11 5-14l111-111z m876-108c-8 8-20 8-28 1l-140-138h-259-130-261l-140 138c-8 7-20 7-27-1-8-7-8-20 0-27l139-137c0 0 0 0 0 0v-426c0-26 21-47 47-47h612c26 0 47 21 47 47v425l140 138c7 7 7 20 0 27z m-546-176h108v-164c0-4-4-8-8-8h-92c-4 0-8 4-8 8v164z m367-414c0-4-4-8-8-8h-612c-4 0-8 4-8 8v414h222v-164c0-26 21-47 47-47h92c26 0 47 21 47 47v164h220v-414z" horiz-adv-x="1000" />

<glyph glyph-name="brand-retail" unicode="&#xe84a;" d="M330 266h433c10 0 19 9 19 19s-9 20-19 20h-433c-11 0-20-9-20-20s9-19 20-19z m670 326c-4 5-10 8-16 8h-819l-37 204c-2 7-7 13-13 15l-89 30c-10 3-21-2-25-12-3-11 2-22 12-25l78-26 133-723c2-10 10-16 20-16h593c10 0 19 8 19 19 0 11-9 20-19 20h-577l-10 52h609c9 0 17 5 19 14l125 422c1 6 0 13-3 18z m-155-415h-602l-71 383h786l-113-383z m-483-178c-41 0-74-34-74-75s33-74 74-74 74 33 74 74-33 75-74 75z m0-110c-19 0-35 16-35 35s16 36 35 36 35-16 35-36-15-35-35-35z m-32 514h433c10 0 19 9 19 19 0 11-9 20-19 20h-433c-11 0-20-9-20-20 0-10 9-19 20-19z m380-404c-41 0-74-34-74-75s33-74 74-74 75 33 75 74-34 75-75 75z m0-110c-19 0-35 16-35 35s16 36 35 36 36-16 36-36-16-35-36-35z" horiz-adv-x="1004" />

<glyph glyph-name="brand-scalable" unicode="&#xe84b;" d="M981 588c10 0 19 9 19 20v212c4 7 2 16-4 22 0 1 0 1-1 1-3 4-9 7-14 7h-223c-11 0-20-9-20-19s9-20 20-20h179l-194-194c-13 20-36 38-68 53-47 22-109 34-174 34s-128-12-175-34c-29-13-50-30-64-48l-205 189h181c11 0 20 9 20 20s-9 19-20 19h-222c-11 0-20-9-20-19v-223c0-11 9-20 20-20s19 9 19 20v170l212-195c-1-2-1-5-1-8 0-1 0-2 0-3 0-1 0-1 0-2v-448c0-1 0-1 0-2l-211-211v183c0 11-9 20-19 20s-20-9-20-20v-223c0-10 9-19 20-19h222c11 0 20 9 20 19s-9 20-20 20h-167l189 190c14-19 36-36 66-50 47-21 109-33 174-33 65 0 127 12 174 33 34 15 58 35 71 56l196-196h-183c-11 0-20-9-20-20s9-19 20-19h223c10 0 19 9 19 19v223c0 11-9 20-19 20s-20-9-20-20v-168l-205 205v441c0 2 0 3 0 4l205 205v-171c0-11 9-20 20-20z m-264-158c0-2-1-4-1-6 0-41-88-87-215-87s-216 46-216 87v81c12-9 25-17 41-24 47-22 109-34 175-34 65 0 127 12 174 34 17 7 31 16 42 25v-76z m-432-75c12-9 25-17 42-24 46-21 108-33 174-33s127 12 174 33c16 7 31 16 42 25v-73c0-2-1-4-1-6 0-41-88-87-215-87s-216 46-216 87v78z m216 310c127 0 215-47 215-90 0-42-88-89-215-89s-216 47-216 89c0 43 89 90 216 90z m157-600c-42-19-98-29-158-29-127 0-215 45-215 86v86c12-9 25-17 42-24 46-21 108-33 174-33s127 12 174 33c16 7 31 16 42 25v-81c0-2-1-4-1-6 0-20-21-41-58-57z" horiz-adv-x="1000" />

<glyph glyph-name="brand-search" unicode="&#xe84c;" d="M973-20l-185 186c-13 12-29 19-47 19-14 0-27-4-38-12l-50 50c60 67 97 155 97 252 0 207-168 375-375 375s-375-168-375-375 168-375 375-375c96 0 184 36 250 96l50-51c-6-11-10-23-10-36 0-18 7-34 19-47l186-185c12-13 29-20 46-20s35 7 47 20l10 10c26 25 26 68 0 93z m-598 159c-185 0-336 151-336 336 0 185 151 336 336 336 185 0 336-151 336-336 0-185-151-336-336-336z m571-225l-10-9c-5-6-12-9-20-9s-14 3-19 9l-185 185c-11 11-11 28 0 39l10 9c5 5 12 8 19 8 7 0 14-3 19-8l185-185c11-11 11-28 1-39z m-555 858c-173 0-313-140-313-313 0-10 9-19 20-19s19 9 19 19c0 151 123 274 274 274 10 0 19 9 19 19s-9 20-19 20z" horiz-adv-x="1000" />

<glyph glyph-name="brand-settings" unicode="&#xe84d;" d="M981 370h-334c-9 72-72 128-147 128-75 0-137-56-147-128h-333c-11 0-20-9-20-20 0-11 9-19 20-19h333c10-73 72-129 147-129 75 0 138 56 147 129h334c10 0 19 8 19 19 0 11-9 20-19 20z m-481-129c-60 0-109 49-109 109 0 60 49 109 109 109 60 0 109-49 109-109 0-60-49-109-109-109z m-352 312c76 0 139 57 148 131h685c10 0 19 9 19 20s-9 19-19 19h-686c-10 72-72 127-147 127-81 0-148-67-148-148s67-149 148-149z m0 258c61 0 110-49 110-109s-49-110-110-110-109 49-109 110 49 109 109 109z m704-664c-76 0-139-57-148-131h-684c-11 0-20-9-20-20s9-19 20-19h685c10-72 72-127 147-127 81 0 148 67 148 148s-67 149-148 149z m0-258c-61 0-110 49-110 109s49 110 110 110 109-49 109-110-49-109-109-109z" horiz-adv-x="1000" />

<glyph glyph-name="brand-shield" unicode="&#xe84e;" d="M643 467l-190-191-95 96c-8 7-20 7-28 0s-8-20 0-28l108-108c4-4 9-6 14-6 4 0 8 1 12 4 1 0 3 2 5 3l202 202c7 8 7 20 0 28-8 7-20 7-28 0z m285 173l0 2c0 7 0 19 0 35 0 16-13 29-28 31-180 18-310 62-386 130l-13 11-13-11c-76-68-206-112-386-130-15-2-28-15-28-31 0-16 0-28 0-35l0-2c-2-74-2-113-1-159 4-157 29-269 81-362 66-121 178-208 340-267l7-2 7 2c162 59 274 146 340 267 52 93 77 205 81 362 1 46 1 85-1 159z m-38-158c-4-150-27-257-76-344-61-111-163-192-313-247-150 55-252 136-313 247-49 87-72 194-76 344-1 45-1 84 1 157l0 2c0 7 0 16 0 29 91 9 170 25 235 48 61 20 113 47 153 80 40-33 92-60 153-80 66-23 144-39 235-48 0-13 0-22 0-29l0-2c2-73 2-112 1-157z" horiz-adv-x="1000" />

<glyph glyph-name="brand-spread" unicode="&#xe84f;" d="M920 428c-37 0-69-25-79-58h-229c-3 14-8 28-16 41l237 237c7-2 14-4 21-4 32 0 59 27 59 59 0 32-27 59-59 59-32 0-58-27-58-59 0-11 2-21 8-30l-234-234c-15 12-32 19-50 23v222c35 9 62 42 62 80 0 45-37 82-82 82-45 0-82-37-82-82 0-38 27-71 63-80v-222c-16-3-30-9-42-17l-237 237c2 7 4 14 4 22 0 32-27 58-59 58-32 0-59-26-59-58s27-59 59-59c11 0 21 3 29 8l234-234c-12-15-19-34-22-53h-228c-9 36-41 62-80 62-45 0-82-37-82-82 0-45 37-82 82-82 39 0 71 27 80 63h229c4-18 12-34 22-48l-233-233c-9 5-20 9-31 9-32 0-59-27-59-59s27-59 59-59c32 0 59 27 59 59 0 7-1 13-4 19l239 239c11-7 23-12 36-15v-230c-35-9-61-41-61-79 0-45 37-82 82-82 45 0 82 37 82 82 0 39-27 72-64 80v228c17 2 33 9 47 18l236-236c-3-8-5-17-5-26 0-32 26-59 58-59 33 0 59 27 59 59s-26 59-59 59c-9 0-17-2-25-6l-236 236c10 14 18 30 21 47h227c8-37 41-66 81-66 45 0 82 37 82 82 0 45-37 82-82 82z m-66 295c11 0 20-9 20-20s-9-20-20-20c-11 0-19 9-19 20s8 20 19 20z m-397 41c0 24 19 43 43 43s43-19 43-43-19-43-43-43-43 19-43 43z m-310-80c-11 0-19 9-19 20s8 19 19 19c11 0 20-9 20-19s-9-20-20-20z m-67-381c-24 0-43 19-43 43s19 43 43 43 43-19 43-43-19-43-43-43z m67-327c-11 0-19 9-19 20 0 11 8 20 19 20 11 0 20-9 20-20 0-11-9-20-20-20z m394-46c0-24-19-43-43-43s-43 19-43 43 19 43 43 43 43-19 43-43z m-41 346c-41 0-74 33-74 74 0 41 33 74 74 74 41 0 74-33 74-74 0-41-33-74-74-74z m372-282c0-11-9-20-20-20-11 0-19 9-19 20 0 11 8 20 19 20 11 0 20-9 20-20z m48 309c-24 0-43 19-43 43s19 43 43 43c24 0 43-19 43-43s-19-43-43-43z" horiz-adv-x="1000" />

<glyph glyph-name="brand-support" unicode="&#xe850;" d="M889 531c-16 180-168 319-350 319h-78c-182 0-334-139-350-319-61-8-109-61-109-124v-117c0-69 56-125 125-125h78c26 0 47 21 47 46v274c0 26-21 47-47 47h-55c17 157 151 279 311 279h78c160 0 294-122 311-279h-53c-26 0-47-21-47-47v-274c0-25 21-46 47-46h48c-3-14-7-27-12-39-31-79-102-143-185-166 0 0-1-1-1-1-13 22-37 37-64 37h-166c-40 0-73-32-73-73s33-73 73-73h166c40 0 72 32 73 72 1 0 2 0 3 0 94 27 175 99 210 189 7 18 12 36 16 54 64 5 115 59 115 125v117c0 64-49 117-111 124z m-676-46v-274c0-4-4-7-8-7h-78c-47 0-86 38-86 86v117c0 47 39 86 86 86h78c4 0 8-4 8-8z m370-596h-166c-19 0-34 15-34 34s15 34 34 34h166c19 0 34-15 34-34s-15-34-34-34z m378 401c0-48-39-86-86-86h-78c-4 0-8 3-8 7v274c0 4 4 8 8 8h78c47 0 86-39 86-86v-117z" horiz-adv-x="1000" />

<glyph glyph-name="brand-tag-broken" unicode="&#xe851;" d="M986 475l-359 359c-8 9-20 14-33 14-12 0-24-5-33-13l-398-397c-9-9-14-21-14-33l1-363c0-25 21-47 46-47l183 1c-16-32-42-60-75-80-45-26-98-33-148-19-50 13-92 46-118 91-5 9-17 12-27 7-9-6-12-17-7-27 31-54 82-93 142-109 20-5 41-8 61-8 40 0 80 11 116 32 45 26 80 66 99 113l138 1c13 0 25 5 34 14l392 398c18 18 18 48 0 66z m-563-301c-4 9-9 19-14 28-6 10-18 13-27 7-9-5-12-17-7-26 5-9 9-17 12-26-3 0-6-1-9-1-37 0-66 30-66 67 0 37 29 67 66 67 37 0 67-30 67-67 0-20-9-37-22-49z m536 262l-393-398c-2-1-4-2-6-2l-125-1c7 33 7 67 0 99 29 19 49 52 49 89 0 58-48 106-106 106s-105-48-105-106c0-58 47-106 105-106 7 0 14 1 20 2 5-28 4-57-4-84l-198 0 0-20v20c-4 0-8 3-8 7l0 363c0 2 1 4 3 5l398 397c2 2 4 2 5 2 2 0 4 0 6-2l359-360c3-3 3-8 0-11z m-244 90c-20 0-39-8-53-22-30-30-30-77 0-107 14-14 33-22 53-22 20 0 39 8 53 22 14 14 22 33 22 53 0 21-8 39-22 54-14 14-33 22-53 22z m26-101c-7-7-16-11-26-11-10 0-19 4-26 11-14 14-14 37 0 51 7 7 16 11 26 11 10 0 19-4 26-11 6-7 10-16 10-26 0-9-4-18-10-25z m-139 209c0 0 0 0 0 0-11 0-20-8-20-19l0-330c0-10 8-19 19-19 0 0 0 0 0 0 11 0 20 9 20 19l0 330c0 11-9 19-19 19z m-115-108c-20 0-39-8-53-22-14-15-22-33-22-54 0-20 8-39 22-53 14-14 33-22 53-22s39 8 54 22c29 30 29 77 0 107-15 14-33 22-54 22z m26-101c-7-7-16-11-26-11s-18 4-25 11c-7 7-11 16-11 25 0 10 4 19 11 26 7 7 16 11 25 11s19-4 26-11c14-14 14-37 0-51z" horiz-adv-x="1000" />

<glyph glyph-name="brand-tag" unicode="&#xe852;" d="M986 405l-431 432c-9 8-21 13-33 13-13 0-25-5-34-13l-474-472c-9-9-14-21-14-34v-434c0-26 21-47 47-47l438 2c12 0 24 5 33 14l468 473c18 19 18 48 0 66z m-28-38l-468-474c-1-1-3-2-6-2l-437-2 0-19 0 19c-4 0-8 4-8 8v434c0 2 1 5 2 6l475 472c2 2 4 2 6 2 1 0 3 0 5-2l431-431c3-3 3-8 0-11z m-689-124c-69 0-124-56-124-124s55-125 124-125 124 56 124 125-56 124-124 124z m0-209c-47 0-85 38-85 85s38 85 85 85 85-39 85-85-39-85-85-85z" horiz-adv-x="1000" />

<glyph glyph-name="brand-target" unicode="&#xe853;" d="M981 370h-71c-5 98-44 187-106 255l40 40h68c11 0 20 8 20 19s-9 20-20 20h-29l29 29h69c10 0 19 9 19 19s-9 20-19 20h-59v59c0 10-9 19-20 19-10 0-19-9-19-19v-72l-29-30v33c0 11-9 20-20 20-11 0-19-9-19-20v-72l-38-37c-69 62-158 102-257 107v71c0 10-9 19-20 19-11 0-19-9-19-19v-71c-211-10-381-179-391-390h-70c-11 0-20-9-20-20 0-11 9-19 20-19h70c10-211 180-381 391-391v-71c0-10 8-19 19-19 11 0 20 9 20 19v71c211 10 380 180 390 391h71c10 0 19 8 19 19 0 11-9 20-19 20z m-481-391c-205 0-371 166-371 371 0 205 166 371 371 371 96 0 183-36 249-96l-58-58c-51 45-118 72-191 72-160 0-289-129-289-289s129-289 289-289 289 129 289 289c0 72-26 138-70 189l58 58c58-65 94-152 94-247 0-205-166-371-371-371z m137 371c0-75-61-137-137-137s-137 62-137 137 62 137 137 137c31 0 60-11 83-28l-95-95c-7-8-7-20 0-28 8-7 20-7 28 0l94 95c17-23 27-51 27-81z m-26 137c-30 24-69 39-111 39-97 0-176-79-176-176 0-97 79-176 176-176 97 0 176 79 176 176 0 41-14 79-38 109l53 52c37-43 59-99 59-161 0-138-112-250-250-250s-250 112-250 250 112 250 250 250c63 0 120-23 164-61l-53-52z" horiz-adv-x="1000" />

<glyph glyph-name="brand-telecommunication" unicode="&#xe854;" d="M216 413c4 0 8 2 11 4 9 6 11 19 5 27-41 56-62 122-62 191 0 67 20 131 58 186 6 9 4 21-5 27-9 6-21 4-27-5-43-61-65-133-65-208 0-77 24-151 69-213 4-6 10-9 16-9z m611 222c0-70-22-138-64-194-7-9-5-21 4-27 3-3 8-4 12-4 6 0 11 2 15 8 47 63 72 138 72 217 0 75-23 147-65 209-6 8-19 11-27 5-9-7-12-19-5-28 38-54 58-119 58-186z m-140-164c3-3 7-4 12-4 5 0 11 3 15 8 36 47 54 103 54 162 0 54-16 107-47 152-6 9-18 11-27 5-9-6-11-18-5-27 26-39 40-84 40-130 0-51-16-99-46-139-7-8-5-20 4-27z m-406 7c3-5 9-8 15-8 4 0 9 1 12 4 9 6 11 18 4 27-29 39-44 86-44 136 0 46 14 91 40 130 7 9 4 21-5 27-8 6-21 4-27-5-31-45-47-98-47-152 0-58 18-113 52-159z m95 46c4 0 8 2 12 4 8 7 10 19 4 28-17 23-26 50-26 79 0 26 7 52 22 74 6 9 4 21-5 27-9 6-21 3-27-6-19-28-30-61-30-95 0-38 12-73 34-103 4-5 10-8 16-8z m233 4c3-3 7-4 11-4 6 0 12 3 16 8 23 30 35 65 35 103 0 34-11 67-30 95-6 9-18 11-27 5-9-6-11-18-5-27 15-21 22-47 22-73 0-29-9-57-26-80-7-8-5-21 4-27z m-74-420l135 90 136-270-271 180z m-35 23l-143 95 142 93 143-93-142-95z m-306-203l135 269 135-89-270-180z m223 444l46-30-91-59 45 89z m83 165l64-128-65-43-64 41 65 130z m-37 99c0 19 16 35 35 35 20 0 36-16 36-35 0-20-16-35-36-35-19 0-35 15-35 35z m166-355l-95 61 48 32 47-93z m244-400l-345 687c26 11 45 37 45 68 0 40-34 74-75 74-40 0-74-34-74-74 0-32 20-58 47-69l-343-684c-1-2-1-3-2-5-2-5-1-12 2-17 4-6 10-9 17-9 3 0 7 1 10 3l345 229 342-227c1-1 3-2 5-2 3-2 6-2 9-2 2 0 5 0 8 2 10 5 14 16 9 26z" horiz-adv-x="1000" />

<glyph glyph-name="brand-time" unicode="&#xe855;" d="M500 848c-276 0-500-224-500-500s224-500 500-500c276 0 500 224 500 500s-224 500-500 500z m0-961c-255 0-461 207-461 461 0 255 206 461 461 461 255 0 461-206 461-461 0-254-206-461-461-461z m22 471v330c0 11-9 19-20 19-11 0-20-8-20-19v-336c0-4 2-8 4-11 1-2 2-5 4-7l162-162c8-7 20-7 28 0s8 20 0 28l-158 158z" horiz-adv-x="1000" />

<glyph glyph-name="brand-trash" unicode="&#xe856;" d="M982 743h-308v60c0 26-21 47-47 47h-258c-26 0-47-21-47-47v-60h-302c-11 0-20-9-20-20s9-19 20-19h89l36-809c1-25 21-45 46-45h620c25 0 45 20 46 45l36 809h89c11 0 20 8 20 19s-9 20-20 20z m-621 60c0 4 4 8 8 8h258c4 0 8-4 8-8v-60h-274v60z m457-907c0-4-3-7-7-7h-620c-4 0-7 3-7 7l-3 61h640l-3-61z m5 100h-644l-31 706h706l-31-706z m-489 104c11 0 20 9 20 20v461c0 10-9 19-20 19s-19-9-19-19v-461c0-11 8-20 19-20z m170 0c11 0 19 9 19 20v461c0 10-8 19-19 19-11 0-20-9-20-19v-461c0-11 9-20 20-20z m176 0c11 0 19 9 19 20v461c0 10-8 19-19 19s-20-9-20-19v-461c0-11 9-20 20-20z" horiz-adv-x="1000" />

<glyph glyph-name="brand-trophy" unicode="&#xe857;" d="M632 350c79 11 147 57 187 121 101 6 181 90 181 192 0 51-41 91-91 91-20 0-39-6-53-17v97c0 9-7 16-16 16h-680c-8 0-15-7-15-16v-97c-15 11-34 17-54 17-50 0-91-40-91-91 0-102 80-186 181-192 40-64 108-110 187-121 32-2 60-29 60-62 0-31-21-56-49-63h-49c-43 0-78-35-78-78v-6c0-15 4-29 12-41h-57c-34 0-62-28-62-62v-172c0-9 7-16 15-16h680c9 0 16 7 16 16v172c0 34-28 62-63 62h-55c8 12 12 26 12 41v6c0 43-35 78-78 78h-51c-28 7-49 32-49 63 0 33 28 60 60 62z m224 253v54c0 2 1 4 1 6 0 29 23 52 52 52 28 0 52-23 52-52 0-73-52-135-122-149 11 27 17 57 17 89z m-817 60c0 29 23 52 52 52 29 0 52-23 52-52 0-2 1-5 2-7v-53c0-32 5-62 16-90-70 15-122 77-122 150z m777-625v-149h-632v149c0 12 10 23 23 23h586c13 0 23-11 23-23z m-105 109v-6c0-22-18-39-39-39h-342c-21 0-39 17-39 39v6c0 21 18 39 39 39h342c21 0 39-18 39-39z m-178 141c0-24 8-46 21-63h-108c13 17 21 39 21 63 0 53-42 97-95 101-108 16-188 106-188 214v208h632v-208c0-108-80-198-188-214-52-4-95-48-95-101z" horiz-adv-x="1000" />

<glyph glyph-name="brand-unlock" unicode="&#xe858;" d="M787 350h-35c0 91 1 172 1 243-1 69-27 134-75 182-47 48-110 74-176 75-63 1-122-21-167-60-48-42-76-100-83-168-1-11 7-20 18-21 10-1 20 7 21 17 6 58 30 108 69 142 38 34 88 52 141 51 56-1 109-23 149-63 41-41 63-96 64-155 0-71-1-152-1-243h-500c-37 0-66-30-66-66v-368c0-36 29-66 66-66h574c37 0 67 30 67 66v368c0 36-30 66-67 66z m28-434c0-15-13-27-28-27h-574c-15 0-27 12-27 27v41h629v-41z m0 80h-629v288c0 15 12 27 27 27h574c15 0 28-12 28-27v-288z m-315 272c-34 0-62-28-62-62v-90c0-35 28-63 62-63 35 0 63 28 63 63v90c0 34-28 62-63 62z m23-152c0-13-10-24-23-24-13 0-23 11-23 24v90c0 12 10 23 23 23 13 0 23-11 23-23v-90z" horiz-adv-x="1000" />

<glyph glyph-name="brand-upload" unicode="&#xe859;" d="M301 604l180 179v-662c0-11 8-19 19-19 11 0 20 8 20 19v662l179-179c4-4 9-6 14-6s10 2 14 6c7 7 7 20 0 27l-213 213c-8 8-20 8-28 0l-212-213c-8-7-8-20 0-27 7-8 20-8 27 0z m648-254h-225c-11 0-19-9-19-19s8-20 19-20h225c7 0 12-5 12-12v-398c0-7-5-12-12-12h-898c-7 0-12 5-12 12v398c0 7 5 12 12 12h224c10 0 19 9 19 20s-9 19-19 19h-224c-28 0-51-23-51-51v-398c0-28 23-51 51-51h898c28 0 51 23 51 51v398c0 28-23 51-51 51z" horiz-adv-x="1000" />

</font>
</defs>
</svg>
