<?xml version="1.0" encoding="utf-8"?>
<!-- Generator: Adobe Illustrator 16.0.0, SVG Export Plug-In . SVG Version: 6.00 Build 0)  -->
<!DOCTYPE svg PUBLIC "-//W3C//DTD SVG 1.1//EN" "http://www.w3.org/Graphics/SVG/1.1/DTD/svg11.dtd">
<svg version="1.1" id="Layer_1" xmlns="http://www.w3.org/2000/svg" xmlns:xlink="http://www.w3.org/1999/xlink" x="0px" y="0px"
	 width="90px" height="90px" viewBox="-4.514 113.029 90 90" enable-background="new -4.514 113.029 90 90" xml:space="preserve">
<g>
	<g>
		
			<linearGradient id="SVGID_1_" gradientUnits="userSpaceOnUse" x1="53.3755" y1="-247.0652" x2="71.1395" y2="-227.8057" gradientTransform="matrix(1 0 0 -1 -50 -77.9419)">
			<stop  offset="0" style="stop-color:#FF0097"/>
			<stop  offset="1" style="stop-color:#FFC516"/>
		</linearGradient>
		<path fill="url(#SVGID_1_)" d="M21.675,149.68c0.067-0.109,0.134-0.22,0.192-0.334c0.035-0.06,0.074-0.119,0.106-0.183
			c0.036-0.062,0.074-0.121,0.107-0.183c0.035-0.06,0.073-0.123,0.105-0.184c0.036-0.061,0.074-0.121,0.108-0.182
			c0.036-0.062,0.073-0.123,0.106-0.184c0.036-0.061,0.073-0.12,0.106-0.185c0.036-0.06,0.073-0.12,0.107-0.182
			c0.037-0.062,0.072-0.12,0.107-0.183c0.036-0.06,0.072-0.12,0.106-0.183c0.037-0.061,0.073-0.12,0.106-0.183
			c0.038-0.06,0.073-0.12,0.106-0.182c0.038-0.06,0.072-0.119,0.107-0.181c0.039-0.062,0.072-0.121,0.108-0.182
			c0.038-0.061,0.07-0.121,0.105-0.182c0.038-0.059,0.071-0.121,0.107-0.181c0.038-0.062,0.071-0.121,0.107-0.182
			c0.038-0.059,0.071-0.122,0.107-0.181c0.038-0.059,0.07-0.119,0.106-0.18c0.04-0.061,0.072-0.123,0.109-0.184
			c0.075-0.115,0.14-0.23,0.207-0.348c0.073-0.116,0.148-0.232,0.213-0.353c0.039-0.065,0.083-0.131,0.119-0.195
			c0.036-0.062,0.077-0.123,0.109-0.186c0.036-0.06,0.077-0.12,0.111-0.184c0.036-0.062,0.076-0.121,0.111-0.184
			c0.037-0.06,0.076-0.122,0.11-0.183c0.037-0.062,0.077-0.121,0.111-0.185c0.037-0.06,0.076-0.121,0.111-0.182
			c0.037-0.062,0.074-0.122,0.109-0.184c0.038-0.061,0.076-0.121,0.111-0.182c0.037-0.062,0.075-0.123,0.111-0.185
			c0.037-0.06,0.075-0.121,0.109-0.183c0.038-0.061,0.075-0.121,0.112-0.183c0.038-0.062,0.075-0.122,0.109-0.183
			c0.038-0.061,0.075-0.12,0.111-0.184c0.033-0.051,0.064-0.102,0.097-0.156c0.046-0.073,0.09-0.145,0.134-0.22
			c0.04-0.062,0.078-0.124,0.115-0.187c0.039-0.061,0.076-0.124,0.114-0.187c0.039-0.062,0.076-0.124,0.114-0.187
			c0.039-0.063,0.076-0.125,0.113-0.188c0.04-0.06,0.077-0.123,0.114-0.186c0.047-0.073,0.091-0.147,0.135-0.222
			c0.062-0.096,0.123-0.195,0.181-0.295c0.039-0.062,0.079-0.123,0.116-0.188c1.887-3.044,1.507-7.093-1.142-9.723
			c-3.081-3.065-8.064-3.051-11.128,0.031c-1.5,1.509-2.26,3.471-2.287,5.443c-0.002,0.032-0.001,0.067-0.002,0.1
			c0,0.01-0.001,0.021-0.001,0.029c-0.001,0.034-0.001,0.071-0.002,0.108c-0.003,0.079-0.004,0.157-0.005,0.236
			c-0.002,0.079-0.003,0.159-0.004,0.238c-0.003,0.078-0.004,0.158-0.005,0.237c-0.003,0.08-0.004,0.159-0.005,0.238
			c-0.003,0.079-0.005,0.158-0.005,0.236c-0.004,0.08-0.005,0.159-0.006,0.238c-0.003,0.079-0.005,0.158-0.005,0.235
			c-0.004,0.103-0.006,0.203-0.006,0.307c-0.004,0.073-0.001,0.146-0.002,0.218c-0.005,0.083-0.004,0.165-0.006,0.249
			c-0.005,0.083-0.004,0.165-0.006,0.248c-0.005,0.083-0.005,0.166-0.007,0.249c-0.005,0.081-0.005,0.162-0.006,0.246
			c-0.005,0.082-0.006,0.165-0.007,0.248c-0.005,0.083-0.006,0.164-0.007,0.247c-0.003,0.082-0.005,0.165-0.006,0.247
			c-0.004,0.082-0.006,0.165-0.007,0.247c-0.004,0.08-0.006,0.162-0.007,0.245c-0.004,0.082-0.007,0.164-0.007,0.247
			c-0.003,0.082-0.007,0.163-0.007,0.246c-0.003,0.082-0.007,0.164-0.007,0.246c-0.003,0.082-0.007,0.164-0.007,0.246
			c-0.003,0.082-0.008,0.162-0.008,0.244c-0.002,0.082-0.008,0.164-0.007,0.246c-0.003,0.082-0.009,0.162-0.008,0.244
			c-0.002,0.054-0.007,0.109-0.007,0.163c0,0.013,0,0.024,0,0.036c0,0.012,0,0.022,0,0.033c-0.004,0.057-0.003,0.113-0.004,0.17
			c-0.007,0.082-0.006,0.166-0.009,0.249c-0.006,0.083-0.006,0.164-0.009,0.247c-0.006,0.083-0.006,0.167-0.009,0.249
			c-0.006,0.083-0.007,0.166-0.008,0.249c-0.006,0.082-0.007,0.166-0.01,0.248c-0.005,0.082-0.008,0.164-0.009,0.247
			c-0.005,0.081-0.008,0.163-0.01,0.246c-0.005,0.083-0.008,0.164-0.009,0.247c-0.005,0.083-0.009,0.165-0.01,0.248
			c-0.005,0.082-0.01,0.164-0.01,0.246c-0.005,0.082-0.011,0.164-0.011,0.246c-0.004,0.081-0.01,0.161-0.01,0.244
			c-0.004,0.081-0.011,0.16-0.011,0.241c-0.008,0.083-0.008,0.165-0.011,0.247c-0.008,0.083-0.009,0.167-0.012,0.25
			c-0.006,0.082-0.008,0.165-0.011,0.248c-0.007,0.083-0.01,0.164-0.013,0.247c-0.006,0.082-0.01,0.164-0.012,0.247
			c-0.006,0.082-0.01,0.165-0.012,0.247c-0.007,0.082-0.012,0.164-0.013,0.246c-0.007,0.082-0.013,0.163-0.014,0.245
			c-0.005,0.082-0.012,0.164-0.013,0.243c-0.006,0.082-0.014,0.163-0.015,0.244c-0.001,0.02-0.002,0.038-0.003,0.059
			c-0.007,0.06-0.008,0.118-0.011,0.178c0,0.002,0,0.006,0,0.009c0,0.021-0.002,0.042-0.003,0.061
			c-0.009,0.083-0.011,0.164-0.015,0.247c-0.009,0.082-0.012,0.165-0.016,0.247c-0.006,0.082-0.012,0.164-0.015,0.246
			c-0.008,0.081-0.013,0.163-0.016,0.244c-0.008,0.082-0.014,0.162-0.017,0.243c-0.007,0.081-0.015,0.161-0.017,0.242
			c-0.007,0.081-0.016,0.162-0.017,0.242c-0.004,0.036-0.006,0.069-0.008,0.104c-0.011,0.082-0.014,0.164-0.019,0.245
			c-0.01,0.082-0.013,0.164-0.017,0.243c-0.01,0.081-0.016,0.162-0.02,0.243c-0.009,0.08-0.015,0.161-0.019,0.242
			c-0.01,0.08-0.018,0.161-0.021,0.241c-0.009,0.08-0.018,0.16-0.021,0.238c-0.005,0.045-0.009,0.092-0.013,0.136
			c-0.011,0.082-0.016,0.162-0.02,0.244c-0.011,0.08-0.017,0.159-0.022,0.239c-0.011,0.081-0.017,0.161-0.021,0.24
			c-0.011,0.08-0.02,0.159-0.024,0.237c-0.01,0.078-0.02,0.157-0.023,0.235c-0.007,0.054-0.014,0.106-0.019,0.161
			c-0.011,0.08-0.017,0.159-0.023,0.238c-0.013,0.079-0.019,0.157-0.025,0.234c-0.012,0.078-0.021,0.156-0.027,0.235
			c-0.011,0.077-0.021,0.155-0.027,0.23c-0.012,0.077-0.023,0.154-0.03,0.23c-0.009,0.062-0.016,0.121-0.021,0.181
			c-0.003,0.02-0.007,0.035-0.01,0.053c-0.009,0.062-0.013,0.119-0.019,0.179c-0.006,0.039-0.015,0.073-0.02,0.112
			c-0.005,0.038-0.006,0.078-0.01,0.117c-0.01,0.057-0.022,0.114-0.028,0.172c-0.003,0.021-0.002,0.036-0.004,0.057
			c-0.012,0.062-0.022,0.13-0.029,0.195c-0.015,0.074-0.023,0.151-0.032,0.228c-0.014,0.073-0.024,0.148-0.033,0.224
			c-0.014,0.071-0.026,0.146-0.036,0.222c-0.015,0.072-0.028,0.144-0.038,0.219c-0.015,0.071-0.024,0.146-0.033,0.221
			c-0.017,0.071-0.027,0.144-0.037,0.218c-0.017,0.071-0.029,0.145-0.04,0.217c-0.018,0.076-0.033,0.152-0.045,0.231
			c-0.016,0.07-0.026,0.143-0.038,0.215c-0.016,0.069-0.029,0.141-0.041,0.211c-0.017,0.068-0.032,0.137-0.044,0.207
			c-0.02,0.08-0.036,0.162-0.049,0.245c-0.018,0.065-0.031,0.136-0.043,0.206c-0.019,0.066-0.033,0.134-0.047,0.202
			c-0.022,0.08-0.041,0.16-0.057,0.243c-0.018,0.068-0.032,0.138-0.045,0.206c-0.02,0.065-0.036,0.131-0.049,0.199
			c-0.023,0.077-0.044,0.155-0.06,0.234c-0.021,0.07-0.038,0.142-0.053,0.214c-0.021,0.062-0.037,0.128-0.052,0.193
			c-0.024,0.075-0.045,0.151-0.062,0.229c-0.023,0.071-0.042,0.143-0.059,0.217c-0.02,0.063-0.039,0.128-0.055,0.191
			c-0.026,0.074-0.049,0.15-0.068,0.229c-0.024,0.07-0.044,0.141-0.062,0.214c0.002,0.07-0.018,0.134-0.035,0.198
			c-0.027,0.075-0.053,0.15-0.073,0.228c-0.025,0.069-0.048,0.141-0.067,0.213c-0.023,0.062-0.044,0.126-0.063,0.189
			c-0.028,0.074-0.054,0.147-0.076,0.224c-0.027,0.07-0.051,0.143-0.073,0.215c-0.024,0.063-0.048,0.128-0.067,0.191
			c-0.028,0.069-0.056,0.142-0.078,0.213c-0.03,0.073-0.057,0.146-0.08,0.223c-0.025,0.062-0.05,0.129-0.072,0.194
			c-0.028,0.062-0.056,0.129-0.077,0.196c-0.034,0.075-0.063,0.152-0.09,0.231c-0.028,0.064-0.054,0.131-0.077,0.197
			c-0.028,0.065-0.056,0.132-0.081,0.199c-0.031,0.07-0.062,0.142-0.089,0.213c-0.032,0.068-0.059,0.14-0.084,0.209
			c-0.032,0.065-0.06,0.134-0.084,0.2c-0.031,0.069-0.062,0.138-0.088,0.205c-0.033,0.067-0.064,0.137-0.091,0.205
			c-0.033,0.067-0.061,0.137-0.088,0.204c-0.033,0.069-0.062,0.139-0.092,0.209c-0.033,0.066-0.065,0.137-0.094,0.206
			c-0.031,0.06-0.061,0.122-0.087,0.184c0,0.002,0,0.002-0.001,0.002c-0.003,0.009-0.007,0.014-0.01,0.021
			c-0.03,0.062-0.057,0.124-0.083,0.186c-0.035,0.068-0.065,0.14-0.096,0.209c-0.035,0.069-0.068,0.14-0.1,0.211
			c-0.036,0.069-0.071,0.141-0.101,0.211c-0.026,0.053-0.054,0.105-0.077,0.159c-0.003,0.006-0.006,0.01-0.009,0.016
			c-0.035,0.063-0.062,0.13-0.092,0.195c-0.012,0.021-0.025,0.04-0.035,0.061c-0.026,0.05-0.045,0.101-0.067,0.148
			c-0.02,0.038-0.042,0.071-0.06,0.109c-0.017,0.033-0.028,0.069-0.044,0.104c-0.027,0.053-0.059,0.101-0.084,0.155
			c-0.009,0.019-0.015,0.038-0.023,0.058c-0.035,0.065-0.072,0.131-0.104,0.199c-0.002,0.005-0.003,0.01-0.004,0.015
			c-0.024,0.043-0.046,0.09-0.068,0.134c-0.038,0.068-0.072,0.141-0.106,0.215c-0.039,0.067-0.075,0.14-0.11,0.213
			c-0.039,0.069-0.075,0.141-0.11,0.214c-0.039,0.07-0.078,0.142-0.112,0.214c-0.04,0.07-0.078,0.142-0.113,0.216
			c-0.021,0.038-0.04,0.074-0.06,0.111c-0.04,0.068-0.075,0.143-0.112,0.214c-0.04,0.067-0.077,0.141-0.112,0.213
			c-0.04,0.072-0.078,0.144-0.114,0.216c-0.041,0.07-0.08,0.143-0.116,0.216c-0.041,0.069-0.081,0.141-0.116,0.215
			c-0.041,0.071-0.083,0.142-0.119,0.216c-0.016,0.028-0.03,0.057-0.045,0.082c-0.008,0.014-0.013,0.025-0.02,0.038
			c-0.018,0.032-0.037,0.064-0.054,0.098c-0.015,0.024-0.027,0.052-0.042,0.076c-0.042,0.07-0.079,0.145-0.117,0.216
			c-0.042,0.068-0.08,0.142-0.118,0.214c-0.042,0.07-0.081,0.142-0.119,0.214c-0.042,0.07-0.082,0.143-0.12,0.216
			c-0.041,0.069-0.083,0.142-0.12,0.217c-0.042,0.07-0.084,0.141-0.122,0.215c-0.042,0.071-0.084,0.143-0.122,0.218
			c-0.042,0.07-0.086,0.142-0.123,0.217c-0.007,0.011-0.015,0.023-0.02,0.035c-0.044,0.068-0.082,0.142-0.122,0.213
			c-0.043,0.069-0.081,0.143-0.121,0.213c-0.044,0.069-0.083,0.143-0.122,0.214c-0.044,0.068-0.083,0.142-0.123,0.215
			c-0.043,0.071-0.084,0.142-0.124,0.215c-0.041,0.07-0.083,0.141-0.122,0.213c-0.043,0.071-0.085,0.143-0.125,0.216
			c-0.043,0.071-0.086,0.142-0.125,0.215c-0.043,0.071-0.086,0.144-0.125,0.217c-0.043,0.072-0.086,0.143-0.125,0.217
			c-0.041,0.067-0.084,0.134-0.121,0.203c-0.042,0.063-0.077,0.133-0.116,0.202c-0.045,0.067-0.083,0.141-0.125,0.212
			c-0.044,0.068-0.084,0.141-0.125,0.212c-0.044,0.067-0.084,0.141-0.125,0.211c-0.043,0.069-0.084,0.142-0.125,0.215
			c-0.044,0.069-0.085,0.142-0.126,0.213c-0.044,0.069-0.086,0.14-0.127,0.212c-0.043,0.07-0.085,0.143-0.125,0.213
			c-0.043,0.07-0.086,0.143-0.126,0.214c-0.044,0.071-0.087,0.143-0.128,0.215c-0.042,0.071-0.086,0.141-0.126,0.214
			c-0.043,0.07-0.087,0.142-0.127,0.214c-0.043,0.07-0.089,0.141-0.127,0.214c-0.043,0.071-0.089,0.143-0.129,0.217
			c-0.553,0.922-0.876,2.008-0.876,3.17c0,3.46,2.804,6.264,6.264,6.264s6.265-2.804,6.265-6.264c0-0.014-0.003-0.024-0.003-0.039
			c0.002-0.054,0.01-0.107,0.01-0.162c0-0.018-0.002-0.031-0.003-0.048c0.002-0.053,0.01-0.102,0.01-0.154
			c0.001-0.02-0.002-0.038-0.002-0.058c0.002-0.048,0.009-0.095,0.009-0.145c0.001-0.02-0.002-0.042-0.002-0.064
			c0.002-0.044,0.009-0.091,0.009-0.136c0-0.025-0.002-0.049-0.002-0.074c0.001-0.045,0.008-0.084,0.009-0.126
			c0.001-0.029-0.003-0.059-0.002-0.086c0.002-0.04,0.008-0.077,0.009-0.117c0.001-0.028-0.002-0.061-0.002-0.094
			c0.002-0.035,0.008-0.071,0.01-0.106c0.001-0.035-0.003-0.068-0.002-0.104c0.002-0.031,0.008-0.063,0.009-0.097
			c0.002-0.038-0.002-0.076-0.001-0.114c0.002-0.03,0.007-0.058,0.009-0.087c0.001-0.041-0.002-0.083-0.001-0.125
			c0.001-0.025,0.005-0.052,0.007-0.075c0.002-0.046-0.001-0.091,0-0.138c0.001-0.021,0.006-0.043,0.007-0.064
			c0.003-0.05,0-0.099,0.001-0.146c0.001-0.02,0.005-0.035,0.006-0.055c0.004-0.054,0-0.104,0.002-0.156
			c0.001-0.017,0.005-0.03,0.006-0.046c0.004-0.057,0-0.11,0.003-0.166c0.001-0.013,0.003-0.023,0.004-0.034
			c0.005-0.061,0.002-0.119,0.004-0.182c0.001-0.008,0.002-0.013,0.002-0.02c0.006-0.065,0.003-0.127,0.006-0.191
			c0-0.003,0.001-0.007,0.002-0.01c0.007-0.076,0.005-0.15,0.008-0.225c0.012-0.133,0.015-0.262,0.017-0.395
			c0.006-0.105,0.015-0.215,0.015-0.321c0.003-0.069,0.01-0.139,0.01-0.206c0.004-0.069,0.01-0.141,0.011-0.208
			c0.003-0.069,0.008-0.14,0.009-0.209c0.004-0.07,0.01-0.14,0.011-0.208c0.004-0.07,0.009-0.14,0.011-0.209
			c0.004-0.069,0.009-0.14,0.011-0.208c0.004-0.07,0.008-0.142,0.01-0.211c0.006-0.069,0.009-0.141,0.012-0.208
			c0.006-0.07,0.009-0.142,0.012-0.211c0.006-0.068,0.008-0.14,0.01-0.211c0.008-0.069,0.01-0.14,0.013-0.21
			c0.008-0.07,0.009-0.141,0.013-0.211c0.007-0.068,0.009-0.14,0.012-0.209c0.01-0.096,0.013-0.188,0.017-0.283
			c0.013-0.121,0.022-0.243,0.023-0.363c0.005-0.069,0.013-0.139,0.014-0.206c0.006-0.068,0.013-0.139,0.015-0.208
			c0.006-0.068,0.011-0.139,0.013-0.207c0.007-0.068,0.013-0.139,0.016-0.207c0.007-0.069,0.013-0.139,0.016-0.209
			c0.006-0.069,0.011-0.139,0.015-0.208c0.008-0.069,0.013-0.139,0.016-0.208c0.008-0.07,0.012-0.14,0.016-0.208
			c0.009-0.071,0.013-0.142,0.018-0.211c0.01-0.069,0.013-0.141,0.017-0.21c0.016-0.11,0.023-0.22,0.029-0.331
			c0.008-0.084,0.018-0.168,0.021-0.25c0.007-0.07,0.016-0.14,0.019-0.207c0.007-0.069,0.015-0.138,0.019-0.206
			c0.009-0.069,0.017-0.138,0.021-0.207c0.009-0.069,0.016-0.141,0.02-0.208c0.009-0.068,0.016-0.139,0.021-0.207
			c0.01-0.069,0.017-0.139,0.022-0.209c0.01-0.068,0.017-0.14,0.021-0.209c0.017-0.096,0.026-0.192,0.033-0.291
			c0.012-0.084,0.022-0.168,0.028-0.251c0.01-0.068,0.019-0.137,0.023-0.205c0.011-0.069,0.021-0.139,0.026-0.206
			c0.01-0.068,0.019-0.138,0.025-0.207c0.012-0.068,0.02-0.139,0.026-0.206c0.013-0.069,0.021-0.139,0.028-0.208
			c0.013-0.068,0.02-0.138,0.029-0.208c0.02-0.101,0.034-0.205,0.044-0.308c0.011-0.069,0.022-0.138,0.029-0.205
			c0.013-0.067,0.022-0.137,0.03-0.204c0.013-0.068,0.023-0.138,0.031-0.208c0.015-0.068,0.025-0.137,0.033-0.205
			c0.016-0.067,0.026-0.137,0.035-0.206c0.019-0.081,0.032-0.164,0.043-0.246c0.019-0.083,0.034-0.167,0.044-0.249
			c0.015-0.067,0.028-0.136,0.037-0.204c0.016-0.067,0.029-0.137,0.039-0.205c0.017-0.069,0.029-0.138,0.04-0.205
			c0.017-0.067,0.029-0.136,0.042-0.204c0.021-0.083,0.038-0.166,0.052-0.25c0.02-0.077,0.037-0.153,0.05-0.231
			c0.017-0.066,0.032-0.135,0.044-0.203c0.019-0.066,0.033-0.137,0.047-0.205c0.019-0.066,0.034-0.134,0.048-0.202
			c0.019-0.065,0.035-0.134,0.05-0.202c0.026-0.089,0.049-0.179,0.066-0.27c0.02-0.065,0.037-0.134,0.052-0.2
			c0.02-0.066,0.038-0.137,0.053-0.203c0.021-0.066,0.038-0.135,0.055-0.201c0.021-0.064,0.04-0.133,0.055-0.199
			c0.029-0.084,0.054-0.17,0.073-0.257c0.023-0.068,0.044-0.139,0.061-0.209c0.022-0.066,0.043-0.134,0.06-0.201
			c0.023-0.064,0.044-0.132,0.062-0.198c0.023-0.064,0.043-0.134,0.062-0.199c0.025-0.067,0.048-0.138,0.067-0.208
			c0.033-0.083,0.061-0.168,0.083-0.254c0.025-0.064,0.048-0.13,0.067-0.196c0.025-0.063,0.048-0.13,0.067-0.198
			c0.025-0.063,0.048-0.13,0.069-0.195c0.026-0.063,0.05-0.129,0.071-0.195c0.036-0.085,0.069-0.175,0.098-0.265
			c0.026-0.062,0.05-0.128,0.072-0.197c0.026-0.062,0.052-0.127,0.074-0.191c0.027-0.063,0.052-0.129,0.075-0.195
			c0.028-0.063,0.053-0.127,0.077-0.192c0.028-0.062,0.054-0.127,0.077-0.193c0.041-0.086,0.079-0.178,0.111-0.27
			c0.027-0.062,0.055-0.126,0.079-0.194c0.028-0.062,0.057-0.125,0.081-0.189c0.028-0.062,0.057-0.126,0.082-0.191
			c0.03-0.062,0.057-0.127,0.082-0.19c0.031-0.062,0.059-0.124,0.084-0.189c0.038-0.075,0.071-0.153,0.104-0.232
			c0.039-0.079,0.076-0.157,0.108-0.24c0.03-0.061,0.06-0.125,0.087-0.188c0.03-0.062,0.06-0.124,0.086-0.191
			c0.031-0.06,0.061-0.124,0.088-0.186c0.031-0.062,0.06-0.126,0.089-0.188c0.032-0.061,0.06-0.123,0.089-0.186
			c0.033-0.062,0.061-0.125,0.09-0.187c0.055-0.099,0.102-0.196,0.146-0.303c0.032-0.06,0.064-0.122,0.092-0.188
			c0.031-0.062,0.063-0.123,0.093-0.187c0.032-0.059,0.063-0.123,0.093-0.186c0.032-0.061,0.063-0.123,0.094-0.186
			c0.033-0.062,0.062-0.124,0.094-0.187c0.033-0.06,0.064-0.12,0.095-0.183c0.033-0.061,0.063-0.122,0.094-0.184
			c0.039-0.066,0.073-0.139,0.108-0.21c0.056-0.099,0.11-0.2,0.158-0.306c0.034-0.062,0.068-0.121,0.098-0.186
			c0.034-0.06,0.068-0.123,0.098-0.187c0.033-0.06,0.068-0.119,0.099-0.182c0.034-0.062,0.067-0.122,0.098-0.186
			c0.034-0.06,0.067-0.12,0.1-0.184c0.034-0.061,0.066-0.12,0.099-0.182c0.034-0.059,0.065-0.122,0.099-0.184
			c0.035-0.06,0.066-0.12,0.099-0.182c0.035-0.061,0.066-0.122,0.099-0.183c0.042-0.067,0.078-0.142,0.117-0.212
			c0.066-0.109,0.129-0.222,0.186-0.34c0.034-0.06,0.071-0.116,0.102-0.181c0.002-0.005,0.002-0.008,0.005-0.014
			c0.029-0.054,0.061-0.102,0.089-0.155c0.005-0.01,0.008-0.021,0.014-0.029c0.026-0.047,0.058-0.092,0.083-0.141
			c0.008-0.016,0.013-0.029,0.02-0.045c0.024-0.042,0.053-0.083,0.075-0.124c0.011-0.02,0.018-0.039,0.027-0.058
			c0.021-0.039,0.047-0.073,0.068-0.113c0.013-0.022,0.021-0.047,0.034-0.071c0.02-0.031,0.042-0.062,0.062-0.099
			c0.015-0.026,0.025-0.057,0.04-0.084c0.018-0.028,0.037-0.058,0.055-0.084c0.019-0.033,0.031-0.067,0.049-0.098
			c0.015-0.025,0.032-0.049,0.048-0.072c0.02-0.036,0.036-0.073,0.056-0.11c0.013-0.021,0.026-0.038,0.039-0.061
			c0.023-0.039,0.042-0.081,0.063-0.121c0.011-0.017,0.023-0.031,0.033-0.049c0.026-0.043,0.046-0.09,0.071-0.133
			c0.008-0.013,0.017-0.024,0.024-0.038c0.028-0.046,0.052-0.094,0.078-0.144c0.006-0.009,0.013-0.017,0.018-0.022
			c0.031-0.052,0.057-0.104,0.086-0.155c0.003-0.005,0.007-0.009,0.01-0.015c0.034-0.056,0.062-0.112,0.094-0.167
			c0.001-0.001,0.002-0.002,0.003-0.003C21.57,149.875,21.621,149.779,21.675,149.68"/>
		
			<linearGradient id="SVGID_2_" gradientUnits="userSpaceOnUse" x1="91.7451" y1="-249.0481" x2="68.7361" y2="-221.7852" gradientTransform="matrix(1 0 0 -1 -50 -77.9419)">
			<stop  offset="0" style="stop-color:#FF7300"/>
			<stop  offset="1" style="stop-color:#FFC516"/>
		</linearGradient>
		<path fill="url(#SVGID_2_)" d="M44.864,175.961c-0.111-0.152-0.226-0.3-0.348-0.442c-0.111-0.152-0.23-0.3-0.353-0.443
			c-0.109-0.15-0.225-0.297-0.346-0.438c-0.108-0.149-0.223-0.294-0.342-0.433c-0.105-0.148-0.217-0.291-0.335-0.432
			c-0.103-0.146-0.213-0.288-0.329-0.425c-0.107-0.156-0.223-0.306-0.345-0.447c-0.113-0.166-0.236-0.324-0.366-0.476
			c-0.109-0.157-0.224-0.31-0.35-0.455c-0.1-0.144-0.205-0.281-0.318-0.416c-0.096-0.142-0.199-0.277-0.309-0.409
			c-0.107-0.163-0.226-0.315-0.351-0.466c-0.109-0.165-0.228-0.323-0.354-0.474c-0.104-0.157-0.216-0.308-0.337-0.451
			c-0.089-0.139-0.186-0.269-0.288-0.394c-0.104-0.167-0.224-0.323-0.35-0.473c-0.103-0.166-0.217-0.323-0.341-0.472
			c-0.093-0.146-0.191-0.286-0.299-0.419c-0.1-0.164-0.211-0.315-0.33-0.462c-0.099-0.165-0.208-0.321-0.328-0.467
			c-0.092-0.153-0.19-0.297-0.3-0.433c-0.095-0.166-0.203-0.32-0.32-0.465c-0.093-0.164-0.193-0.319-0.306-0.464
			c-0.09-0.16-0.191-0.309-0.303-0.45c-0.02-0.041-0.039-0.082-0.063-0.122c-0.069-0.116-0.146-0.227-0.227-0.332
			c-0.049-0.093-0.1-0.184-0.158-0.273c-0.044-0.066-0.092-0.129-0.14-0.191c-0.072-0.142-0.151-0.281-0.246-0.414
			c-0.011-0.016-0.022-0.027-0.034-0.042c-0.08-0.163-0.178-0.32-0.288-0.471c-0.078-0.165-0.17-0.325-0.279-0.478
			c-0.071-0.156-0.158-0.308-0.259-0.452c-0.075-0.177-0.168-0.346-0.278-0.505c-0.069-0.163-0.153-0.318-0.253-0.471
			c-0.065-0.162-0.147-0.32-0.244-0.472c-0.064-0.17-0.146-0.332-0.241-0.487c-0.063-0.175-0.143-0.344-0.24-0.502
			c-0.059-0.167-0.134-0.33-0.223-0.483c-0.056-0.171-0.126-0.335-0.215-0.491c-0.052-0.171-0.121-0.337-0.204-0.494
			c-0.053-0.181-0.122-0.354-0.208-0.521c-0.049-0.175-0.112-0.339-0.192-0.5c-0.045-0.173-0.105-0.342-0.181-0.501
			c-0.043-0.176-0.102-0.344-0.175-0.506c-0.043-0.188-0.102-0.37-0.18-0.545c-0.039-0.172-0.092-0.34-0.158-0.5
			c-0.037-0.182-0.093-0.358-0.16-0.528c-0.036-0.184-0.086-0.362-0.152-0.534c-0.034-0.18-0.083-0.349-0.144-0.515
			c-0.033-0.187-0.079-0.367-0.142-0.538c-0.003-0.021-0.004-0.038-0.007-0.059c-0.032-0.16-0.076-0.313-0.128-0.466
			c-0.013-0.074-0.023-0.147-0.04-0.223c-0.023-0.102-0.055-0.203-0.087-0.303c-0.02-0.127-0.047-0.255-0.082-0.386
			c-0.013-0.052-0.033-0.1-0.049-0.151c-0.026-0.178-0.062-0.356-0.117-0.537c-0.001-0.006-0.004-0.011-0.006-0.017
			c-0.026-0.167-0.065-0.337-0.114-0.507c-0.027-0.188-0.067-0.374-0.121-0.56c-0.025-0.183-0.062-0.365-0.113-0.548
			c-0.024-0.168-0.06-0.338-0.104-0.506c-0.024-0.193-0.062-0.384-0.114-0.572c-0.025-0.193-0.059-0.389-0.111-0.58
			c-0.021-0.16-0.052-0.319-0.091-0.477c-0.022-0.186-0.059-0.37-0.103-0.553c-0.022-0.195-0.059-0.39-0.106-0.583
			c-0.023-0.192-0.056-0.385-0.103-0.576c-0.022-0.17-0.051-0.337-0.091-0.505c-0.02-0.175-0.051-0.347-0.089-0.519
			c-0.02-0.188-0.053-0.375-0.095-0.562c-0.022-0.199-0.056-0.395-0.099-0.591c-0.022-0.187-0.055-0.374-0.096-0.56
			c-0.021-0.179-0.053-0.357-0.091-0.531c-0.02-0.182-0.05-0.362-0.088-0.539c-0.021-0.184-0.05-0.366-0.087-0.547
			c-0.021-0.184-0.049-0.369-0.086-0.55c-0.02-0.187-0.048-0.372-0.085-0.558c-0.02-0.188-0.052-0.373-0.089-0.56
			c-0.021-0.182-0.052-0.364-0.088-0.547c-0.021-0.185-0.052-0.369-0.087-0.552c-0.021-0.187-0.051-0.371-0.086-0.556
			c-0.018-0.163-0.041-0.324-0.07-0.485c-0.02-0.206-0.051-0.413-0.09-0.616c-0.021-0.189-0.05-0.376-0.084-0.563
			c-0.022-0.188-0.05-0.378-0.084-0.563c-0.021-0.191-0.048-0.38-0.083-0.569c-0.197-1.718-0.953-3.382-2.27-4.7
			c-3.098-3.098-8.12-3.098-11.217,0c-2.958,2.958-3.089,7.668-0.4,10.782c0.114,0.153,0.234,0.303,0.359,0.447
			c0.114,0.153,0.234,0.304,0.36,0.45c0.111,0.149,0.225,0.294,0.347,0.435c0.11,0.147,0.226,0.292,0.347,0.433
			c0.096,0.129,0.2,0.25,0.305,0.373c0.105,0.148,0.223,0.29,0.342,0.431c0.12,0.169,0.25,0.333,0.388,0.489
			c0.117,0.163,0.239,0.323,0.373,0.477c0.008,0.011,0.018,0.019,0.024,0.027c0.091,0.12,0.18,0.244,0.277,0.36
			c0.019,0.021,0.04,0.041,0.059,0.062c0.08,0.109,0.157,0.222,0.244,0.325c0.03,0.035,0.062,0.064,0.093,0.101
			c0.069,0.097,0.135,0.194,0.21,0.289c0.04,0.049,0.084,0.092,0.125,0.138c0.06,0.082,0.113,0.169,0.179,0.251
			c0.05,0.062,0.106,0.121,0.158,0.181c0.049,0.068,0.092,0.14,0.144,0.206c0.061,0.079,0.129,0.15,0.193,0.226
			c0.038,0.055,0.07,0.109,0.11,0.163c0.071,0.096,0.15,0.183,0.226,0.271c0.025,0.037,0.048,0.078,0.076,0.114
			c0.082,0.114,0.173,0.219,0.262,0.323c0.015,0.022,0.026,0.043,0.041,0.065c0.094,0.13,0.193,0.255,0.296,0.374
			c0.002,0.005,0.003,0.009,0.006,0.014c0.114,0.166,0.237,0.321,0.365,0.471c0.104,0.152,0.215,0.296,0.333,0.432
			c0.105,0.153,0.217,0.3,0.333,0.438c0.104,0.154,0.215,0.303,0.333,0.44c0.103,0.156,0.213,0.304,0.332,0.444
			c0.103,0.157,0.213,0.309,0.332,0.448c0.1,0.154,0.207,0.304,0.323,0.443c0.102,0.157,0.213,0.304,0.33,0.445
			c0.101,0.159,0.21,0.309,0.328,0.449c0.1,0.16,0.208,0.313,0.327,0.457c0.099,0.161,0.205,0.316,0.324,0.461
			c0.09,0.148,0.19,0.291,0.298,0.426c0.095,0.162,0.204,0.312,0.318,0.457c0.095,0.166,0.202,0.321,0.319,0.468
			c0.093,0.161,0.192,0.316,0.306,0.459c0.085,0.153,0.182,0.297,0.286,0.432c0.09,0.17,0.195,0.327,0.309,0.475
			c0.088,0.168,0.186,0.328,0.3,0.476c0.08,0.154,0.172,0.303,0.274,0.44c0.083,0.17,0.18,0.328,0.29,0.478
			c0.08,0.168,0.172,0.327,0.279,0.476c0.073,0.159,0.16,0.31,0.259,0.452c0.077,0.178,0.17,0.344,0.277,0.502
			c0.07,0.161,0.153,0.315,0.249,0.463c0.067,0.17,0.151,0.331,0.25,0.485c0.065,0.171,0.147,0.335,0.243,0.49
			c0.061,0.164,0.137,0.323,0.225,0.474c0.061,0.177,0.141,0.348,0.234,0.512c0.055,0.165,0.124,0.325,0.208,0.479
			c0.056,0.18,0.128,0.355,0.218,0.522c0.05,0.167,0.113,0.329,0.193,0.484c0.049,0.176,0.112,0.348,0.194,0.514
			c0.046,0.176,0.106,0.347,0.184,0.508c0.042,0.17,0.101,0.338,0.173,0.5c0.042,0.185,0.101,0.365,0.178,0.543
			c0.038,0.169,0.09,0.334,0.156,0.496c0.037,0.18,0.092,0.356,0.161,0.53c0.035,0.18,0.085,0.359,0.152,0.534
			c0.032,0.169,0.078,0.335,0.139,0.498c0.031,0.186,0.082,0.368,0.145,0.547c0.031,0.184,0.075,0.367,0.138,0.548
			c0.029,0.169,0.07,0.339,0.124,0.505c0.027,0.18,0.073,0.358,0.13,0.537c0.026,0.183,0.068,0.367,0.125,0.548
			c0.027,0.186,0.064,0.369,0.119,0.549c0.025,0.17,0.061,0.339,0.108,0.507c0.024,0.183,0.067,0.368,0.119,0.551
			c0.024,0.183,0.062,0.366,0.113,0.549c0.023,0.181,0.059,0.364,0.106,0.545c0.023,0.182,0.055,0.363,0.102,0.544
			c0.022,0.165,0.051,0.333,0.091,0.5c0.005,0.016,0.011,0.03,0.014,0.046c0.019,0.143,0.04,0.283,0.071,0.424
			c0.009,0.042,0.023,0.083,0.034,0.124c0.015,0.117,0.027,0.23,0.051,0.347c0.014,0.068,0.035,0.134,0.051,0.201
			c0.011,0.09,0.019,0.18,0.034,0.27c0.017,0.092,0.042,0.182,0.063,0.272c0.008,0.065,0.011,0.131,0.021,0.198
			c0.02,0.116,0.047,0.229,0.073,0.344c0.005,0.043,0.006,0.083,0.012,0.124c0.02,0.143,0.05,0.278,0.081,0.415
			c0.002,0.02,0.001,0.038,0.004,0.056c0.022,0.187,0.056,0.369,0.097,0.547c0.022,0.185,0.054,0.369,0.094,0.546
			c0.022,0.187,0.053,0.367,0.093,0.547c0.022,0.184,0.052,0.365,0.091,0.544c0.02,0.184,0.051,0.362,0.089,0.541
			c0.02,0.184,0.049,0.361,0.086,0.54c0.021,0.184,0.05,0.36,0.086,0.538c0.019,0.172,0.046,0.34,0.078,0.507
			c0.021,0.204,0.052,0.402,0.089,0.602c0.373,3.392,3.264,6.014,6.748,5.979c3.711-0.036,6.688-3.075,6.651-6.787
			C46.474,178.626,45.862,177.121,44.864,175.961"/>
		
			<linearGradient id="SVGID_3_" gradientUnits="userSpaceOnUse" x1="103.6631" y1="-234.6853" x2="86.2113" y2="-254.1575" gradientTransform="matrix(1 0 0 -1 -50 -77.9419)">
			<stop  offset="0" style="stop-color:#6E0097"/>
			<stop  offset="1" style="stop-color:#FF7300"/>
		</linearGradient>
		<path fill="url(#SVGID_3_)" d="M62.196,156.906c0.065-0.052,0.131-0.105,0.195-0.16c0.066-0.052,0.131-0.104,0.195-0.159
			c0.066-0.052,0.132-0.104,0.197-0.16c0.065-0.053,0.132-0.104,0.197-0.16c0.066-0.053,0.133-0.104,0.198-0.161
			c0.066-0.054,0.133-0.104,0.199-0.159s0.133-0.105,0.198-0.16c0.068-0.056,0.135-0.106,0.2-0.162
			c0.013-0.01,0.024-0.021,0.035-0.029c0.042-0.03,0.082-0.066,0.123-0.1c0.015-0.011,0.028-0.021,0.043-0.033
			c0.011-0.009,0.021-0.019,0.031-0.026c0.067-0.051,0.132-0.103,0.197-0.158c0.067-0.051,0.133-0.104,0.198-0.16
			c0.066-0.051,0.133-0.103,0.199-0.159c0.065-0.052,0.131-0.104,0.197-0.16c0.066-0.051,0.133-0.103,0.199-0.158
			c0.067-0.053,0.134-0.104,0.199-0.158c0.307-0.241,0.604-0.501,0.887-0.783c3.93-3.904,3.951-10.253,0.046-14.182
			c-3.904-3.932-10.254-3.951-14.183-0.047c-1.724,1.715-2.696,3.9-2.914,6.145c-0.008,0.074-0.018,0.147-0.025,0.222
			c-0.009,0.072-0.018,0.146-0.025,0.22c-0.01,0.073-0.02,0.147-0.027,0.221c-0.009,0.072-0.019,0.146-0.025,0.22
			c-0.01,0.074-0.019,0.146-0.026,0.221c-0.011,0.073-0.02,0.146-0.027,0.222c-0.01,0.073-0.019,0.146-0.026,0.221
			c-0.01,0.074-0.019,0.149-0.026,0.225c-0.011,0.071-0.019,0.146-0.026,0.221c-0.011,0.073-0.02,0.147-0.028,0.223
			c-0.01,0.073-0.018,0.147-0.026,0.222c-0.012,0.073-0.02,0.148-0.028,0.223c-0.018,0.119-0.032,0.237-0.044,0.356
			c-0.013,0.093-0.026,0.185-0.035,0.278c-0.01,0.072-0.021,0.146-0.028,0.22c-0.009,0.072-0.02,0.144-0.027,0.218
			c-0.011,0.073-0.02,0.146-0.028,0.22c-0.01,0.073-0.021,0.146-0.027,0.221c-0.011,0.073-0.021,0.146-0.029,0.221
			c-0.01,0.073-0.02,0.147-0.028,0.222c-0.012,0.074-0.02,0.146-0.029,0.221c-0.011,0.072-0.021,0.146-0.028,0.222
			c-0.012,0.072-0.021,0.146-0.03,0.221c-0.011,0.074-0.02,0.147-0.029,0.222c-0.02,0.123-0.036,0.244-0.05,0.365
			c-0.01,0.073-0.02,0.146-0.029,0.219c-0.011,0.073-0.02,0.146-0.03,0.219c-0.011,0.074-0.021,0.146-0.029,0.22
			c-0.012,0.073-0.022,0.146-0.031,0.219c-0.011,0.073-0.021,0.146-0.03,0.221c-0.012,0.073-0.021,0.146-0.031,0.221
			c-0.014,0.077-0.023,0.153-0.033,0.23c-0.007,0.044-0.011,0.086-0.018,0.13c-0.001,0.015-0.003,0.026-0.005,0.04
			c-0.012,0.069-0.02,0.14-0.029,0.211c-0.012,0.07-0.02,0.141-0.03,0.21c-0.014,0.069-0.021,0.141-0.031,0.21
			c-0.019,0.097-0.027,0.191-0.042,0.286c-0.022,0.129-0.042,0.258-0.059,0.385c-0.018,0.111-0.04,0.221-0.052,0.33
			c-0.01,0.068-0.024,0.135-0.032,0.203c-0.011,0.069-0.024,0.138-0.033,0.204c-0.01,0.068-0.023,0.136-0.032,0.202
			c-0.011,0.068-0.023,0.137-0.033,0.206c-0.013,0.067-0.023,0.137-0.033,0.204c-0.013,0.067-0.024,0.136-0.034,0.203
			c-0.014,0.067-0.023,0.137-0.034,0.206c-0.014,0.068-0.024,0.138-0.035,0.205c-0.015,0.068-0.024,0.137-0.035,0.204
			c-0.015,0.068-0.024,0.139-0.037,0.209c-0.02,0.093-0.033,0.188-0.049,0.285c-0.026,0.119-0.05,0.241-0.067,0.363
			c-0.015,0.08-0.034,0.157-0.045,0.237c-0.012,0.065-0.027,0.132-0.037,0.198c-0.015,0.067-0.029,0.135-0.039,0.201
			c-0.015,0.065-0.029,0.134-0.039,0.199c-0.016,0.065-0.029,0.134-0.04,0.201c-0.017,0.066-0.029,0.134-0.041,0.201
			c-0.017,0.066-0.029,0.134-0.042,0.2c-0.018,0.067-0.028,0.136-0.043,0.203c-0.027,0.105-0.048,0.215-0.067,0.324
			c-0.024,0.094-0.049,0.188-0.066,0.286c-0.015,0.064-0.032,0.129-0.044,0.195c-0.017,0.065-0.033,0.132-0.045,0.197
			c-0.019,0.063-0.033,0.129-0.048,0.194c-0.019,0.065-0.033,0.133-0.048,0.198c-0.019,0.064-0.034,0.132-0.05,0.196
			c-0.02,0.068-0.037,0.141-0.054,0.213c-0.034,0.108-0.063,0.221-0.088,0.332c-0.02,0.068-0.042,0.138-0.058,0.209
			c-0.02,0.063-0.038,0.128-0.054,0.193c-0.02,0.062-0.039,0.126-0.055,0.19c-0.021,0.065-0.04,0.129-0.058,0.192
			c-0.021,0.062-0.04,0.127-0.059,0.192c-0.032,0.088-0.059,0.179-0.084,0.269c-0.03,0.083-0.06,0.166-0.082,0.253
			c-0.022,0.061-0.045,0.123-0.063,0.186c-0.023,0.063-0.045,0.125-0.065,0.188c-0.023,0.061-0.046,0.122-0.066,0.185
			c-0.025,0.062-0.047,0.127-0.068,0.188c-0.041,0.094-0.076,0.19-0.108,0.287c-0.028,0.065-0.057,0.135-0.08,0.204
			c-0.026,0.061-0.052,0.119-0.075,0.182c-0.027,0.062-0.052,0.122-0.075,0.183c-0.028,0.06-0.054,0.119-0.079,0.183
			c-0.04,0.079-0.075,0.161-0.108,0.241c-0.038,0.075-0.074,0.15-0.105,0.228c-0.029,0.058-0.059,0.115-0.085,0.175
			c-0.03,0.06-0.06,0.117-0.088,0.178c-0.032,0.057-0.06,0.114-0.089,0.176c-0.042,0.072-0.082,0.147-0.119,0.225
			c-0.041,0.067-0.082,0.138-0.119,0.211c-0.003,0.006-0.004,0.011-0.007,0.018c-0.023,0.039-0.051,0.077-0.072,0.118
			c-0.01,0.019-0.017,0.035-0.024,0.054c-0.019,0.026-0.038,0.055-0.055,0.083c-0.017,0.026-0.028,0.058-0.044,0.084
			c-0.011,0.019-0.023,0.034-0.035,0.052c-0.023,0.038-0.044,0.079-0.065,0.117c-0.004,0.007-0.01,0.013-0.014,0.019
			c-0.043,0.062-0.079,0.127-0.116,0.192c-0.052,0.076-0.101,0.15-0.146,0.229c-0.037,0.054-0.074,0.106-0.108,0.164
			c-0.038,0.054-0.075,0.106-0.109,0.163c-0.04,0.054-0.076,0.106-0.113,0.162c-0.045,0.057-0.085,0.118-0.126,0.179
			c-0.064,0.08-0.125,0.162-0.181,0.246c-0.041,0.052-0.08,0.104-0.118,0.16c-0.041,0.05-0.082,0.102-0.12,0.156
			c-0.043,0.051-0.083,0.102-0.122,0.156c-0.044,0.05-0.083,0.101-0.123,0.154c-0.062,0.069-0.12,0.143-0.176,0.217
			c-0.058,0.065-0.115,0.131-0.167,0.2c-0.044,0.051-0.089,0.102-0.13,0.153c-0.045,0.051-0.087,0.101-0.129,0.15
			c-0.046,0.051-0.089,0.1-0.132,0.149c-0.046,0.049-0.089,0.1-0.133,0.148c-0.061,0.063-0.117,0.131-0.175,0.197
			c-0.072,0.072-0.142,0.146-0.208,0.223c-0.046,0.048-0.094,0.099-0.139,0.148c-0.047,0.048-0.094,0.097-0.138,0.146
			c-0.048,0.048-0.095,0.098-0.141,0.146c-0.048,0.049-0.094,0.097-0.139,0.143c-0.049,0.049-0.095,0.097-0.142,0.145
			c-0.06,0.057-0.114,0.115-0.17,0.174c-0.087,0.08-0.171,0.162-0.25,0.249c-0.052,0.051-0.106,0.101-0.156,0.152
			c-0.049,0.047-0.1,0.096-0.146,0.145c-0.05,0.047-0.099,0.093-0.147,0.142c-0.05,0.048-0.099,0.095-0.146,0.143
			c-0.051,0.047-0.1,0.092-0.146,0.141c-0.052,0.044-0.1,0.092-0.148,0.141c-0.049,0.043-0.098,0.092-0.146,0.139
			c-0.072,0.061-0.139,0.128-0.206,0.195c-0.094,0.078-0.185,0.16-0.271,0.248c-0.057,0.053-0.115,0.102-0.169,0.154
			c-0.052,0.048-0.104,0.092-0.153,0.14c-0.052,0.048-0.103,0.093-0.154,0.142c-0.052,0.045-0.103,0.09-0.153,0.138
			c-0.053,0.045-0.103,0.092-0.154,0.14c-0.053,0.044-0.103,0.091-0.153,0.137c-0.053,0.045-0.103,0.092-0.154,0.138
			c-0.053,0.043-0.102,0.091-0.153,0.137c-0.053,0.043-0.102,0.092-0.153,0.136c-0.056,0.044-0.106,0.095-0.159,0.142
			c-0.1,0.079-0.191,0.165-0.285,0.25c-0.098,0.082-0.197,0.162-0.289,0.25c-0.054,0.047-0.109,0.089-0.161,0.139
			c-0.054,0.045-0.108,0.092-0.16,0.139c-0.055,0.045-0.108,0.089-0.161,0.136c-0.007,0.007-0.014,0.012-0.02,0.019
			c-0.004,0.003-0.007,0.006-0.011,0.009c-0.033,0.028-0.067,0.054-0.1,0.083c-0.061,0.049-0.119,0.101-0.177,0.151
			c-0.058,0.047-0.114,0.096-0.17,0.144c-0.058,0.046-0.114,0.095-0.169,0.143c-0.058,0.048-0.113,0.095-0.169,0.142
			c-1.553,1.26-2.547,3.184-2.547,5.338c0,3.794,3.076,6.87,6.871,6.87c3.497,0,6.382-2.613,6.812-5.992
			c0.013-0.081,0.025-0.162,0.035-0.243c0.013-0.079,0.025-0.159,0.036-0.239c0.013-0.08,0.025-0.159,0.036-0.238
			c0.012-0.072,0.022-0.146,0.032-0.218c0.011-0.063,0.017-0.13,0.024-0.196c0.016-0.088,0.028-0.177,0.041-0.267
			c0.016-0.089,0.03-0.178,0.042-0.268c0.015-0.087,0.03-0.175,0.041-0.264c0.016-0.09,0.031-0.178,0.043-0.266
			c0.014-0.082,0.031-0.162,0.041-0.245c0.018-0.08,0.025-0.166,0.04-0.25c0.019-0.088,0.03-0.179,0.045-0.268
			c0.018-0.089,0.031-0.179,0.044-0.266c0.018-0.088,0.033-0.177,0.045-0.266c0.018-0.088,0.035-0.175,0.047-0.265
			c0.018-0.086,0.035-0.174,0.048-0.261c0.002-0.013,0.004-0.023,0.007-0.036c0.006-0.024,0.009-0.053,0.015-0.08
			c0.008-0.048,0.02-0.096,0.025-0.145c0.004-0.014,0.006-0.026,0.009-0.04c0.019-0.088,0.033-0.178,0.048-0.265
			c0.02-0.087,0.035-0.175,0.05-0.261c0.02-0.087,0.035-0.173,0.05-0.262c0.019-0.085,0.038-0.171,0.052-0.257
			c0.007-0.03,0.014-0.061,0.02-0.093c0.007-0.027,0.013-0.059,0.018-0.086c0.005-0.025,0.012-0.053,0.016-0.076
			c0.007-0.032,0.014-0.065,0.019-0.098c0.021-0.084,0.038-0.17,0.054-0.257c0.021-0.084,0.039-0.169,0.055-0.254
			c0.02-0.082,0.041-0.164,0.055-0.249c0.012-0.045,0.022-0.09,0.031-0.137c0.023-0.08,0.038-0.165,0.057-0.249
			c0.021-0.082,0.041-0.163,0.057-0.246c0.022-0.08,0.043-0.161,0.061-0.242c0.015-0.056,0.029-0.111,0.043-0.166
			c0.022-0.079,0.041-0.159,0.059-0.24c0.023-0.078,0.043-0.157,0.062-0.236c0.022-0.077,0.045-0.151,0.063-0.229
			c0.02-0.062,0.035-0.125,0.052-0.188c0.023-0.075,0.044-0.151,0.063-0.228c0.023-0.072,0.048-0.145,0.066-0.219
			c0.023-0.07,0.044-0.14,0.062-0.209c0.024-0.071,0.046-0.144,0.065-0.216c0.024-0.068,0.051-0.139,0.07-0.208
			c0.027-0.071,0.049-0.146,0.07-0.22c0.026-0.068,0.049-0.137,0.07-0.205c0.029-0.073,0.059-0.146,0.082-0.222
			c0.027-0.065,0.048-0.135,0.071-0.201c0.025-0.062,0.051-0.128,0.074-0.19c0.034-0.077,0.061-0.156,0.09-0.235
			c0.027-0.06,0.052-0.122,0.074-0.183c0.037-0.078,0.072-0.156,0.102-0.237c0.027-0.061,0.05-0.12,0.074-0.181
			c0.033-0.069,0.067-0.14,0.096-0.21c0.034-0.066,0.062-0.134,0.09-0.203c0.032-0.06,0.063-0.121,0.092-0.183
			c0.039-0.071,0.072-0.144,0.104-0.218c0.03-0.057,0.06-0.109,0.087-0.166c0.043-0.073,0.08-0.148,0.116-0.224
			c0.018-0.031,0.039-0.062,0.056-0.094c0.013-0.022,0.021-0.048,0.032-0.068c0.044-0.071,0.086-0.146,0.125-0.223
			c0.032-0.054,0.063-0.105,0.091-0.159c0.048-0.073,0.094-0.146,0.136-0.224c0.033-0.053,0.065-0.105,0.097-0.16
			c0.046-0.065,0.089-0.135,0.13-0.204c0.039-0.057,0.075-0.115,0.112-0.175c0.042-0.062,0.085-0.121,0.124-0.184
			c0.046-0.062,0.088-0.126,0.13-0.193c0.039-0.05,0.078-0.1,0.113-0.156c0.054-0.066,0.101-0.139,0.148-0.21
			c0.041-0.052,0.081-0.104,0.119-0.16c0.053-0.063,0.104-0.129,0.151-0.197c0.043-0.052,0.083-0.107,0.123-0.163
			c0.046-0.054,0.092-0.107,0.134-0.164c0.052-0.06,0.101-0.124,0.148-0.187c0.047-0.056,0.093-0.109,0.138-0.167
			c0.05-0.059,0.101-0.113,0.147-0.174c0.05-0.054,0.096-0.114,0.143-0.171c0.051-0.056,0.101-0.11,0.149-0.171
			c0.048-0.051,0.096-0.102,0.142-0.157c0.053-0.056,0.102-0.114,0.152-0.173c0.056-0.06,0.109-0.116,0.161-0.177
			c0.043-0.044,0.088-0.09,0.13-0.137c0.058-0.059,0.11-0.118,0.164-0.178c0.058-0.059,0.113-0.117,0.168-0.181
			c0.059-0.058,0.119-0.116,0.174-0.177c0.039-0.038,0.076-0.076,0.113-0.116c0.062-0.059,0.118-0.118,0.176-0.182
			c0.061-0.058,0.122-0.117,0.18-0.179c0.063-0.059,0.125-0.118,0.183-0.182c0.031-0.028,0.062-0.059,0.092-0.09
			c0.031-0.025,0.061-0.058,0.091-0.088c0.002-0.002,0.004-0.002,0.006-0.004c0.03-0.028,0.058-0.059,0.086-0.087
			c0.065-0.061,0.126-0.12,0.187-0.183c0.065-0.059,0.128-0.117,0.189-0.182c0.065-0.06,0.131-0.118,0.193-0.182
			c0.02-0.019,0.039-0.036,0.058-0.056c0.026-0.021,0.051-0.047,0.077-0.07c0.021-0.019,0.041-0.037,0.061-0.057
			c0.018-0.019,0.036-0.034,0.055-0.052c0.066-0.059,0.129-0.12,0.192-0.181c0.066-0.059,0.132-0.118,0.195-0.182
			c0.067-0.06,0.135-0.118,0.198-0.182c0.067-0.059,0.136-0.12,0.2-0.181c0.005-0.005,0.009-0.009,0.014-0.015
			c0.001-0.001,0.003-0.002,0.004-0.003c0.061-0.055,0.125-0.106,0.184-0.165c0.002-0.003,0.005-0.006,0.009-0.009
			c0.068-0.059,0.133-0.119,0.198-0.179c0.069-0.058,0.135-0.119,0.201-0.18c0.068-0.057,0.135-0.116,0.201-0.177
			c0.069-0.061,0.137-0.119,0.202-0.181c0.07-0.059,0.14-0.118,0.205-0.181c0.069-0.059,0.141-0.115,0.206-0.177
			c0.062-0.058,0.129-0.107,0.19-0.164c0.056-0.048,0.107-0.098,0.162-0.143c0.071-0.059,0.136-0.118,0.203-0.176
			c0.07-0.057,0.138-0.117,0.205-0.177c0.069-0.056,0.138-0.114,0.205-0.176c0.07-0.057,0.139-0.115,0.206-0.175
			c0.069-0.06,0.14-0.116,0.207-0.176c0.069-0.059,0.141-0.116,0.208-0.178c0.002-0.001,0.004-0.003,0.006-0.005
			c0.094-0.073,0.185-0.148,0.274-0.227c0.063-0.051,0.126-0.103,0.188-0.157c0.064-0.052,0.127-0.104,0.189-0.158
			c0.064-0.054,0.128-0.104,0.19-0.16c0.064-0.054,0.129-0.105,0.192-0.161c0.064-0.053,0.129-0.104,0.192-0.157
			c0.036-0.03,0.071-0.062,0.106-0.09c0.009-0.007,0.018-0.014,0.024-0.02c0.058-0.045,0.111-0.095,0.167-0.141
			c0.018-0.016,0.035-0.027,0.054-0.042c0.047-0.038,0.093-0.08,0.14-0.118c0.025-0.021,0.054-0.042,0.08-0.062
			c0.038-0.031,0.075-0.065,0.113-0.097c0.035-0.028,0.071-0.055,0.106-0.084c0.03-0.025,0.059-0.052,0.088-0.076
			c0.044-0.036,0.089-0.068,0.133-0.105c0.02-0.018,0.042-0.037,0.062-0.056c0.053-0.041,0.104-0.082,0.157-0.125
			c0.014-0.013,0.025-0.024,0.04-0.036c0.06-0.048,0.121-0.096,0.18-0.146c0.006-0.005,0.012-0.011,0.018-0.016
			c0.023-0.021,0.049-0.039,0.073-0.061C62.069,157.015,62.132,156.96,62.196,156.906"/>
		
			<linearGradient id="SVGID_4_" gradientUnits="userSpaceOnUse" x1="108.0479" y1="-222.5344" x2="135.3598" y2="-266.2258" gradientTransform="matrix(1 0 0 -1 -50 -77.9419)">
			<stop  offset="0.0221" style="stop-color:#6E0097"/>
			<stop  offset="1" style="stop-color:#FF0009"/>
		</linearGradient>
		<path fill="url(#SVGID_4_)" d="M78.896,180.724c-0.056-0.071-0.115-0.142-0.176-0.209c-0.057-0.07-0.113-0.141-0.175-0.208
			c-0.055-0.069-0.111-0.14-0.171-0.207c-0.043-0.055-0.089-0.108-0.135-0.16c-0.055-0.073-0.114-0.143-0.174-0.211
			c-0.055-0.071-0.111-0.14-0.171-0.205c-0.053-0.07-0.109-0.14-0.167-0.205c-0.053-0.07-0.106-0.142-0.164-0.206
			c-0.051-0.066-0.102-0.132-0.156-0.193c-0.053-0.07-0.107-0.138-0.166-0.206c-0.052-0.069-0.104-0.136-0.161-0.201
			c-0.05-0.068-0.101-0.134-0.156-0.198c-0.051-0.071-0.102-0.142-0.159-0.208c-0.052-0.074-0.109-0.146-0.167-0.215
			c-0.048-0.067-0.099-0.132-0.15-0.193c-0.045-0.067-0.093-0.133-0.143-0.193c-0.054-0.08-0.11-0.158-0.171-0.231
			c-0.049-0.068-0.1-0.137-0.152-0.202c-0.043-0.062-0.088-0.127-0.135-0.186c-0.051-0.079-0.105-0.155-0.164-0.229
			c-0.047-0.073-0.1-0.144-0.153-0.214c-0.038-0.061-0.079-0.121-0.121-0.178c-0.051-0.087-0.108-0.167-0.167-0.243
			c-0.042-0.068-0.087-0.136-0.135-0.197c-0.042-0.071-0.086-0.141-0.134-0.206c-0.006-0.011-0.01-0.021-0.017-0.031
			c-0.043-0.073-0.089-0.143-0.138-0.207c-0.02-0.033-0.035-0.066-0.057-0.1c-0.017-0.026-0.036-0.051-0.054-0.077
			c-0.042-0.078-0.087-0.153-0.139-0.229c-0.004-0.006-0.009-0.012-0.012-0.017c-0.033-0.061-0.07-0.122-0.109-0.183
			c-0.042-0.081-0.09-0.164-0.145-0.244c-0.032-0.065-0.069-0.131-0.109-0.193c-0.039-0.085-0.086-0.165-0.136-0.246
			c-0.033-0.068-0.068-0.135-0.107-0.201c-0.038-0.084-0.081-0.166-0.128-0.246c-0.031-0.07-0.067-0.138-0.104-0.205
			c-0.035-0.085-0.074-0.167-0.119-0.247c-0.03-0.072-0.063-0.143-0.102-0.211c-0.031-0.081-0.064-0.162-0.106-0.24
			c-0.028-0.076-0.061-0.149-0.099-0.222c-0.026-0.074-0.057-0.146-0.09-0.215c-0.028-0.087-0.063-0.171-0.102-0.252
			c-0.025-0.073-0.053-0.146-0.085-0.218c-0.027-0.088-0.06-0.173-0.097-0.256c-0.021-0.073-0.049-0.146-0.078-0.217
			c-0.025-0.089-0.054-0.178-0.09-0.263c-0.021-0.072-0.045-0.143-0.073-0.215c-0.023-0.091-0.05-0.182-0.084-0.269
			c-0.02-0.07-0.041-0.141-0.066-0.21c-0.021-0.094-0.048-0.184-0.081-0.273c-0.016-0.067-0.036-0.139-0.058-0.206
			c-0.021-0.093-0.046-0.185-0.077-0.277c-0.016-0.072-0.035-0.145-0.058-0.217c-0.018-0.089-0.04-0.175-0.065-0.261
			c-0.017-0.09-0.039-0.18-0.065-0.264c-0.014-0.072-0.029-0.143-0.049-0.21c-0.017-0.096-0.038-0.188-0.063-0.28
			c-0.017-0.085-0.035-0.169-0.059-0.251c-0.013-0.076-0.027-0.152-0.048-0.228c-0.015-0.09-0.032-0.179-0.054-0.263
			c-0.001-0.008-0.001-0.017-0.002-0.023c-0.014-0.08-0.032-0.157-0.052-0.232c-0.006-0.034-0.008-0.066-0.014-0.103
			c-0.009-0.047-0.023-0.093-0.034-0.14c-0.01-0.064-0.018-0.131-0.031-0.196c-0.005-0.017-0.01-0.033-0.014-0.053
			c-0.013-0.086-0.028-0.174-0.048-0.259c-0.013-0.083-0.028-0.166-0.047-0.25c-0.012-0.085-0.026-0.169-0.045-0.254
			c-0.011-0.087-0.025-0.174-0.044-0.261c-0.011-0.086-0.022-0.175-0.04-0.262c-0.011-0.077-0.026-0.155-0.041-0.232
			c-0.011-0.088-0.026-0.175-0.043-0.263c-0.011-0.09-0.025-0.175-0.042-0.264c-0.011-0.09-0.023-0.179-0.04-0.269
			c-0.012-0.091-0.022-0.181-0.04-0.27c-0.008-0.065-0.018-0.133-0.028-0.198c-0.01-0.09-0.025-0.177-0.04-0.267
			c-0.01-0.09-0.024-0.18-0.04-0.27c-0.01-0.093-0.022-0.182-0.038-0.271c-0.01-0.093-0.022-0.183-0.038-0.275
			c-0.01-0.093-0.021-0.183-0.036-0.276c-0.011-0.094-0.021-0.185-0.037-0.277c-0.005-0.049-0.012-0.096-0.019-0.144
			c-0.009-0.092-0.022-0.181-0.037-0.272c-0.009-0.092-0.021-0.183-0.035-0.274c-0.009-0.092-0.022-0.184-0.036-0.276
			c-0.009-0.094-0.021-0.185-0.034-0.276c-0.01-0.093-0.021-0.187-0.035-0.28c-0.009-0.095-0.02-0.186-0.035-0.279
			c-0.009-0.095-0.019-0.188-0.033-0.283c-0.01-0.093-0.019-0.187-0.034-0.281c-0.002-0.022-0.004-0.045-0.007-0.067
			c-0.001-0.023-0.005-0.047-0.007-0.07c-0.007-0.048-0.01-0.099-0.019-0.146c-0.002-0.021-0.005-0.041-0.008-0.06
			c-0.007-0.095-0.02-0.186-0.032-0.278c-0.007-0.093-0.02-0.184-0.032-0.277c-0.008-0.094-0.021-0.187-0.031-0.279
			c-0.009-0.093-0.021-0.185-0.032-0.279c-0.008-0.095-0.02-0.188-0.032-0.28c-0.008-0.094-0.019-0.188-0.032-0.281
			c-0.009-0.094-0.018-0.188-0.03-0.281c-0.01-0.096-0.018-0.189-0.031-0.282c-0.01-0.096-0.018-0.189-0.031-0.285
			c-0.01-0.094-0.018-0.188-0.031-0.282c-0.01-0.097-0.017-0.191-0.031-0.284c-0.009-0.095-0.015-0.186-0.029-0.278
			c-0.003-0.044-0.011-0.089-0.015-0.134c-0.004-0.035-0.005-0.07-0.01-0.106c-0.006-0.09-0.021-0.182-0.03-0.271
			c-0.006-0.094-0.02-0.186-0.029-0.28c-0.006-0.092-0.019-0.185-0.029-0.278c-0.007-0.094-0.019-0.186-0.028-0.277
			c-0.007-0.096-0.019-0.188-0.029-0.281c-0.006-0.08-0.015-0.16-0.023-0.24c-0.007-0.115-0.019-0.229-0.031-0.345
			c-0.008-0.09-0.018-0.178-0.027-0.267c-0.008-0.088-0.018-0.178-0.028-0.267c-0.008-0.091-0.016-0.179-0.026-0.269
			c-0.008-0.09-0.017-0.178-0.027-0.268c-0.008-0.091-0.016-0.182-0.027-0.271c-0.007-0.091-0.016-0.179-0.026-0.269
			c-0.008-0.093-0.017-0.184-0.026-0.272c-0.005-0.06-0.012-0.119-0.019-0.181c-0.007-0.09-0.017-0.181-0.026-0.269
			c-0.007-0.09-0.018-0.181-0.026-0.267c-0.008-0.09-0.018-0.18-0.026-0.269c-0.008-0.092-0.017-0.183-0.026-0.27
			c-0.008-0.09-0.017-0.18-0.026-0.27c-0.008-0.092-0.017-0.182-0.027-0.27c-0.008-0.091-0.016-0.182-0.025-0.271
			c-0.008-0.091-0.017-0.182-0.026-0.271c-0.008-0.091-0.017-0.182-0.027-0.271c-0.008-0.092-0.015-0.184-0.025-0.271
			c-0.008-0.092-0.017-0.185-0.026-0.273c-0.008-0.091-0.016-0.182-0.026-0.272c-0.008-0.091-0.015-0.183-0.025-0.272
			c-0.009-0.092-0.016-0.183-0.026-0.272c-0.003-0.04-0.007-0.077-0.011-0.116c-0.007-0.091-0.017-0.18-0.025-0.268
			c-0.007-0.092-0.018-0.183-0.026-0.271c-0.007-0.091-0.016-0.181-0.025-0.27c-0.007-0.091-0.017-0.182-0.025-0.271
			c-0.006-0.092-0.017-0.181-0.025-0.271c-0.007-0.09-0.016-0.183-0.025-0.272c-0.007-0.091-0.017-0.18-0.026-0.27
			c-0.006-0.092-0.015-0.183-0.025-0.273c-0.007-0.091-0.015-0.181-0.024-0.271c-0.008-0.092-0.017-0.183-0.026-0.272
			c-0.186-2.314-1.161-4.573-2.931-6.343c-3.955-3.955-10.369-3.955-14.324,0c-3.879,3.877-3.953,10.116-0.224,14.088
			c0.056,0.063,0.115,0.125,0.174,0.189c0.057,0.061,0.116,0.123,0.175,0.186c0.056,0.062,0.116,0.125,0.175,0.188
			c0.057,0.063,0.116,0.125,0.174,0.188s0.117,0.126,0.176,0.188c0.1,0.113,0.204,0.225,0.309,0.335
			c0.063,0.069,0.126,0.141,0.191,0.207c0.002,0.003,0.005,0.005,0.007,0.007c0.052,0.057,0.103,0.114,0.157,0.17
			c0.006,0.006,0.01,0.01,0.015,0.016c0.05,0.057,0.098,0.11,0.148,0.164c0.008,0.008,0.016,0.015,0.022,0.022
			c0.048,0.051,0.093,0.105,0.142,0.155c0.01,0.012,0.021,0.021,0.029,0.028c0.045,0.051,0.089,0.101,0.135,0.149
			c0.013,0.013,0.025,0.024,0.038,0.037c0.042,0.046,0.083,0.096,0.126,0.142c0.015,0.016,0.031,0.029,0.047,0.047
			c0.039,0.043,0.077,0.088,0.117,0.132c0.019,0.02,0.037,0.034,0.055,0.054c0.037,0.042,0.072,0.083,0.109,0.125
			c0.021,0.019,0.042,0.041,0.062,0.062c0.034,0.037,0.066,0.077,0.101,0.114c0.023,0.025,0.048,0.049,0.071,0.072
			c0.031,0.036,0.061,0.069,0.094,0.104c0.025,0.029,0.053,0.056,0.08,0.083c0.027,0.032,0.055,0.064,0.083,0.097
			c0.03,0.029,0.06,0.06,0.089,0.091c0.026,0.028,0.05,0.059,0.076,0.086c0.031,0.036,0.065,0.068,0.098,0.103
			c0.022,0.025,0.044,0.052,0.066,0.076c0.034,0.039,0.071,0.073,0.105,0.111c0.021,0.021,0.039,0.046,0.06,0.067
			c0.037,0.041,0.076,0.08,0.115,0.12c0.016,0.019,0.031,0.039,0.048,0.057c0.041,0.046,0.083,0.087,0.125,0.132
			c0.014,0.018,0.026,0.031,0.04,0.048c0.043,0.05,0.089,0.095,0.134,0.142c0.01,0.012,0.02,0.024,0.03,0.037
			c0.047,0.052,0.095,0.103,0.142,0.151c0.008,0.009,0.015,0.018,0.022,0.025c0.049,0.057,0.101,0.108,0.152,0.162
			c0.004,0.006,0.008,0.011,0.011,0.016c0.053,0.06,0.107,0.119,0.162,0.177c0.001,0.001,0.002,0.001,0.003,0.002
			c0.089,0.103,0.18,0.201,0.272,0.298c0.057,0.062,0.112,0.125,0.172,0.187c0.056,0.062,0.112,0.125,0.169,0.185
			c0.058,0.062,0.113,0.129,0.173,0.188c0.056,0.062,0.113,0.126,0.17,0.187c0.057,0.064,0.113,0.128,0.172,0.188
			c0.057,0.063,0.113,0.127,0.172,0.188c0.057,0.062,0.114,0.126,0.173,0.188c0.104,0.12,0.212,0.236,0.324,0.348
			c0.056,0.061,0.108,0.123,0.166,0.182c0.055,0.059,0.105,0.124,0.163,0.181c0.055,0.06,0.106,0.122,0.163,0.182
			c0.055,0.06,0.105,0.123,0.164,0.179c0.054,0.061,0.106,0.124,0.163,0.183c0.055,0.06,0.107,0.122,0.163,0.182
			c0.055,0.061,0.107,0.122,0.164,0.182c0.056,0.059,0.107,0.123,0.164,0.182c0.054,0.061,0.108,0.122,0.163,0.181
			c0.055,0.063,0.109,0.125,0.165,0.184c0.054,0.062,0.107,0.122,0.164,0.184c0.055,0.061,0.108,0.122,0.165,0.182
			c0.053,0.064,0.107,0.124,0.163,0.185c0.055,0.062,0.11,0.122,0.165,0.183c0.053,0.063,0.108,0.123,0.165,0.183
			c0.054,0.062,0.109,0.125,0.165,0.185c0.052,0.063,0.108,0.123,0.164,0.184c0.053,0.064,0.11,0.124,0.165,0.184
			c0.053,0.065,0.109,0.123,0.165,0.187c0.074,0.091,0.155,0.177,0.234,0.263c0.09,0.108,0.182,0.217,0.279,0.316
			c0.053,0.061,0.103,0.125,0.158,0.183c0.054,0.06,0.105,0.122,0.16,0.18c0.053,0.062,0.104,0.125,0.159,0.184
			c0.053,0.06,0.104,0.123,0.16,0.184c0.053,0.062,0.104,0.123,0.16,0.182c0.052,0.063,0.104,0.126,0.16,0.184
			c0.051,0.063,0.104,0.124,0.16,0.186c0.05,0.062,0.104,0.124,0.159,0.184c0.052,0.062,0.106,0.125,0.16,0.186
			c0.052,0.063,0.106,0.124,0.161,0.185c0.051,0.066,0.105,0.127,0.16,0.188c0.063,0.083,0.134,0.159,0.203,0.236
			c0.073,0.094,0.149,0.183,0.229,0.27c0.052,0.063,0.101,0.128,0.156,0.186c0.051,0.06,0.101,0.124,0.155,0.185
			c0.05,0.062,0.101,0.125,0.155,0.185c0.05,0.063,0.101,0.127,0.156,0.188c0.05,0.063,0.101,0.126,0.156,0.186
			c0.049,0.065,0.101,0.129,0.155,0.189c0.049,0.065,0.101,0.128,0.155,0.189c0.057,0.077,0.118,0.149,0.18,0.224
			c0.063,0.084,0.13,0.167,0.201,0.246c0.049,0.065,0.098,0.13,0.151,0.19c0.049,0.062,0.098,0.127,0.15,0.188
			c0.049,0.066,0.099,0.132,0.151,0.191c0.048,0.066,0.099,0.131,0.149,0.192c0.048,0.069,0.099,0.132,0.149,0.195
			c0.059,0.085,0.121,0.167,0.188,0.245c0.049,0.07,0.101,0.14,0.155,0.205c0.046,0.065,0.095,0.13,0.146,0.194
			c0.046,0.066,0.094,0.133,0.144,0.195c0.046,0.068,0.095,0.135,0.144,0.197c0.045,0.071,0.093,0.138,0.143,0.201
			c0.053,0.084,0.109,0.165,0.171,0.243c0.044,0.067,0.091,0.135,0.14,0.198c0.044,0.068,0.09,0.137,0.14,0.202
			c0.042,0.07,0.088,0.14,0.136,0.204c0.048,0.082,0.1,0.162,0.155,0.237c0.042,0.07,0.086,0.138,0.134,0.203
			c0.041,0.071,0.084,0.141,0.131,0.208c0.039,0.072,0.082,0.143,0.129,0.209c0.043,0.08,0.089,0.159,0.14,0.235
			c0.038,0.071,0.08,0.143,0.125,0.209c0.037,0.073,0.078,0.145,0.122,0.213c0.036,0.073,0.075,0.145,0.119,0.215
			c0.038,0.081,0.08,0.159,0.127,0.235c0.034,0.074,0.072,0.146,0.114,0.218c0.032,0.075,0.068,0.148,0.109,0.219
			c0.032,0.075,0.066,0.15,0.106,0.223c0.033,0.081,0.072,0.159,0.114,0.238c0.029,0.075,0.064,0.148,0.102,0.223
			c0.028,0.076,0.061,0.151,0.098,0.223c0.029,0.084,0.063,0.165,0.102,0.245c0.027,0.077,0.059,0.151,0.094,0.226
			c0.025,0.077,0.056,0.152,0.09,0.227c0.024,0.078,0.052,0.154,0.084,0.229c0.025,0.085,0.058,0.169,0.093,0.252
			c0.022,0.077,0.051,0.154,0.081,0.229c0.021,0.078,0.048,0.155,0.077,0.231c0.022,0.087,0.05,0.173,0.082,0.255
			c0.02,0.081,0.046,0.16,0.075,0.238c0.019,0.079,0.042,0.157,0.069,0.234c0.019,0.078,0.04,0.155,0.066,0.233
			c0.019,0.082,0.04,0.165,0.067,0.245c0.018,0.091,0.042,0.179,0.071,0.266c0.017,0.079,0.037,0.158,0.061,0.237
			c0.016,0.079,0.034,0.157,0.059,0.236c0.014,0.078,0.033,0.156,0.055,0.234c0.018,0.099,0.039,0.197,0.068,0.297
			c0.014,0.08,0.031,0.159,0.053,0.238c0.015,0.08,0.031,0.16,0.053,0.238c0.013,0.078,0.029,0.158,0.049,0.237
			c0.013,0.078,0.029,0.157,0.048,0.236c0.012,0.079,0.029,0.157,0.046,0.236c0.016,0.107,0.035,0.216,0.061,0.322
			c0,0.003,0.001,0.005,0.002,0.009c0.011,0.065,0.02,0.132,0.035,0.197c0.002,0.016,0.007,0.028,0.011,0.045
			c0.008,0.054,0.014,0.107,0.025,0.165c0.004,0.022,0.013,0.049,0.019,0.073c0.006,0.043,0.009,0.089,0.017,0.132
			c0.007,0.038,0.018,0.071,0.025,0.108c0.005,0.032,0.006,0.065,0.012,0.099c0.008,0.05,0.02,0.094,0.029,0.142
			c0.003,0.021,0.003,0.045,0.007,0.066c0.008,0.058,0.021,0.112,0.033,0.17c0.001,0.012,0.001,0.024,0.003,0.036
			c0.009,0.068,0.022,0.135,0.036,0.201c0,0.002,0,0.004,0,0.006c0.014,0.126,0.033,0.247,0.059,0.367
			c0.012,0.082,0.022,0.162,0.039,0.242c0.011,0.082,0.022,0.163,0.037,0.242c0.011,0.081,0.022,0.162,0.036,0.242
			c0.01,0.081,0.021,0.162,0.037,0.241c0.008,0.08,0.02,0.16,0.035,0.24c0.007,0.081,0.02,0.16,0.033,0.24
			c0.009,0.08,0.02,0.159,0.033,0.238c0.201,2.14,2,3.815,4.192,3.815c2.328,0,4.213-1.886,4.213-4.212
			C79.98,182.456,79.569,181.472,78.896,180.724"/>
	</g>
</g>
</svg>
