<?xml version="1.0" encoding="UTF-8"?>
<svg width="124px" height="106px" viewBox="0 0 124 106" version="1.1" xmlns="http://www.w3.org/2000/svg" xmlns:xlink="http://www.w3.org/1999/xlink">
    <!-- Generator: Sketch 60.1 (88133) - https://sketch.com -->
    <title>Group 4</title>
    <desc>Created with Sketch.</desc>
    <defs>
        <linearGradient x1="0%" y1="14.0871875%" x2="100%" y2="85.9128125%" id="linearGradient-1">
            <stop stop-color="#FFC500" offset="0%"></stop>
            <stop stop-color="#FB6E00" offset="32.9878827%"></stop>
            <stop stop-color="#720096" offset="100%"></stop>
        </linearGradient>
        <linearGradient x1="50%" y1="139.953069%" x2="50.0000323%" y2="-23.6704927%" id="linearGradient-2">
            <stop stop-color="#FFC500" offset="0%"></stop>
            <stop stop-color="#DD2222" offset="32.9878827%"></stop>
            <stop stop-color="#720096" offset="100%"></stop>
        </linearGradient>
    </defs>
    <g id="Starlink" stroke="none" stroke-width="1" fill="none" fill-rule="evenodd">
        <g id="02-Demo---Starlink---Modal" transform="translate(-665.000000, -133.000000)">
            <g id="Group-4" transform="translate(665.000000, 133.000000)">
                <path d="M43.7011208,0 C63.6170512,0 80.4213545,13.3724188 85.6883281,31.6599574 C86.2551508,31.6333145 86.8271471,31.62 87.4022416,31.62 C107.614625,31.62 124,48.0668197 124,68.355 C124,88.6431803 107.614625,105.09 87.4022416,105.09 C73.6204804,105.09 61.6179566,97.4436126 55.3756928,86.1467894 C51.6602162,87.1787312 47.7448059,87.73 43.7011208,87.73 C19.5656582,87.73 0,68.0909705 0,43.865 C0,19.6390295 19.5656582,0 43.7011208,0 Z" id="Combined-Shape-Copy" fill-opacity="0.15" fill="url(#linearGradient-1)"></path>
                <g id="Group" transform="translate(9.610000, 0.155000)">
                    <g id="Group-3" transform="translate(52.390000, 52.390000) rotate(-315.000000) translate(-52.390000, -52.390000) translate(12.710000, 18.135000)">
                        <path d="M39.68,0.155 C44.9874564,0.155 49.29,4.45754355 49.29,9.765 L49.2898888,29.372 L51.3825,29.3725 C52.0673331,29.3725 52.6225,29.9276669 52.6225,30.6125 C52.6225,31.2844117 52.0880851,31.8315041 51.4211228,31.8519099 L51.3825,31.8525 L49.2898888,31.852 L49.29,39.37 C49.29,40.3972496 48.4572496,41.23 47.43,41.23 L40.8418888,41.229 L40.8425,47.7001093 C40.8425,47.7776376 40.835385,47.8535041 40.8217724,47.9270914 L40.9628139,47.9357426 C47.5687746,48.3809733 52.6695415,52.4625758 54.1313368,60.12967 L54.14307,60.1961727 C54.190689,60.487288 54.2224437,60.9536579 54.2383341,61.5952825 L54.2434661,61.844794 C54.2434661,62.1768339 53.9824513,62.4479105 53.6544111,62.4640352 L41.1118438,62.46469 L41.0427032,66.8332179 C41.029117,67.6891514 40.3242319,68.3720088 39.4682984,68.3584226 C38.6268722,68.3450666 37.9527049,67.6636471 37.9430005,66.827407 L37.9430937,66.7840177 L38.0115338,62.46469 L25.7259491,62.464589 C25.3836459,62.4557835 25.1132926,62.1711536 25.1220979,61.8288505 L25.1268096,61.6600401 C25.1509451,60.8605435 25.1948309,60.29914 25.2584671,59.9758297 C26.7477176,52.4095373 31.7922311,48.4153596 38.3863081,47.9425046 C38.3730766,47.8764218 38.3652184,47.8082979 38.3630901,47.7387321 L38.3625,47.7001093 L38.3618888,41.229 L31.93,41.23 C30.9027504,41.23 30.07,40.3972496 30.07,39.37 L30.0698888,31.852 L28.0682969,31.8525 C27.3834638,31.8525 26.8282969,31.2973331 26.8282969,30.6125 C26.8282969,29.9405883 27.3627118,29.3934959 28.0296741,29.3730901 L28.0682969,29.3725 L30.0698888,29.372 L30.07,9.765 C30.07,4.45754355 34.3725436,0.155 39.68,0.155 Z M39.7979076,2.63595522 L39.68,2.635 C35.7815876,2.635 32.6139188,5.76368476 32.5509552,9.64709241 L32.55,9.765 L32.549845,38.749845 L46.809845,38.749845 L46.81,9.765 C46.81,5.86658764 43.6813152,2.69891875 39.7979076,2.63595522 Z" id="Combined-Shape" fill="url(#linearGradient-2)" fill-rule="nonzero"></path>
                        <path d="M39.68,2.635 C35.7815876,2.635 32.6139188,5.76368476 32.5509552,9.64709241 L32.55,9.765 L32.549845,38.749845 L46.809845,38.749845 L46.81,9.765 C46.81,5.86658764 43.6813152,2.69891875 39.7979076,2.63595522 L39.68,2.635 Z" id="Path" fill="#F9F9F9" fill-rule="nonzero"></path>
                        <path d="M39.7087533,0.136529306 C45.0033149,0.146736144 49.29,4.44169306 49.29,9.73626455 L49.29,31.5391517 C49.29,36.8912594 44.9512594,41.23 39.5991517,41.23 L39.5991517,41.23 L39.5991517,41.23 L39.7087533,0.136529306 Z" id="Rectangle" fill-opacity="0.05" fill="#231F20"></path>
                        <g id="Group-2" transform="translate(51.150000, 22.320000)" fill="#3E323F" fill-rule="nonzero">
                            <path d="M26.35,0 C27.3772496,0 28.21,0.832750365 28.21,1.86 L28.21,14.57 C28.21,15.5972496 27.3772496,16.43 26.35,16.43 L1.86,16.43 C0.832750365,16.43 0,15.5972496 0,14.57 L0,1.86 C0,0.832750365 0.832750365,0 1.86,0 L26.35,0 Z M8.292,2.79 L2.79,2.79 L2.79,13.64 L8.292,13.64 L8.292,2.79 Z M16.507,2.79 L11.082,2.79 L11.082,13.64 L16.507,13.64 L16.507,2.79 Z M25.42,2.79 L19.297,2.79 L19.297,13.64 L25.42,13.64 L25.42,2.79 Z" id="Combined-Shape"></path>
                        </g>
                        <g id="Group-2" transform="translate(-0.000000, 22.320000)" fill="#3E323F" fill-rule="nonzero">
                            <path d="M26.35,0 C27.3772496,0 28.21,0.832750365 28.21,1.86 L28.21,14.57 C28.21,15.5972496 27.3772496,16.43 26.35,16.43 L1.86,16.43 C0.832750365,16.43 0,15.5972496 0,14.57 L0,1.86 C0,0.832750365 0.832750365,0 1.86,0 L26.35,0 Z M8.292,2.79 L2.79,2.79 L2.79,13.64 L8.292,13.64 L8.292,2.79 Z M16.507,2.79 L11.082,2.79 L11.082,13.64 L16.507,13.64 L16.507,2.79 Z M25.42,2.79 L19.297,2.79 L19.297,13.64 L25.42,13.64 L25.42,2.79 Z" id="Combined-Shape"></path>
                        </g>
                    </g>
                    <path d="M16.5507336,73.0799296 C17.3211708,73.0799296 17.9457336,73.7044924 17.9457336,74.4749296 C17.9457336,81.1700291 23.3189096,86.6101561 29.9882401,86.7182892 L30.1907336,86.7199296 C30.9611708,86.7199296 31.5857336,87.3444924 31.5857336,88.1149296 C31.5857336,88.8853669 30.9611708,89.5099296 30.1907336,89.5099296 C21.8871324,89.5099296 15.1557336,82.7785308 15.1557336,74.4749296 C15.1557336,73.7044924 15.7802964,73.0799296 16.5507336,73.0799296 Z" id="Path" fill="#3E323F" fill-rule="nonzero"></path>
                </g>
            </g>
        </g>
    </g>
</svg>